0
SECTION
2
HEADER
9
$INSUNITS
70
4
9
$ACADVER
1
AC1014
9
$HANDSEED
5
FFFF
0
ENDSEC
0
SECTION
2
TABLES
0
TABLE
2
VPORT
5
8
100
AcDbSymbolTable
0
ENDTAB
0
TABLE
2
LTYPE
5
5
100
AcDbSymbolTable
0
LTYPE
5
14
100
AcDbSymbolTableRecord
100
AcDbLinetypeTableRecord
2
BYBLOCK
70
0
0
LTYPE
5
15
100
AcDbSymbolTableRecord
100
AcDbLinetypeTableRecord
2
BYLAYER
70
0
0
ENDTAB
0
TABLE
2
LAYER
5
2
100
AcDbSymbolTable
70
2
0
LAYER
5
50
100
AcDbSymbolTableRecord
100
AcDbLayerTableRecord
2
0
70
0
6
CONTINUOUS
0
ENDTAB
0
TABLE
2
STYLE
5
3
100
AcDbSymbolTable
70
1
0
STYLE
5
11
100
AcDbSymbolTableRecord
100
AcDbTextStyleTableRecord
2
STANDARD
70
0
0
ENDTAB
0
TABLE
2
VIEW
5
6
100
AcDbSymbolTable
70
0
0
ENDTAB
0
TABLE
2
UCS
5
7
100
AcDbSymbolTable
70
0
0
ENDTAB
0
TABLE
2
APPID
5
9
100
AcDbSymbolTable
70
2
0
APPID
5
12
100
AcDbSymbolTableRecord
100
AcDbRegAppTableRecord
2
ACAD
70
0
0
ENDTAB
0
TABLE
2
DIMSTYLE
5
A
100
AcDbSymbolTable
70
1
0
ENDTAB
0
TABLE
2
BLOCK_RECORD
5
1
100
AcDbSymbolTable
70
1
0
BLOCK_RECORD
5
1F
100
AcDbSymbolTableRecord
100
AcDbBlockTableRecord
2
*MODEL_SPACE
0
BLOCK_RECORD
5
1B
100
AcDbSymbolTableRecord
100
AcDbBlockTableRecord
2
*PAPER_SPACE
0
ENDTAB
0
ENDSEC
0
SECTION
2
BLOCKS
0
BLOCK
5
20
100
AcDbEntity
100
AcDbBlockBegin
2
*MODEL_SPACE
0
ENDBLK
5
21
100
AcDbEntity
100
AcDbBlockEnd
0
BLOCK
5
1C
100
AcDbEntity
100
AcDbBlockBegin
2
*PAPER_SPACE
0
ENDBLK
5
1D
100
AcDbEntity
100
AcDbBlockEnd
0
ENDSEC
0
SECTION
2
ENTITIES
0
LWPOLYLINE
5
100
100
AcDbEntity
8
0
100
AcDbPolyline
90
31
70
1
43
0.0
10
4207.4854412157783
20
-9.8433675423107161
10
4188.4654412167347
20
-9.8433675423107161
10
4188.4654412167347
20
-16.215947850330622
10
4168.3948548174722
20
-16.215947850330622
10
4119.2204412157789
20
-16.215947850330622
10
4119.2204412157789
20
-2.1087660012508422
10
4168.3948548174722
20
-2.1087660012508422
10
4168.3948548174722
20
0.029212765709417002
10
4188.4654412167347
20
0.029212765709416555
10
4188.4654412167347
20
-6.3433675423107161
10
4207.4854412157783
20
-6.3433675423107161
10
4207.4854412157783
20
-2.1056266145908467
10
4240.7568548175968
20
-2.1056266145908467
10
4240.7568548175968
20
-6.3433675423107161
10
4268.0132100939572
20
-6.3433675423104896
10
4268.0132100939572
20
0.029212765709417002
10
4275.5132100951942
20
0.029212765709417002
10
4287.4132100949992
20
0.029212765709417002
10
4294.8132100955754
20
0.02921276570941711
10
4294.8132100955754
20
-2.1087660012508422
10
4326.347941214457
20
-2.1087660012508422
10
4347.7479412159937
20
-2.1087660012508436
10
4347.7479412159937
20
-16.215947850330622
10
4326.347941214457
20
-16.215947850330622
10
4286.4132100934858
20
-16.215947850330622
10
4275.5132100951942
20
-16.215947850330622
10
4268.0132100939572
20
-16.215947850330622
10
4268.0132100939572
20
-9.8433675423104887
10
4240.7568548175968
20
-9.8433675423107161
10
4240.7568548175968
20
-16.215947850330622
10
4207.4854412157783
20
-16.215947850330622
0
LINE
5
101
100
AcDbEntity
8
0
100
AcDbLine
10
4090.0554418166485
20
-18.30625324553057
30
0
11
4090.0554418166485
21
99.498899452049045
31
0
0
LWPOLYLINE
5
102
100
AcDbEntity
8
0
100
AcDbPolyline
90
4
70
1
43
0.0
10
4093.5054412158552
20
83.648899452849037
10
4093.5054412158552
20
97.748899451928992
10
4107.6054412149297
20
97.748899451928992
10
4107.6054412149297
20
83.648899452849037
0
LWPOLYLINE
5
103
100
AcDbEntity
8
0
100
AcDbPolyline
90
4
70
1
43
0.0
10
4093.5054412158552
20
59.871233998369462
10
4093.5054412158552
20
73.971233999989181
10
4107.6054412149297
20
73.971233999989181
10
4107.6054412149297
20
59.871233998369462
0
LWPOLYLINE
5
104
100
AcDbEntity
8
0
100
AcDbPolyline
90
4
70
1
43
0.0
10
4095.5454412150925
20
21.831234000288987
10
4095.5454412150925
20
35.931233999368942
10
4114.8854412167475
20
35.931233999368942
10
4114.8854412167475
20
21.831234000288987
0
LWPOLYLINE
5
105
100
AcDbEntity
8
0
100
AcDbPolyline
90
4
70
1
43
0.0
10
4095.5454412150925
20
-16.215947850330622
10
4095.5454412150925
20
-2.1087660012508422
10
4112.3554412145368
20
-2.1087660012508436
10
4112.3554412145368
20
-16.215947850330622
0
LWPOLYLINE
5
106
100
AcDbEntity
8
0
100
AcDbPolyline
90
12
70
1
43
0.0
10
4095.8554412148574
20
2.8112339987092128
10
4095.8554412148574
20
16.911234000329387
10
4129.0554412155379
20
16.911234000329387
10
4129.0554412155379
20
2.8112339987092128
10
4128.0554412165566
20
2.8112339987092128
10
4128.0554412165566
20
0.6712339988093845
10
4120.6554412159803
20
0.67123399880938461
10
4120.6554412159803
20
2.8112339987092128
10
4104.2554412144145
20
2.8112339987092128
10
4104.2554412144145
20
0.6712339988093845
10
4096.8554412163703
20
0.67123399880938461
10
4096.8554412163703
20
2.8112339987092128
0
LWPOLYLINE
5
107
100
AcDbEntity
8
0
100
AcDbPolyline
90
4
70
1
43
0.0
10
4098.2554412154477
20
40.851233999328997
10
4098.2554412154477
20
54.951233998408959
10
4112.3554412145368
20
54.951233998408959
10
4112.3554412145368
20
40.851233999328997
0
LWPOLYLINE
5
108
100
AcDbEntity
8
0
100
AcDbPolyline
90
4
70
1
43
0.0
10
4110.6054412144058
20
76.471233998709067
10
4110.6054412144058
20
95.751233998449152
10
4128.5458603119241
20
95.751233998449152
10
4128.5458603119241
20
76.471233998709067
0
LWPOLYLINE
5
109
100
AcDbEntity
8
0
100
AcDbPolyline
90
4
70
1
43
0.0
10
4112.5254412148988
20
59.871233998369462
10
4112.5254412148988
20
73.971233999989181
10
4126.6254412165199
20
73.971233999989181
10
4126.6254412165199
20
59.871233998369462
0
LWPOLYLINE
5
110
100
AcDbEntity
8
0
100
AcDbPolyline
90
4
70
1
43
0.0
10
4122.0254412166305
20
40.851233999328997
10
4122.0254412166305
20
54.951233998408959
10
4136.1254412157195
20
54.951233998408959
10
4136.1254412157195
20
40.851233999328997
0
LWPOLYLINE
5
111
100
AcDbEntity
8
0
100
AcDbPolyline
90
4
70
1
43
0.0
10
4126.7754412162376
20
21.831234000288987
10
4126.7754412162376
20
35.931233999368942
10
4140.8754412153121
20
35.931233999368942
10
4140.8754412153121
20
21.831234000288987
0
LWPOLYLINE
5
112
100
AcDbEntity
8
0
100
AcDbPolyline
90
4
70
1
43
0.0
10
4131.5454412164745
20
59.871233998369462
10
4131.5454412164745
20
73.971233999989181
10
4145.645441215549
20
73.971233999989181
10
4145.645441215549
20
59.871233998369462
0
LWPOLYLINE
5
113
100
AcDbEntity
8
0
100
AcDbPolyline
90
4
70
1
43
0.0
10
4131.5458603113857
20
83.644052149869367
10
4131.5458603113857
20
97.744052148949336
10
4145.6458603104747
20
97.744052148949336
10
4145.6458603104747
20
83.644052149869367
0
LWPOLYLINE
5
114
100
AcDbEntity
8
0
100
AcDbPolyline
90
4
70
1
43
0.0
10
4136.3254412144943
20
2.8112339987092128
10
4136.3254412144943
20
16.911234000329387
10
4150.4254412161154
20
16.911234000329387
10
4150.4254412161154
20
2.8112339987092128
0
LWPOLYLINE
5
115
100
AcDbEntity
8
0
100
AcDbPolyline
90
4
70
1
43
0.0
10
4141.0454412156741
20
40.851233999328997
10
4141.0454412156741
20
54.951233998408959
10
4155.1454412147632
20
54.951233998408959
10
4155.1454412147632
20
40.851233999328997
0
LWPOLYLINE
5
116
100
AcDbEntity
8
0
100
AcDbPolyline
90
4
70
1
43
0.0
10
4145.7954412152667
20
21.831234000288987
10
4145.7954412152667
20
35.931233999368942
10
4159.8954412168878
20
35.931233999368942
10
4159.8954412168878
20
21.831234000288987
0
LWPOLYLINE
5
117
100
AcDbEntity
8
0
100
AcDbPolyline
90
4
70
1
43
0.0
10
4150.5654412155036
20
59.871233998369462
10
4150.5654412155036
20
73.971233999989181
10
4164.6654412145926
20
73.971233999989181
10
4164.6654412145926
20
59.871233998369462
0
LWPOLYLINE
5
118
100
AcDbEntity
8
0
100
AcDbPolyline
90
4
70
1
43
0.0
10
4150.5658603104293
20
83.644052149869367
10
4150.5658603104293
20
97.744052148949336
10
4164.6658603095184
20
97.744052148949336
10
4164.6658603095184
20
83.644052149869367
0
LWPOLYLINE
5
119
100
AcDbEntity
8
0
100
AcDbPolyline
90
4
70
1
43
0.0
10
4155.3454412160845
20
2.8112339987092128
10
4155.3454412160845
20
16.911234000329387
10
4169.4454412151445
20
16.911234000329387
10
4169.4454412151445
20
2.8112339987092128
0
LWPOLYLINE
5
120
100
AcDbEntity
8
0
100
AcDbPolyline
90
4
70
1
43
0.0
10
4160.0654412147178
20
40.851233999328997
10
4160.0654412147178
20
54.951233998408959
10
4174.1654412163389
20
54.951233998408959
10
4174.1654412163389
20
40.851233999328997
0
LWPOLYLINE
5
121
100
AcDbEntity
8
0
100
AcDbPolyline
90
4
70
1
43
0.0
10
4164.8154412168569
20
21.831234000288987
10
4164.8154412168569
20
35.931233999368942
10
4178.9154412159314
20
35.931233999368942
10
4178.9154412159314
20
21.831234000288987
0
LWPOLYLINE
5
122
100
AcDbEntity
8
0
100
AcDbPolyline
90
4
70
1
43
0.0
10
4169.5854412145618
20
59.871233998369462
10
4169.5854412145618
20
73.971233999989181
10
4183.6854412161683
20
73.971233999989181
10
4183.6854412161683
20
59.871233998369462
0
LWPOLYLINE
5
123
100
AcDbEntity
8
0
100
AcDbPolyline
90
4
70
1
43
0.0
10
4169.585860309473
20
83.644052149869367
10
4169.585860309473
20
97.744052148949336
10
4183.6858603110941
20
97.744052148949336
10
4183.6858603110941
20
83.644052149869367
0
LWPOLYLINE
5
124
100
AcDbEntity
8
0
100
AcDbPolyline
90
4
70
1
43
0.0
10
4174.3654412151136
20
2.8112339987092128
10
4174.3654412151136
20
16.911234000329387
10
4188.4654412167347
20
16.911234000329387
10
4188.4654412167347
20
2.8112339987092128
0
LWPOLYLINE
5
125
100
AcDbEntity
8
0
100
AcDbPolyline
90
4
70
1
43
0.0
10
4179.0854412162935
20
40.851233999328997
10
4179.0854412162935
20
54.951233998408959
10
4193.185441215368
20
54.951233998408959
10
4193.185441215368
20
40.851233999328997
0
LWPOLYLINE
5
126
100
AcDbEntity
8
0
100
AcDbPolyline
90
4
70
1
43
0.0
10
4183.8354412159006
20
21.831234000288987
10
4183.8354412159006
20
35.931233999368942
10
4197.9354412149751
20
35.931233999368942
10
4197.9354412149751
20
21.831234000288987
0
LWPOLYLINE
5
127
100
AcDbEntity
8
0
100
AcDbPolyline
90
4
70
1
43
0.0
10
4188.6054412161375
20
59.871233998369462
10
4188.6054412161375
20
73.971233999989181
10
4202.705441215212
20
73.971233999989181
10
4202.705441215212
20
59.871233998369462
0
LWPOLYLINE
5
128
100
AcDbEntity
8
0
100
AcDbPolyline
90
4
70
1
43
0.0
10
4188.6058603110632
20
83.644052149869367
10
4188.6058603110632
20
97.744052148949336
10
4202.7058603101377
20
97.744052148949336
10
4202.7058603101377
20
83.644052149869367
0
LWPOLYLINE
5
129
100
AcDbEntity
8
0
100
AcDbPolyline
90
4
70
1
43
0.0
10
4193.3854412166893
20
2.8112339987092128
10
4193.3854412166893
20
16.911234000329387
10
4207.4854412157783
20
16.911234000329387
10
4207.4854412157783
20
2.8112339987092128
0
LWPOLYLINE
5
130
100
AcDbEntity
8
0
100
AcDbPolyline
90
4
70
1
43
0.0
10
4198.1054412153226
20
40.851233999328997
10
4198.1054412153226
20
54.951233998408959
10
4212.2054412144116
20
54.951233998408959
10
4212.2054412144116
20
40.851233999328997
0
LWPOLYLINE
5
131
100
AcDbEntity
8
0
100
AcDbPolyline
90
4
70
1
43
0.0
10
4202.8554412149297
20
21.831234000288987
10
4202.8554412149297
20
35.931233999368942
10
4216.9554412165653
20
35.931233999368942
10
4216.9554412165653
20
21.831234000288987
0
LINE
5
132
100
AcDbEntity
8
0
100
AcDbLine
10
4437.6855752875326
20
-19.806253245270909
30
0
11
4420.987809086515
21
-19.820795151670609
31
0
0
LINE
5
133
100
AcDbEntity
8
0
100
AcDbLine
10
4406.9878090865441
20
-19.806253245270909
30
0
11
4312.9228340789759
21
-19.820795151670609
31
0
0
LINE
5
134
100
AcDbEntity
8
0
100
AcDbLine
10
4298.922834079005
20
-19.820795151670609
30
0
11
4214.9976756167507
21
-19.820795151670609
31
0
0
LINE
5
135
100
AcDbEntity
8
0
100
AcDbLine
10
4200.9976756167798
20
-19.820795151670609
30
0
11
4143.1376750139516
21
-19.820795151670609
31
0
0
LINE
5
136
100
AcDbEntity
8
0
100
AcDbLine
10
4129.1376750139807
20
-19.820795151670609
30
0
11
4091.5554418189331
21
-19.806253245270909
31
0
0
LWPOLYLINE
5
137
100
AcDbEntity
8
0
100
AcDbPolyline
90
4
70
1
43
0.0
10
4207.6254412151811
20
59.871233998369462
10
4207.6254412151811
20
73.971233999989181
10
4221.7254412168022
20
73.971233999989181
10
4221.7254412168022
20
59.871233998369462
0
LWPOLYLINE
5
138
100
AcDbEntity
8
0
100
AcDbPolyline
90
4
70
1
43
0.0
10
4212.4054412157329
20
2.8112339987092128
10
4212.4054412157329
20
16.911234000329387
10
4226.5054412148074
20
16.911234000329387
10
4226.5054412148074
20
2.8112339987092128
0
LWPOLYLINE
5
139
100
AcDbEntity
8
0
100
AcDbPolyline
90
4
70
1
43
0.0
10
4371.5479412156037
20
-16.215947850330622
10
4355.14794121657
20
-16.215947850330622
10
4355.14794121657
20
-2.1087660012508422
10
4371.5479412156037
20
-2.1087660012508436
0
LWPOLYLINE
5
140
100
AcDbEntity
8
0
100
AcDbPolyline
90
4
70
1
43
0.0
10
4397.6954412166433
20
-16.208766000330797
10
4383.5954412150368
20
-16.208766000330797
10
4383.5954412150368
20
-2.1087660012508422
10
4397.6954412166433
20
-2.1087660012508436
0
LWPOLYLINE
5
141
100
AcDbEntity
8
0
100
AcDbPolyline
90
4
70
1
43
0.0
10
4416.7154412157015
20
-16.208766000330797
10
4402.6154412166125
20
-16.208766000330797
10
4402.6154412166125
20
-2.1087660012508422
10
4416.7154412157015
20
-2.1087660012508436
0
LWPOLYLINE
5
142
100
AcDbEntity
8
0
100
AcDbPolyline
90
4
70
1
43
0.0
10
4435.7354412147306
20
-16.208766000330797
10
4421.6354412156561
20
-16.208766000330797
10
4421.6354412156561
20
-2.1087660012508422
10
4435.7354412147306
20
-2.1087660012508436
0
LWPOLYLINE
5
143
100
AcDbEntity
8
0
100
AcDbPolyline
90
4
70
1
43
0.0
10
4217.1254412169128
20
40.851233999328997
10
4217.1254412169128
20
54.951233998408959
10
4231.2254412159873
20
54.951233998408959
10
4231.2254412159873
20
40.851233999328997
0
LWPOLYLINE
5
144
100
AcDbEntity
8
0
100
AcDbPolyline
90
4
70
1
43
0.0
10
4217.1554412153255
20
83.648899452849037
10
4217.1554412153255
20
97.748899451928992
10
4231.2554412144145
20
97.748899451928992
10
4231.2554412144145
20
83.648899452849037
0
LWPOLYLINE
5
145
100
AcDbEntity
8
0
100
AcDbPolyline
90
4
70
1
43
0.0
10
4221.8754412165199
20
21.831234000288987
10
4221.8754412165199
20
35.931233999368942
10
4235.9754412155944
20
35.931233999368942
10
4235.9754412155944
20
21.831234000288987
0
LWPOLYLINE
5
146
100
AcDbEntity
8
0
100
AcDbPolyline
90
4
70
1
43
0.0
10
4226.6454412167568
20
59.871233998369462
10
4226.6454412167568
20
73.971233999989181
10
4240.7454412158313
20
73.971233999989181
10
4240.7454412158313
20
59.871233998369462
0
LWPOLYLINE
5
147
100
AcDbEntity
8
0
100
AcDbPolyline
90
12
70
1
43
0.0
10
4342.0204412155927
20
0.6712339988093845
10
4333.1204412152783
20
0.67123399880938461
10
4333.1204412152783
20
2.8112339987092128
10
4332.120441216297
20
2.8112339987092128
10
4332.120441216297
20
16.911234000329387
10
4373.9154412151602
20
16.911234000329387
10
4373.9154412151602
20
2.8112339987092128
10
4365.8204412152027
20
2.8112339987092128
10
4365.8204412152027
20
0.6712339988093845
10
4358.4204412146119
20
0.67123399880938461
10
4358.4204412146119
20
2.8112339987092128
10
4342.0204412155927
20
2.8112339987092128
0
LWPOLYLINE
5
148
100
AcDbEntity
8
0
100
AcDbPolyline
90
4
70
1
43
0.0
10
4245.5254412163977
20
2.8112339987092128
10
4231.4254412147766
20
2.8112339987092128
10
4231.4254412147766
20
16.911234000329387
10
4245.5254412163977
20
16.911234000329387
0
LWPOLYLINE
5
149
100
AcDbEntity
8
0
100
AcDbPolyline
90
4
70
1
43
0.0
10
4264.5454412154268
20
2.8112339987092128
10
4250.4454412163523
20
2.8112339987092128
10
4250.4454412163523
20
16.911234000329387
10
4264.5454412154268
20
16.911234000329387
0
LWPOLYLINE
5
150
100
AcDbEntity
8
0
100
AcDbPolyline
90
4
70
1
43
0.0
10
4283.5754412147853
20
2.8112339987092128
10
4269.4754412157254
20
2.8112339987092128
10
4269.4754412157254
20
16.911234000329387
10
4283.5754412147853
20
16.911234000329387
0
LWPOLYLINE
5
151
100
AcDbEntity
8
0
100
AcDbPolyline
90
4
70
1
43
0.0
10
4302.5954412163755
20
2.8112339987092128
10
4288.4954412147545
20
2.8112339987092128
10
4288.4954412147545
20
16.911234000329387
10
4302.5954412163755
20
16.911234000329387
0
LWPOLYLINE
5
152
100
AcDbEntity
8
0
100
AcDbPolyline
90
4
70
1
43
0.0
10
4321.6154412154192
20
2.8112339987092128
10
4307.5154412163301
20
2.8112339987092128
10
4307.5154412163301
20
16.911234000329387
10
4321.6154412154192
20
16.911234000329387
0
LWPOLYLINE
5
153
100
AcDbEntity
8
0
100
AcDbPolyline
90
4
70
1
43
0.0
10
4397.6954412166433
20
2.8112339987092128
10
4383.5954412150368
20
2.8112339987092128
10
4383.5954412150368
20
16.911234000329387
10
4397.6954412166433
20
16.911234000329387
0
LWPOLYLINE
5
154
100
AcDbEntity
8
0
100
AcDbPolyline
90
4
70
1
43
0.0
10
4416.7154412157015
20
2.8112339987092128
10
4402.6154412166125
20
2.8112339987092128
10
4402.6154412166125
20
16.911234000329387
10
4416.7154412157015
20
16.911234000329387
0
LWPOLYLINE
5
155
100
AcDbEntity
8
0
100
AcDbPolyline
90
4
70
1
43
0.0
10
4435.7354412147306
20
2.8112339987092128
10
4421.6354412156561
20
2.8112339987092128
10
4421.6354412156561
20
16.911234000329387
10
4435.7354412147306
20
16.911234000329387
0
LWPOLYLINE
5
156
100
AcDbEntity
8
0
100
AcDbPolyline
90
4
70
1
43
0.0
10
4236.1454412159565
20
40.851233999328997
10
4236.1454412159565
20
54.951233998408959
10
4250.245441215031
20
54.951233998408959
10
4250.245441215031
20
40.851233999328997
0
LWPOLYLINE
5
157
100
AcDbEntity
8
0
100
AcDbPolyline
90
4
70
1
43
0.0
10
4236.1754412169157
20
83.648899452849037
10
4236.1754412169157
20
97.748899451928992
10
4250.2754412159902
20
97.748899451928992
10
4250.2754412159902
20
83.648899452849037
0
LWPOLYLINE
5
158
100
AcDbEntity
8
0
100
AcDbPolyline
90
4
70
1
43
0.0
10
4240.895441215549
20
21.831234000288987
10
4240.895441215549
20
35.931233999368942
10
4254.995441214638
20
35.931233999368942
10
4254.995441214638
20
21.831234000288987
0
LWPOLYLINE
5
159
100
AcDbEntity
8
0
100
AcDbPolyline
90
4
70
1
43
0.0
10
4245.6654412157859
20
59.871233998369462
10
4245.6654412157859
20
73.971233999989181
10
4259.765441214875
20
73.971233999989181
10
4259.765441214875
20
59.871233998369462
0
LWPOLYLINE
5
160
100
AcDbEntity
8
0
100
AcDbPolyline
90
4
70
1
43
0.0
10
4274.0154412162137
20
21.831234000288987
10
4259.9154412145926
20
21.831234000288987
10
4259.9154412145926
20
35.931233999368942
10
4274.0154412162137
20
35.931233999368942
0
LWPOLYLINE
5
161
100
AcDbEntity
8
0
100
AcDbPolyline
90
4
70
1
43
0.0
10
4293.0354412152574
20
21.831234000288987
10
4278.9354412161683
20
21.831234000288987
10
4278.9354412161683
20
35.931233999368942
10
4293.0354412152574
20
35.931233999368942
0
LWPOLYLINE
5
162
100
AcDbEntity
8
0
100
AcDbPolyline
90
4
70
1
43
0.0
10
4312.0554412168331
20
21.831234000288987
10
4297.955441215212
20
21.831234000288987
10
4297.955441215212
20
35.931233999368942
10
4312.0554412168331
20
35.931233999368942
0
LWPOLYLINE
5
163
100
AcDbEntity
8
0
100
AcDbPolyline
90
4
70
1
43
0.0
10
4331.0754412158767
20
21.831234000288987
10
4316.9754412168022
20
21.831234000288987
10
4316.9754412168022
20
35.931233999368942
10
4331.0754412158767
20
35.931233999368942
0
LWPOLYLINE
5
164
100
AcDbEntity
8
0
100
AcDbPolyline
90
12
70
1
43
0.0
10
4371.5654412161584
20
21.831234000288987
10
4338.3654412154774
20
21.831234000288987
10
4338.3654412154774
20
35.931233999368942
10
4339.3654412144442
20
35.931233999368942
10
4339.3654412144442
20
38.071233999269225
10
4346.765441215035
20
38.071233999269225
10
4346.765441215035
20
35.931233999368942
10
4363.1654412166008
20
35.931233999368942
10
4363.1654412166008
20
38.071233999269225
10
4370.565441214645
20
38.071233999269225
10
4370.565441214645
20
35.931233999368942
10
4371.5654412161584
20
35.931233999368942
0
LWPOLYLINE
5
165
100
AcDbEntity
8
0
100
AcDbPolyline
90
4
70
1
43
0.0
10
4435.7354412147306
20
21.831234000288987
10
4383.5954412150368
20
21.831234000288987
10
4383.5954412150368
20
35.931233999368942
10
4435.7354412147306
20
35.931233999368942
0
LWPOLYLINE
5
166
100
AcDbEntity
8
0
100
AcDbPolyline
90
4
70
1
43
0.0
10
4255.1654412150001
20
40.851233999328997
10
4255.1654412150001
20
54.951233998408959
10
4269.2654412166212
20
54.951233998408959
10
4269.2654412166212
20
40.851233999328997
0
LWPOLYLINE
5
167
100
AcDbEntity
8
0
100
AcDbPolyline
90
4
70
1
43
0.0
10
4255.1954412159594
20
83.648899452849037
10
4255.1954412159594
20
97.748899451928992
10
4269.2954412150339
20
97.748899451928992
10
4269.2954412150339
20
83.648899452849037
0
LWPOLYLINE
5
168
100
AcDbEntity
8
0
100
AcDbPolyline
90
4
70
1
43
0.0
10
4264.6854412148296
20
59.871233998369462
10
4264.6854412148296
20
73.971233999989181
10
4278.7854412164506
20
73.971233999989181
10
4278.7854412164506
20
59.871233998369462
0
LWPOLYLINE
5
169
100
AcDbEntity
8
0
100
AcDbPolyline
90
4
70
1
43
0.0
10
4288.2854412156503
20
40.851233999328997
10
4274.1854412165758
20
40.851233999328997
10
4274.1854412165758
20
54.951233998408959
10
4288.2854412156503
20
54.951233998408959
0
LWPOLYLINE
5
170
100
AcDbEntity
8
0
100
AcDbPolyline
90
4
70
1
43
0.0
10
4307.3054412146939
20
40.851233999328997
10
4293.2054412156049
20
40.851233999328997
10
4293.2054412156049
20
54.951233998408959
10
4307.3054412146939
20
54.951233998408959
0
LWPOLYLINE
5
171
100
AcDbEntity
8
0
100
AcDbPolyline
90
4
70
1
43
0.0
10
4326.3254412162696
20
40.851233999328997
10
4312.2254412146485
20
40.851233999328997
10
4312.2254412146485
20
54.951233998408959
10
4326.3254412162696
20
54.951233998408959
0
LWPOLYLINE
5
172
100
AcDbEntity
8
0
100
AcDbPolyline
90
4
70
1
43
0.0
10
4345.3454412153133
20
40.851233999328997
10
4331.2454412162388
20
40.851233999328997
10
4331.2454412162388
20
54.951233998408959
10
4345.3454412153133
20
54.951233998408959
0
LWPOLYLINE
5
173
100
AcDbEntity
8
0
100
AcDbPolyline
90
4
70
1
43
0.0
10
4369.140441214744
20
40.851233999328997
10
4355.0404412156695
20
40.851233999328997
10
4355.0404412156695
20
54.951233998408959
10
4369.140441214744
20
54.951233998408959
0
LWPOLYLINE
5
174
100
AcDbEntity
8
0
100
AcDbPolyline
90
4
70
1
43
0.0
10
4397.6954412166433
20
40.851233999328997
10
4383.5954412150368
20
40.851233999328997
10
4383.5954412150368
20
54.951233998408959
10
4397.6954412166433
20
54.951233998408959
0
LWPOLYLINE
5
175
100
AcDbEntity
8
0
100
AcDbPolyline
90
4
70
1
43
0.0
10
4416.7154412157015
20
40.851233999328997
10
4402.6154412166125
20
40.851233999328997
10
4402.6154412166125
20
54.951233998408959
10
4416.7154412157015
20
54.951233998408959
0
LWPOLYLINE
5
176
100
AcDbEntity
8
0
100
AcDbPolyline
90
4
70
1
43
0.0
10
4435.7354412147306
20
40.851233999328997
10
4421.6354412156561
20
40.851233999328997
10
4421.6354412156561
20
54.951233998408959
10
4435.7354412147306
20
54.951233998408959
0
LWPOLYLINE
5
177
100
AcDbEntity
8
0
100
AcDbPolyline
90
4
70
1
43
0.0
10
4274.2154412149885
20
83.648899452849037
10
4274.2154412149885
20
97.748899451928992
10
4288.3154412166095
20
97.748899451928992
10
4288.3154412166095
20
83.648899452849037
0
LWPOLYLINE
5
178
100
AcDbEntity
8
0
100
AcDbPolyline
90
4
70
1
43
0.0
10
4283.7054412164198
20
59.871233998369462
10
4283.7054412164198
20
73.971233999989181
10
4297.8054412154943
20
73.971233999989181
10
4297.8054412154943
20
59.871233998369462
0
LWPOLYLINE
5
179
100
AcDbEntity
8
0
100
AcDbPolyline
90
12
70
1
43
0.0
10
4350.2904412160769
20
57.731233998469179
10
4341.737941216712
20
57.731233998469179
10
4341.737941216712
20
59.871233998369462
10
4340.7954412144954
20
59.871233998369462
10
4340.7954412144954
20
73.971233999989181
10
4373.9154412151602
20
73.971233999989181
10
4373.9154412151602
20
59.871233998369462
10
4372.9379412168837
20
59.871233998369462
10
4372.9379412168837
20
57.731233998469179
10
4364.3904412151514
20
57.731233998469179
10
4364.3904412151514
20
59.871233998369462
10
4350.2904412160769
20
59.871233998369462
0
LWPOLYLINE
5
180
100
AcDbEntity
8
0
100
AcDbPolyline
90
4
70
1
43
0.0
10
4316.8254412145379
20
59.871233998369462
10
4302.7254412154489
20
59.871233998369462
10
4302.7254412154489
20
73.971233999989181
10
4316.8254412145379
20
73.971233999989181
0
LWPOLYLINE
5
181
100
AcDbEntity
8
0
100
AcDbPolyline
90
4
70
1
43
0.0
10
4335.8454412161136
20
59.871233998369462
10
4321.7454412144925
20
59.871233998369462
10
4321.7454412144925
20
73.971233999989181
10
4335.8454412161136
20
73.971233999989181
0
LWPOLYLINE
5
182
100
AcDbEntity
8
0
100
AcDbPolyline
90
4
70
1
43
0.0
10
4397.6954412166433
20
59.871233998369462
10
4383.5954412150368
20
59.871233998369462
10
4383.5954412150368
20
73.971233999989181
10
4397.6954412166433
20
73.971233999989181
0
LWPOLYLINE
5
183
100
AcDbEntity
8
0
100
AcDbPolyline
90
4
70
1
43
0.0
10
4416.7154412157015
20
59.871233998369462
10
4402.6154412166125
20
59.871233998369462
10
4402.6154412166125
20
73.971233999989181
10
4416.7154412157015
20
73.971233999989181
0
LWPOLYLINE
5
184
100
AcDbEntity
8
0
100
AcDbPolyline
90
4
70
1
43
0.0
10
4435.7354412147306
20
59.871233998369462
10
4421.6354412156561
20
59.871233998369462
10
4421.6354412156561
20
73.971233999989181
10
4435.7354412147306
20
73.971233999989181
0
LWPOLYLINE
5
185
100
AcDbEntity
8
0
100
AcDbPolyline
90
4
70
1
43
0.0
10
4302.7554412164227
20
83.651233999868978
10
4302.7554412164227
20
97.751233998948933
10
4316.8554412154826
20
97.751233998948933
10
4316.8554412154826
20
83.651233999868978
0
LWPOLYLINE
5
186
100
AcDbEntity
8
0
100
AcDbPolyline
90
4
70
1
43
0.0
10
4335.8754412145408
20
83.651233999868978
10
4321.7754412154518
20
83.651233999868978
10
4321.7754412154518
20
97.751233998948933
10
4335.8754412145408
20
97.751233998948933
0
LWPOLYLINE
5
187
100
AcDbEntity
8
0
100
AcDbPolyline
90
4
70
1
43
0.0
10
4354.8954412161165
20
83.651233999868978
10
4340.7954412144954
20
83.651233999868978
10
4340.7954412144954
20
97.751233998948933
10
4354.8954412161165
20
97.751233998948933
0
LWPOLYLINE
5
188
100
AcDbEntity
8
0
100
AcDbPolyline
90
4
70
1
43
0.0
10
4373.9154412151602
20
83.651233999868978
10
4359.8154412160711
20
83.651233999868978
10
4359.8154412160711
20
97.751233998948933
10
4373.9154412151602
20
97.751233998948933
0
LWPOLYLINE
5
189
100
AcDbEntity
8
0
100
AcDbPolyline
90
4
70
1
43
0.0
10
4397.6954412166433
20
83.651233999868978
10
4383.5954412150368
20
83.651233999868978
10
4383.5954412150368
20
97.751233998948933
10
4397.6954412166433
20
97.751233998948933
0
LWPOLYLINE
5
190
100
AcDbEntity
8
0
100
AcDbPolyline
90
4
70
1
43
0.0
10
4435.7354412147306
20
83.651233999868978
10
4421.6354412156561
20
83.651233999868978
10
4421.6354412156561
20
97.751233998948933
10
4435.7354412147306
20
97.751233998948933
0
LWPOLYLINE
5
191
100
AcDbEntity
8
0
100
AcDbPolyline
90
4
70
1
43
0.0
10
4416.7154412157015
20
83.654692956629333
10
4402.6154412166125
20
83.654692956629333
10
4402.6154412166125
20
97.754692955709288
10
4416.7154412157015
20
97.754692955709288
0
LINE
5
192
100
AcDbEntity
8
0
100
AcDbLine
10
4091.5554418163865
20
100.99889945178938
30
0
11
4129.1376750139807
21
100.99889945178938
31
0
0
LINE
5
193
100
AcDbEntity
8
0
100
AcDbLine
10
4143.1376750139516
20
100.99889945178938
30
0
11
4200.9951750147211
21
100.99889945178938
31
0
0
LINE
5
194
100
AcDbEntity
8
0
100
AcDbLine
10
4214.995175014692
20
100.99889945178938
30
0
11
4298.9226749861027
21
100.99889945178938
31
0
0
LINE
5
195
100
AcDbEntity
8
0
100
AcDbLine
10
4312.9226749860736
20
100.99889945178938
30
0
11
4373.2505752888301
21
100.99889945178938
31
0
0
ARC
5
196
100
AcDbEntity
8
0
100
AcDbCircle
10
4298.9226749861027
20
103.9988994517894
30
0
40
3.0000000000000071
210
0
220
0
230
1
100
AcDbArc
50
-90
51
0
0
LINE
5
197
100
AcDbEntity
8
0
100
AcDbLine
10
4302.9226749861027
20
105.49889945176893
30
0
11
4308.9226749860736
21
105.49889945176893
31
0
0
ARC
5
198
100
AcDbEntity
8
0
100
AcDbCircle
10
4308.9226749860736
20
104.49889945176892
30
0
40
1.0000000000002274
210
0
220
0
230
1
100
AcDbArc
50
0
51
90
0
LINE
5
199
100
AcDbEntity
8
0
100
AcDbLine
10
4301.9226749861027
20
103.9988994517894
30
0
11
4301.9226749861027
21
104.49889945176892
31
0
0
ARC
5
200
100
AcDbEntity
8
0
100
AcDbCircle
10
4302.9226749861027
20
104.49889945176892
30
0
40
0.99999999999999645
210
0
220
-0
230
1
100
AcDbArc
50
90
51
180
0
LINE
5
201
100
AcDbEntity
8
0
100
AcDbLine
10
4309.9226749860745
20
104.49889945176892
30
0
11
4309.9226749860736
21
103.9988994517894
31
0
0
ARC
5
202
100
AcDbEntity
8
0
100
AcDbCircle
10
4312.9226749860736
20
103.9988994517894
30
0
40
3.0000000000001137
210
0
220
0
230
1
100
AcDbArc
50
180
51
270
0
CIRCLE
5
203
100
AcDbEntity
8
0
100
AcDbCircle
10
4305.9204411881565
20
102.9940521493095
30
0
40
1.49999999974
210
0
220
0
230
1
0
ARC
5
204
100
AcDbEntity
8
0
100
AcDbCircle
10
4200.9951750147211
20
103.9988994517894
30
0
40
3.0000000000000071
210
0
220
0
230
1
100
AcDbArc
50
-90
51
0
0
LINE
5
205
100
AcDbEntity
8
0
100
AcDbLine
10
4204.9951750147211
20
105.49889945176893
30
0
11
4210.995175014692
21
105.49889945176893
31
0
0
ARC
5
206
100
AcDbEntity
8
0
100
AcDbCircle
10
4210.995175014692
20
104.49889945176892
30
0
40
1.0000000000002274
210
0
220
0
230
1
100
AcDbArc
50
0
51
90
0
LINE
5
207
100
AcDbEntity
8
0
100
AcDbLine
10
4203.9951750147211
20
103.9988994517894
30
0
11
4203.9951750147211
21
104.49889945176892
31
0
0
ARC
5
208
100
AcDbEntity
8
0
100
AcDbCircle
10
4204.9951750147211
20
104.49889945176892
30
0
40
0.99999999999999645
210
0
220
-0
230
1
100
AcDbArc
50
90
51
180
0
LINE
5
209
100
AcDbEntity
8
0
100
AcDbLine
10
4211.995175014692
20
104.49889945176892
30
0
11
4211.995175014692
21
103.9988994517894
31
0
0
ARC
5
210
100
AcDbEntity
8
0
100
AcDbCircle
10
4214.995175014692
20
103.9988994517894
30
0
40
3.0000000000001137
210
0
220
0
230
1
100
AcDbArc
50
180
51
275.93626268900027
0
CIRCLE
5
211
100
AcDbEntity
8
0
100
AcDbCircle
10
4207.9929412167749
20
102.9940521493095
30
0
40
1.49999999974
210
0
220
0
230
1
0
ARC
5
212
100
AcDbEntity
8
0
100
AcDbCircle
10
4129.1376750139807
20
103.9988994517894
30
0
40
3.0000000000000071
210
0
220
0
230
1
100
AcDbArc
50
-90
51
0
0
LINE
5
213
100
AcDbEntity
8
0
100
AcDbLine
10
4133.1376750139807
20
105.49889945176893
30
0
11
4139.1376750139516
21
105.49889945176893
31
0
0
ARC
5
214
100
AcDbEntity
8
0
100
AcDbCircle
10
4139.1376750139516
20
104.49889945176892
30
0
40
1.0000000000002274
210
0
220
0
230
1
100
AcDbArc
50
0
51
90
0
LINE
5
215
100
AcDbEntity
8
0
100
AcDbLine
10
4132.1376750139807
20
103.9988994517894
30
0
11
4132.1376750139807
21
104.49889945176892
31
0
0
ARC
5
216
100
AcDbEntity
8
0
100
AcDbCircle
10
4133.1376750139807
20
104.49889945176892
30
0
40
0.99999999999999645
210
0
220
-0
230
1
100
AcDbArc
50
90
51
180
0
LINE
5
217
100
AcDbEntity
8
0
100
AcDbLine
10
4140.1376750139516
20
104.49889945176892
30
0
11
4140.1376750139516
21
103.9988994517894
31
0
0
ARC
5
218
100
AcDbEntity
8
0
100
AcDbCircle
10
4143.1376750139516
20
103.9988994517894
30
0
40
3.0000000000001137
210
0
220
0
230
1
100
AcDbArc
50
180
51
270
0
CIRCLE
5
219
100
AcDbEntity
8
0
100
AcDbCircle
10
4136.1354412160345
20
102.9940521493095
30
0
40
1.49999999974
210
0
220
0
230
1
0
ARC
5
220
100
AcDbEntity
8
0
100
AcDbCircle
10
4406.9878090865441
20
-22.820795151670609
30
0
40
3.0000000000000151
210
0
220
-0
230
1
100
AcDbArc
50
6.379370208701765
51
90
0
ARC
5
221
100
AcDbEntity
8
0
100
AcDbCircle
10
4416.5156731315174
20
-22.320795151650149
30
0
40
1.4999999999999991
210
0
220
0
230
1
100
AcDbArc
50
270
51
353.62062979129433
0
ARC
5
222
100
AcDbEntity
8
0
100
AcDbCircle
10
4298.922834079005
20
-22.820795151670609
30
0
40
3.0000000000000151
210
0
220
-0
230
1
100
AcDbArc
50
6.379370208701765
51
90
0
ARC
5
223
100
AcDbEntity
8
0
100
AcDbCircle
10
4303.3949700340036
20
-22.320795151650149
30
0
40
1.4999999999997249
210
0
220
0
230
1
100
AcDbArc
50
186.37937020870595
51
270
0
LINE
5
224
100
AcDbEntity
8
0
100
AcDbLine
10
4303.3949700340036
20
-23.820795151650145
30
0
11
4308.4506981239783
21
-23.820795151650145
31
0
0
ARC
5
225
100
AcDbEntity
8
0
100
AcDbCircle
10
4312.9228340789759
20
-22.820795151670609
30
0
40
3.0000000000000004
210
0
220
-0
230
1
100
AcDbArc
50
90
51
173.6206297912963
0
ARC
5
226
100
AcDbEntity
8
0
100
AcDbCircle
10
4308.4506981239783
20
-22.320795151650149
30
0
40
1.4999999999999991
210
0
220
0
230
1
100
AcDbArc
50
270
51
353.62062979129405
0
CIRCLE
5
227
100
AcDbEntity
8
0
100
AcDbCircle
10
4305.9206002810588
20
-21.815947849190707
30
0
40
1.49999999974
210
0
220
0
230
1
0
ARC
5
228
100
AcDbEntity
8
0
100
AcDbCircle
10
4200.9976756167798
20
-22.820795151670609
30
0
40
3.0000000000000151
210
0
220
-0
230
1
100
AcDbArc
50
6.3793702087037119
51
90
0
ARC
5
229
100
AcDbEntity
8
0
100
AcDbCircle
10
4205.4698115717774
20
-22.320795151650149
30
0
40
1.4999999999997249
210
0
220
0
230
1
100
AcDbArc
50
186.37937020870595
51
270
0
LINE
5
230
100
AcDbEntity
8
0
100
AcDbLine
10
4205.4698115717774
20
-23.820795151650145
30
0
11
4210.5255396617531
21
-23.820795151650145
31
0
0
ARC
5
231
100
AcDbEntity
8
0
100
AcDbCircle
10
4214.9976756167507
20
-22.820795151670609
30
0
40
3.0000000000000004
210
0
220
-0
230
1
100
AcDbArc
50
90
51
173.6206297912963
0
ARC
5
232
100
AcDbEntity
8
0
100
AcDbCircle
10
4210.5255396617531
20
-22.320795151650149
30
0
40
1.4999999999999991
210
0
220
0
230
1
100
AcDbArc
50
270
51
353.62062979129405
0
CIRCLE
5
233
100
AcDbEntity
8
0
100
AcDbCircle
10
4207.9954418188336
20
-21.815947849190707
30
0
40
1.49999999974
210
0
220
0
230
1
0
ARC
5
234
100
AcDbEntity
8
0
100
AcDbCircle
10
4129.1376750139807
20
-22.820795151670609
30
0
40
3.0000000000000151
210
0
220
-0
230
1
100
AcDbArc
50
6.3793702087037119
51
90
0
ARC
5
235
100
AcDbEntity
8
0
100
AcDbCircle
10
4133.6098109689783
20
-22.320795151650149
30
0
40
1.4999999999997249
210
0
220
0
230
1
100
AcDbArc
50
186.37937020870595
51
270
0
LINE
5
236
100
AcDbEntity
8
0
100
AcDbLine
10
4133.6098109689783
20
-23.820795151650145
30
0
11
4138.6655390589549
21
-23.820795151650145
31
0
0
ARC
5
237
100
AcDbEntity
8
0
100
AcDbCircle
10
4143.1376750139516
20
-22.820795151670609
30
0
40
3.0000000000000004
210
0
220
-0
230
1
100
AcDbArc
50
90
51
173.6206297912963
0
ARC
5
238
100
AcDbEntity
8
0
100
AcDbCircle
10
4138.6655390589549
20
-22.320795151650149
30
0
40
1.4999999999999991
210
0
220
0
230
1
100
AcDbArc
50
270
51
353.62062979129024
0
CIRCLE
5
239
100
AcDbEntity
8
0
100
AcDbCircle
10
4136.1354412160345
20
-21.815947849190707
30
0
40
1.49999999974
210
0
220
0
230
1
0
ARC
5
240
100
AcDbEntity
8
0
100
AcDbCircle
10
4406.9855752886124
20
103.9988994517894
30
0
40
3.0000000000000071
210
0
220
0
230
1
100
AcDbArc
50
-90
51
0
0
LINE
5
241
100
AcDbEntity
8
0
100
AcDbLine
10
4420.9855752885833
20
100.99889945178938
30
0
11
4437.6855752875326
21
100.99889945178938
31
0
0
LINE
5
242
100
AcDbEntity
8
0
100
AcDbLine
10
4410.9855752886124
20
105.49889945176893
30
0
11
4416.9855752885833
21
105.49889945176893
31
0
0
ARC
5
243
100
AcDbEntity
8
0
100
AcDbCircle
10
4416.9855752885833
20
104.49889945176892
30
0
40
1.0000000000002274
210
0
220
0
230
1
100
AcDbArc
50
0
51
90
0
LINE
5
244
100
AcDbEntity
8
0
100
AcDbLine
10
4409.9855752886124
20
103.9988994517894
30
0
11
4409.9855752886124
21
104.49889945176892
31
0
0
ARC
5
245
100
AcDbEntity
8
0
100
AcDbCircle
10
4410.9855752886124
20
104.49889945176892
30
0
40
0.99999999999999645
210
0
220
-0
230
1
100
AcDbArc
50
90
51
180
0
LINE
5
246
100
AcDbEntity
8
0
100
AcDbLine
10
4417.9855752885842
20
104.49889945176892
30
0
11
4417.9855752885833
21
103.9988994517894
31
0
0
ARC
5
247
100
AcDbEntity
8
0
100
AcDbCircle
10
4420.9855752885833
20
103.9988994517894
30
0
40
3.0000000000001137
210
0
220
0
230
1
100
AcDbArc
50
180
51
270
0
LINE
5
248
100
AcDbEntity
8
0
100
AcDbLine
10
4439.1855752872707
20
99.498899452049045
30
0
11
4439.1855752872707
21
-18.306253245530577
31
0
0
ARC
5
249
100
AcDbEntity
8
0
100
AcDbCircle
10
4091.5554418189331
20
-18.30625324553057
30
0
40
1.4999999997399982
210
0
220
0
230
1
100
AcDbArc
50
180
51
270
0
ARC
5
250
100
AcDbEntity
8
0
100
AcDbCircle
10
4091.5554418189331
20
99.498899452049045
30
0
40
1.4999999997399982
210
0
220
0
230
1
100
AcDbArc
50
90.000000005836341
51
180
0
ARC
5
251
100
AcDbEntity
8
0
100
AcDbCircle
10
4437.6855752875326
20
99.498899452049045
30
0
40
1.4999999997399982
210
0
220
0
230
1
100
AcDbArc
50
0
51
90
0
ARC
5
252
100
AcDbEntity
8
0
100
AcDbCircle
10
4437.6855752875326
20
-18.30625324553057
30
0
40
1.4999999997400004
210
0
220
0
230
1
100
AcDbArc
50
270
51
360
0
CIRCLE
5
253
100
AcDbEntity
8
0
100
AcDbCircle
10
4413.9833414906661
20
102.9940521493095
30
0
40
1.49999999974
210
0
220
0
230
1
0
ARC
5
254
100
AcDbEntity
8
0
100
AcDbCircle
10
4411.4599450415417
20
-22.320795151650149
30
0
40
1.4999999999997249
210
0
220
0
230
1
100
AcDbArc
50
186.37937020870976
51
270
0
LINE
5
255
100
AcDbEntity
8
0
100
AcDbLine
10
4411.4599450415417
20
-23.820795151650145
30
0
11
4416.5156731315174
21
-23.820795151650145
31
0
0
ARC
5
256
100
AcDbEntity
8
0
100
AcDbCircle
10
4420.987809086515
20
-22.820795151670609
30
0
40
3.0000000000000004
210
0
220
-0
230
1
100
AcDbArc
50
90
51
173.62062979129612
0
CIRCLE
5
257
100
AcDbEntity
8
0
100
AcDbCircle
10
4413.9855752885978
20
-21.815947849190707
30
0
40
1.49999999974
210
0
220
0
230
1
0
LINE
5
258
100
AcDbEntity
8
0
100
AcDbLine
10
4384.2505752888301
20
100.99889945178938
30
0
11
4406.9855752886124
21
100.99889945178938
31
0
0
ARC
5
259
100
AcDbEntity
8
0
100
AcDbCircle
10
4373.2505752888301
20
99.998899451789384
30
0
40
1.0000000000002274
210
0
220
0
230
1
100
AcDbArc
50
0
51
90
0
ARC
5
260
100
AcDbEntity
8
0
100
AcDbCircle
10
4384.2505752888301
20
99.998899451789384
30
0
40
0.99999999999999645
210
0
220
-0
230
1
100
AcDbArc
50
90
51
180
0
LINE
5
261
100
AcDbEntity
8
0
100
AcDbLine
10
4375.2505752888301
20
91.998899451789384
30
0
11
4382.2505752888301
21
91.998899451789384
31
0
0
ARC
5
262
100
AcDbEntity
8
0
100
AcDbCircle
10
4375.2505752888301
20
92.998899451789384
30
0
40
1.0000000000002274
210
0
220
0
230
1
100
AcDbArc
50
180
51
270
0
LINE
5
263
100
AcDbEntity
8
0
100
AcDbLine
10
4383.2505752888301
20
99.998899451789384
30
0
11
4383.2505752888301
21
92.998899451789384
31
0
0
ARC
5
264
100
AcDbEntity
8
0
100
AcDbCircle
10
4382.2505752888301
20
92.998899451789384
30
0
40
0.99999999999999645
210
0
220
0
230
1
100
AcDbArc
50
-90
51
0
0
LINE
5
265
100
AcDbEntity
8
0
100
AcDbLine
10
4374.2505752888301
20
99.998899451789384
30
0
11
4374.2505752888301
21
92.998899451789384
31
0
0
ENDSEC
0
SECTION
2
OBJECTS
0
DICTIONARY
5
C
100
AcDbDictionary
3
ACAD_GROUP
350
D
3
ACAD_MLINESTYLE
350
17
0
DICTIONARY
5
D
100
AcDbDictionary
0
DICTIONARY
5
1A
330
C
100
AcDbDictionary
0
DICTIONARY
5
17
100
AcDbDictionary
0
ENDSEC
0
EOF
