0
SECTION
2
HEADER
9
$INSUNITS
70
4
9
$ACADVER
1
AC1014
9
$HANDSEED
5
FFFF
0
ENDSEC
0
SECTION
2
TABLES
0
TABLE
2
VPORT
5
8
100
AcDbSymbolTable
0
ENDTAB
0
TABLE
2
LTYPE
5
5
100
AcDbSymbolTable
0
LTYPE
5
14
100
AcDbSymbolTableRecord
100
AcDbLinetypeTableRecord
2
BYBLOCK
70
0
0
LTYPE
5
15
100
AcDbSymbolTableRecord
100
AcDbLinetypeTableRecord
2
BYLAYER
70
0
0
ENDTAB
0
TABLE
2
LAYER
5
2
100
AcDbSymbolTable
70
2
0
LAYER
5
50
100
AcDbSymbolTableRecord
100
AcDbLayerTableRecord
2
0
70
0
6
CONTINUOUS
0
ENDTAB
0
TABLE
2
STYLE
5
3
100
AcDbSymbolTable
70
1
0
STYLE
5
11
100
AcDbSymbolTableRecord
100
AcDbTextStyleTableRecord
2
STANDARD
70
0
0
ENDTAB
0
TABLE
2
VIEW
5
6
100
AcDbSymbolTable
70
0
0
ENDTAB
0
TABLE
2
UCS
5
7
100
AcDbSymbolTable
70
0
0
ENDTAB
0
TABLE
2
APPID
5
9
100
AcDbSymbolTable
70
2
0
APPID
5
12
100
AcDbSymbolTableRecord
100
AcDbRegAppTableRecord
2
ACAD
70
0
0
ENDTAB
0
TABLE
2
DIMSTYLE
5
A
100
AcDbSymbolTable
70
1
0
ENDTAB
0
TABLE
2
BLOCK_RECORD
5
1
100
AcDbSymbolTable
70
1
0
BLOCK_RECORD
5
1F
100
AcDbSymbolTableRecord
100
AcDbBlockTableRecord
2
*MODEL_SPACE
0
BLOCK_RECORD
5
1B
100
AcDbSymbolTableRecord
100
AcDbBlockTableRecord
2
*PAPER_SPACE
0
ENDTAB
0
ENDSEC
0
SECTION
2
BLOCKS
0
BLOCK
5
20
100
AcDbEntity
100
AcDbBlockBegin
2
*MODEL_SPACE
0
ENDBLK
5
21
100
AcDbEntity
100
AcDbBlockEnd
0
BLOCK
5
1C
100
AcDbEntity
100
AcDbBlockBegin
2
*PAPER_SPACE
0
ENDBLK
5
1D
100
AcDbEntity
100
AcDbBlockEnd
0
ENDSEC
0
SECTION
2
ENTITIES
0
LINE
5
100
100
AcDbEntity
8
0
100
AcDbLine
10
171.02787046929842
20
92.120913228286895
30
0
11
259.82613637348635
21
92.120913228286895
31
0
0
LINE
5
101
100
AcDbEntity
8
0
100
AcDbLine
10
162.6982685109044
20
190.32090905447089
30
0
11
162.6982685109044
21
192.42091014374668
31
0
0
LINE
5
102
100
AcDbEntity
8
0
100
AcDbLine
10
172.4383138050693
20
188.83533440370709
30
0
11
169.75944607656029
21
192.02788010195067
31
0
0
LINE
5
103
100
AcDbEntity
8
0
100
AcDbLine
10
274.09825249811632
20
192.42091057587942
30
0
11
274.09825249811632
21
190.32090905447089
31
0
0
LINE
5
104
100
AcDbEntity
8
0
100
AcDbLine
10
283.2382969488765
20
188.83533440370709
30
0
11
280.55944475187437
21
192.02787621486667
31
0
0
ARC
5
105
100
AcDbEntity
8
0
100
AcDbCircle
10
130.34826863901341
20
186.92091039110556
30
0
40
1.2000000000004007
210
0
220
-0
230
1
100
AcDbArc
50
90
51
180
0
LINE
5
106
100
AcDbEntity
8
0
100
AcDbLine
10
375.03709340558652
20
192.02788115111287
30
0
11
372.35822304388557
21
188.83533440370709
31
0
0
ARC
5
107
100
AcDbEntity
8
0
100
AcDbCircle
10
378.19826883325038
20
192.42091016847041
30
0
40
0.49999999999997158
210
0
220
0
230
1
100
AcDbArc
50
0
51
90
0
ARC
5
108
100
AcDbEntity
8
0
100
AcDbCircle
10
157.89826903867149
20
87.820911045874112
30
0
40
0.50000000000004263
210
0
220
0
230
1
100
AcDbArc
50
180
51
270
0
ARC
5
109
100
AcDbEntity
8
0
100
AcDbCircle
10
145.0305038447045
20
89.870910391163633
30
0
40
3.0000000000000444
210
0
220
-0
230
1
100
AcDbArc
50
40.000019846944134
51
90
0
ARC
5
110
100
AcDbEntity
8
0
100
AcDbCircle
10
153.4982687607644
20
87.820911045874112
30
0
40
0.50000000000004263
210
0
220
0
230
1
100
AcDbArc
50
-90
51
0
0
LINE
5
111
100
AcDbEntity
8
0
100
AcDbLine
10
378.69826480051552
20
190.32090905447089
30
0
11
378.69826480051552
21
192.42091057587942
31
0
0
ARC
5
112
100
AcDbEntity
8
0
100
AcDbCircle
10
382.59826911115647
20
192.42091016847041
30
0
40
0.50000000000004263
210
0
220
-0
230
1
100
AcDbArc
50
90
51
180
0
ARC
5
113
100
AcDbEntity
8
0
100
AcDbCircle
10
164.39826863902152
20
190.32090813507
30
0
40
1.7000000000007363
210
0
220
0
230
1
100
AcDbArc
50
-180.0000374883443
51
3.7488344301357245e-05
0
LINE
5
114
100
AcDbEntity
8
0
100
AcDbLine
10
166.09826832314951
20
192.42091014374668
30
0
11
166.09826832314951
21
190.32090905447089
31
0
0
ARC
5
115
100
AcDbEntity
8
0
100
AcDbCircle
10
173.97040052160531
20
190.12091039110541
30
0
40
2.0000000000000093
210
0
220
0
230
1
100
AcDbArc
50
220.00001689030017
51
270
0
ARC
5
116
100
AcDbEntity
8
0
100
AcDbCircle
10
389.97040059412939
20
190.12091039110541
30
0
40
1.9999999999999862
210
0
220
0
230
1
100
AcDbArc
50
220.00001689029895
51
270
0
ARC
5
117
100
AcDbEntity
8
0
100
AcDbCircle
10
405.02786944598432
20
93.12091039110544
30
0
40
1.0000000000000235
210
0
220
0
230
1
100
AcDbArc
50
235.0124948699663
51
270
0
LINE
5
118
100
AcDbEntity
8
0
100
AcDbLine
10
264.23707882768645
20
192.02787868299339
30
0
11
261.55821754833755
21
188.83533440370709
31
0
0
ARC
5
119
100
AcDbEntity
8
0
100
AcDbCircle
10
274.59825956677741
20
192.42091016847041
30
0
40
0.50000000000004263
210
0
220
-0
230
1
100
AcDbArc
50
90
51
180
0
ARC
5
120
100
AcDbEntity
8
0
100
AcDbCircle
10
399.7660334334164
20
89.870910391163633
30
0
40
3.0000000000000426
210
0
220
-0
230
1
100
AcDbArc
50
90
51
139.99970105331721
0
LINE
5
121
100
AcDbEntity
8
0
100
AcDbLine
10
154.82613592645149
20
188.12091033746159
30
0
11
130.34826851686441
21
188.12091033746159
31
0
0
ARC
5
122
100
AcDbEntity
8
0
100
AcDbCircle
10
139.7686678320924
20
93.12091039110544
30
0
40
0.99999999999994316
210
0
220
0
230
1
100
AcDbArc
50
270
51
304.98750513011595
0
LINE
5
123
100
AcDbEntity
8
0
100
AcDbLine
10
415.64827188154646
20
93.320911189807134
30
0
11
415.64827188154646
21
186.92091051329533
31
0
0
ARC
5
124
100
AcDbEntity
8
0
100
AcDbCircle
10
284.77039104975051
20
190.12091039110541
30
0
40
1.9999999999999862
210
0
220
0
230
1
100
AcDbArc
50
220.00001689029895
51
270
0
ARC
5
125
100
AcDbEntity
8
0
100
AcDbCircle
10
414.44826871159444
20
93.320910391105286
30
0
40
1.2000000000000455
210
0
220
0
230
1
100
AcDbArc
50
-90
51
0
0
ARC
5
126
100
AcDbEntity
8
0
100
AcDbCircle
10
272.39825913090243
20
190.32090813507
30
0
40
1.7000000362634979
210
0
220
0
230
1
100
AcDbArc
50
-180.0000374883443
51
3.7488344301357245e-05
0
ARC
5
127
100
AcDbEntity
8
0
100
AcDbCircle
10
142.14826863903451
20
89.720910391164011
30
0
40
3.1500000000000483
210
0
220
-0
230
1
100
AcDbArc
50
90
51
124.98750513012376
0
LINE
5
128
100
AcDbEntity
8
0
100
AcDbLine
10
129.14826869269828
20
186.92091051329533
30
0
11
129.14826869269828
21
93.320911189807134
31
0
0
ARC
5
129
100
AcDbEntity
8
0
100
AcDbCircle
10
370.82613653063436
20
190.12091039110541
30
0
40
1.9999999999999929
210
0
220
0
230
1
100
AcDbArc
50
270
51
319.99998015306346
0
ARC
5
130
100
AcDbEntity
8
0
100
AcDbCircle
10
166.59826903863245
20
192.42090973633762
30
0
40
0.50000000000004263
210
0
220
-0
230
1
100
AcDbArc
50
90
51
180
0
ARC
5
131
100
AcDbEntity
8
0
100
AcDbCircle
10
380.39826871154531
20
190.32090813507
30
0
40
1.7000000000006652
210
0
220
0
230
1
100
AcDbArc
50
-180.0000374883443
51
3.7488344301357245e-05
0
ARC
5
132
100
AcDbEntity
8
0
100
AcDbCircle
10
402.64826863904744
20
89.720910391161283
30
0
40
3.1500000000000932
210
0
220
-0
230
1
100
AcDbArc
50
55.012494869956505
51
89.999999999296932
0
LINE
5
133
100
AcDbEntity
8
0
100
AcDbLine
10
157.3982682009605
20
89.920909854662909
30
0
11
157.3982682009605
21
87.820911559356659
31
0
0
ARC
5
134
100
AcDbEntity
8
0
100
AcDbCircle
10
270.19825921634538
20
192.42091016847041
30
0
40
0.50000000000004263
210
0
220
0
230
1
100
AcDbArc
50
0
51
90
0
LINE
5
135
100
AcDbEntity
8
0
100
AcDbLine
10
147.32863622954139
20
91.799271663918603
30
0
11
150.33709212769233
21
88.213940642185094
31
0
0
LINE
5
136
100
AcDbEntity
8
0
100
AcDbLine
10
145.0305037130974
20
92.870911022915038
30
0
11
142.14826872808831
21
92.870911022915038
31
0
0
ARC
5
137
100
AcDbEntity
8
0
100
AcDbCircle
10
130.34826863901341
20
93.320910391105286
30
0
40
1.2000000000000455
210
0
220
0
230
1
100
AcDbArc
50
180
51
270
0
ARC
5
138
100
AcDbEntity
8
0
100
AcDbCircle
10
154.8261364581094
20
190.12091039110541
30
0
40
2.0000000000000284
210
0
220
0
230
1
100
AcDbArc
50
270
51
319.99998015306392
0
LINE
5
139
100
AcDbEntity
8
0
100
AcDbLine
10
284.97040792604952
20
92.120913228286895
30
0
11
373.76866265436632
21
92.120913228286895
31
0
0
LINE
5
140
100
AcDbEntity
8
0
100
AcDbLine
10
159.03709071215431
20
192.02787991705401
30
0
11
156.3582248916295
21
188.83533440370709
31
0
0
ARC
5
141
100
AcDbEntity
8
0
100
AcDbCircle
10
260.02612691372832
20
190.12091039110541
30
0
40
1.9999999999999929
210
0
220
0
230
1
100
AcDbArc
50
270
51
319.99998015306346
0
LINE
5
142
100
AcDbEntity
8
0
100
AcDbLine
10
270.69825454851639
20
190.32090905447089
30
0
11
270.69825454851639
21
192.42091057587942
31
0
0
LINE
5
143
100
AcDbEntity
8
0
100
AcDbLine
10
153.99826838871442
20
87.820911559356659
30
0
11
153.99826838871442
21
89.920909854662909
31
0
0
ARC
5
144
100
AcDbEntity
8
0
100
AcDbCircle
10
155.69826863906042
20
89.9209126471427
30
0
40
1.7000000000008073
210
0
220
0
230
1
100
AcDbArc
50
-3.7488344318645093e-05
51
180.0000374883443
0
ARC
5
145
100
AcDbEntity
8
0
100
AcDbCircle
10
162.19826876072642
20
192.42090973633762
30
0
40
0.50000000000004263
210
0
220
0
230
1
100
AcDbArc
50
0
51
90
0
LINE
5
146
100
AcDbEntity
8
0
100
AcDbLine
10
130.34826851686441
20
92.120913228286895
30
0
11
139.76866783810729
21
92.120913228286895
31
0
0
ARC
5
147
100
AcDbEntity
8
0
100
AcDbCircle
10
414.44826871159353
20
186.9209103911065
30
0
40
1.2000000000002586
210
0
220
0
230
1
100
AcDbArc
50
0
51
90.00000000197042
0
ARC
5
148
100
AcDbEntity
8
0
100
AcDbCircle
10
272.3982686390604
20
89.9209126471427
30
0
40
1.7000000000007363
210
0
220
0
230
1
100
AcDbArc
50
-3.7488344318645093e-05
51
180.0000374883443
0
ARC
5
149
100
AcDbEntity
8
0
100
AcDbCircle
10
378.4305041775724
20
89.870910391163633
30
0
40
3.0000000000000799
210
0
220
-0
230
1
100
AcDbArc
50
40.000016890299158
51
90
0
ARC
5
150
100
AcDbEntity
8
0
100
AcDbCircle
10
391.29824950104052
20
87.820911045874112
30
0
40
0.50000000000011369
210
0
220
0
230
1
100
AcDbArc
50
180
51
270
0
ARC
5
151
100
AcDbEntity
8
0
100
AcDbCircle
10
168.64826863903454
20
89.720910391163102
30
0
40
3.1500000000009631
210
0
220
-0
230
1
100
AcDbArc
50
55.012494869896059
51
90
0
ARC
5
152
100
AcDbEntity
8
0
100
AcDbCircle
10
160.95220121213441
20
190.42091016847041
30
0
40
2.5
210
0
220
-0
230
1
100
AcDbArc
50
90
51
139.99997832855985
0
LINE
5
153
100
AcDbEntity
8
0
100
AcDbLine
10
261.35822161337342
20
91.406484505428466
30
0
11
264.03709344116231
21
88.213939516490768
31
0
0
ARC
5
154
100
AcDbEntity
8
0
100
AcDbCircle
10
159.14433487261249
20
89.820911534632955
30
0
40
2.5
210
0
220
0
230
1
100
AcDbArc
50
270
51
319.99995237903528
0
LINE
5
155
100
AcDbEntity
8
0
100
AcDbLine
10
284.77039104975051
20
188.12091039110541
30
0
11
370.82613653063436
21
188.12091039110541
31
0
0
ARC
5
156
100
AcDbEntity
8
0
100
AcDbCircle
10
386.8982492231334
20
87.820911045874112
30
0
40
0.50000000000004263
210
0
220
0
230
1
100
AcDbArc
50
-90
51
0
0
ARC
5
157
100
AcDbEntity
8
0
100
AcDbCircle
10
274.59826903867042
20
87.820911045874112
30
0
40
0.50000000000004263
210
0
220
0
230
1
100
AcDbArc
50
180
51
270
0
LINE
5
158
100
AcDbEntity
8
0
100
AcDbLine
10
166.59826903863245
20
192.92090973633765
30
0
11
167.84433609432941
21
192.92090973633668
31
0
0
LINE
5
159
100
AcDbEntity
8
0
100
AcDbLine
10
280.7594434077925
20
88.213939516490768
30
0
11
283.43831523558151
21
91.406484505428466
31
0
0
ARC
5
160
100
AcDbEntity
8
0
100
AcDbCircle
10
270.19826876076354
20
87.820911045874112
30
0
40
0.49999999999997158
210
0
220
0
230
1
100
AcDbArc
50
-90
51
0
0
LINE
5
161
100
AcDbEntity
8
0
100
AcDbLine
10
378.43050583502236
20
92.870911022915038
30
0
11
376.14827378889538
21
92.870911022915038
31
0
0
ARC
5
162
100
AcDbEntity
8
0
100
AcDbCircle
10
171.02786944597432
20
93.12091039110544
30
0
40
0.99999999999999734
210
0
220
0
230
1
100
AcDbArc
50
235.01249486996088
51
270
0
LINE
5
163
100
AcDbEntity
8
0
100
AcDbLine
10
161.05944464478881
20
88.213940918686689
30
0
11
164.06789942881142
21
91.799271663918603
31
0
0
ARC
5
164
100
AcDbEntity
8
0
100
AcDbCircle
10
373.76866783210738
20
93.12091039110544
30
0
40
1.0000000000000675
210
0
220
0
230
1
100
AcDbArc
50
270
51
304.98750513010413
0
LINE
5
165
100
AcDbEntity
8
0
100
AcDbLine
10
270.6982694496773
20
87.820911559356659
30
0
11
270.6982694496773
21
89.920909854662909
31
0
0
ARC
5
166
100
AcDbEntity
8
0
100
AcDbCircle
10
278.64433114539241
20
190.42091016847041
30
0
40
2.5000000000000173
210
0
220
-0
230
1
100
AcDbArc
50
39.999910910426216
51
90
0
ARC
5
167
100
AcDbEntity
8
0
100
AcDbCircle
10
167.84433609432941
20
190.42090973633759
30
0
40
2.5000000000000027
210
0
220
-0
230
1
100
AcDbArc
50
40.000040131562507
51
90
0
LINE
5
168
100
AcDbEntity
8
0
100
AcDbLine
10
278.84433481220128
20
87.320911534632955
30
0
11
274.5975699262803
21
87.320911534632955
31
0
0
LINE
5
169
100
AcDbEntity
8
0
100
AcDbLine
10
153.4989678731535
20
87.320911534632955
30
0
11
152.2522016678565
21
87.320911534632955
31
0
0
ARC
5
170
100
AcDbEntity
8
0
100
AcDbCircle
10
266.15219036316728
20
190.42091016847041
30
0
40
2.5
210
0
220
-0
230
1
100
AcDbArc
50
90
51
140.00001524886741
0
LINE
5
171
100
AcDbEntity
8
0
100
AcDbLine
10
160.95220121213441
20
192.92091016847041
30
0
11
162.19826876072642
21
192.92090973633765
31
0
0
ARC
5
172
100
AcDbEntity
8
0
100
AcDbCircle
10
259.8261364581474
20
90.120910391106349
30
0
40
1.9999999999999629
210
0
220
-0
230
1
100
AcDbArc
50
40.000019846943438
51
90
0
ARC
5
173
100
AcDbEntity
8
0
100
AcDbCircle
10
383.84433958172446
20
190.42091016847041
30
0
40
2.4999999999999907
210
0
220
-0
230
1
100
AcDbArc
50
40.000058591693318
51
90
0
LINE
5
174
100
AcDbEntity
8
0
100
AcDbLine
10
378.19826883325038
20
192.92091016847039
30
0
11
376.95220287006737
21
192.92091016847041
31
0
0
LINE
5
175
100
AcDbEntity
8
0
100
AcDbLine
10
274.59825956677741
20
192.92091016847047
30
0
11
278.64433114539241
21
192.92091016847041
31
0
0
ARC
5
176
100
AcDbEntity
8
0
100
AcDbCircle
10
265.95220203675348
20
89.820911534632955
30
0
40
2.4999999999999893
210
0
220
0
230
1
100
AcDbArc
50
220.00008957153082
51
270
0
ARC
5
177
100
AcDbEntity
8
0
100
AcDbCircle
10
278.84433481220128
20
89.820911534632955
30
0
40
2.5
210
0
220
0
230
1
100
AcDbArc
50
270
51
319.99991042847
0
LINE
5
178
100
AcDbEntity
8
0
100
AcDbLine
10
270.19896787293942
20
87.320911534632955
30
0
11
265.95220203675348
21
87.320911534632955
31
0
0
LINE
5
179
100
AcDbEntity
8
0
100
AcDbLine
10
159.14433487261249
20
87.320911534632955
30
0
11
157.8975699262823
21
87.320911534632955
31
0
0
ARC
5
180
100
AcDbEntity
8
0
100
AcDbCircle
10
376.14826863904744
20
89.720910391163102
30
0
40
3.150000000000972
210
0
220
-0
230
1
100
AcDbArc
50
90
51
124.98750513008756
0
ARC
5
181
100
AcDbEntity
8
0
100
AcDbCircle
10
152.2522016678565
20
89.820911534632955
30
0
40
2.5000000000000004
210
0
220
0
230
1
100
AcDbArc
50
220.00005589326173
51
270
0
ARC
5
182
100
AcDbEntity
8
0
100
AcDbCircle
10
284.9704005941685
20
90.12091039110544
30
0
40
1.9999999999999574
210
0
220
-0
230
1
100
AcDbArc
50
90
51
139.99998310970813
0
LINE
5
183
100
AcDbEntity
8
0
100
AcDbLine
10
270.19825921634538
20
192.92091016847047
30
0
11
266.15219036316728
21
192.92091016847041
31
0
0
ARC
5
184
100
AcDbEntity
8
0
100
AcDbCircle
10
166.36603310054736
20
89.870910391163633
30
0
40
3.0000000000000426
210
0
220
-0
230
1
100
AcDbArc
50
90
51
139.99998310970093
0
LINE
5
185
100
AcDbEntity
8
0
100
AcDbLine
10
173.97040052160531
20
188.12091039110541
30
0
11
260.02612691372832
21
188.12091039110541
31
0
0
ARC
5
186
100
AcDbEntity
8
0
100
AcDbCircle
10
376.95220287006737
20
190.42091016847041
30
0
40
2.5
210
0
220
-0
230
1
100
AcDbArc
50
90
51
139.99994140830503
0
LINE
5
187
100
AcDbEntity
8
0
100
AcDbLine
10
274.09826739927752
20
89.920909854662909
30
0
11
274.09826739927752
21
87.820911559356659
31
0
0
ARC
5
188
100
AcDbEntity
8
0
100
AcDbCircle
10
389.09824962274456
20
89.9209126471427
30
0
40
1.7000000000006652
210
0
220
0
230
1
100
AcDbArc
50
-3.7488344318645093e-05
51
180.0000374883443
0
LINE
5
189
100
AcDbEntity
8
0
100
AcDbLine
10
168.64826864799551
20
92.870911022915038
30
0
11
166.36603287657744
21
92.870911022915038
31
0
0
ARC
5
190
100
AcDbEntity
8
0
100
AcDbCircle
10
385.65219151299527
20
89.820911534632074
30
0
40
2.4999999999999987
210
0
220
0
230
1
100
AcDbArc
50
219.99994949761367
51
270
0
ARC
5
191
100
AcDbEntity
8
0
100
AcDbCircle
10
392.54430744174851
20
89.820911534632955
30
0
40
2.5
210
0
220
0
230
1
100
AcDbArc
50
270
51
319.99991042846585
0
LWPOLYLINE
5
192
100
AcDbEntity
8
0
100
AcDbPolyline
90
8
70
1
43
0.0
10
182.03451863905443
20
108.54091039110511
42
-0.41421356237309503
10
182.53451863905443
20
109.04091039110511
10
197.91576863905442
20
109.04091039110511
42
-0.41421356237309503
10
198.41576863905442
20
108.54091039110511
10
198.41576863905436
20
95.540910391105101
42
-0.41421356237309503
10
197.91576863905442
20
95.040910391105115
10
182.53451863905443
20
95.040910391105086
42
-0.41421356237309503
10
182.03451863905443
20
95.540910391105101
0
LWPOLYLINE
5
193
100
AcDbEntity
8
0
100
AcDbPolyline
90
8
70
1
43
0.0
10
202.01576863905444
20
95.540910391105101
10
202.01576863905441
20
108.54091039110511
42
-0.41421356237309503
10
202.51576863905441
20
109.04091039110511
10
203.51576863905444
20
109.04091039110511
42
-0.41421356237309503
10
204.01576863905444
20
108.54091039110511
10
204.01576863905444
20
95.540910391105101
42
-0.41421356237309503
10
203.51576863905444
20
95.040910391105086
10
202.51576863905441
20
95.040910391105129
42
-0.41421356237309503
0
LWPOLYLINE
5
194
100
AcDbEntity
8
0
100
AcDbPolyline
90
8
70
1
43
0.0
10
177.81576863905443
20
95.040910391105129
42
-0.41421356237309503
10
177.31576863905445
20
95.540910391105101
10
177.31576863905443
20
108.54091039110511
42
-0.41421356237309503
10
177.81576863905443
20
109.04091039110511
10
178.81576863905445
20
109.04091039110511
42
-0.41421356237309503
10
179.31576863905445
20
108.54091039110511
10
179.31576863905445
20
95.540910391105101
42
-0.41421356237309503
10
178.81576863905445
20
95.040910391105086
0
LWPOLYLINE
5
195
100
AcDbEntity
8
0
100
AcDbPolyline
90
8
70
1
43
0.0
10
158.2220186390544
20
108.54091039110511
42
-0.41421356237309503
10
158.72201863905443
20
109.04091039110511
10
174.10326863905442
20
109.04091039110511
42
-0.41421356237309503
10
174.60326863905442
20
108.54091039110511
10
174.60326863905442
20
95.540910391105101
42
-0.41421356237309503
10
174.10326863905442
20
95.040910391105115
10
158.72201863905443
20
95.040910391105086
42
-0.41421356237309503
10
158.2220186390544
20
95.540910391105101
0
LWPOLYLINE
5
196
100
AcDbEntity
8
0
100
AcDbPolyline
90
8
70
1
43
0.0
10
253.47201863905443
20
95.540910391105101
10
253.47201863905443
20
108.54091039110511
42
-0.41421356237309503
10
253.97201863905445
20
109.04091039110511
10
278.8782686390544
20
109.04091039110511
42
-0.41421356237309503
10
279.37826863905445
20
108.54091039110511
10
279.37826863905445
20
95.540910391105101
42
-0.41421356237309503
10
278.8782686390544
20
95.040910391105086
10
253.97201863905445
20
95.040910391105086
42
-0.41421356237309503
0
LWPOLYLINE
5
197
100
AcDbEntity
8
0
100
AcDbPolyline
90
8
70
1
43
0.0
10
367.44076863905445
20
95.540910391105101
42
-0.41421356237309503
10
366.94076863905445
20
95.040910391105086
10
365.94076863905445
20
95.040910391105058
42
-0.41421356237309503
10
365.4407686390544
20
95.540910391105101
10
365.44076863905445
20
108.54091039110511
42
-0.41421356237309503
10
365.94076863905445
20
109.04091039110511
10
366.94076863905445
20
109.04091039110509
42
-0.41421356237309503
10
367.4407686390544
20
108.54091039110511
0
LWPOLYLINE
5
198
100
AcDbEntity
8
0
100
AcDbPolyline
90
8
70
1
43
0.0
10
346.34076863905449
20
95.540910391105101
10
346.34076863905449
20
108.54091039110511
42
-0.41421356237309503
10
346.84076863905443
20
109.04091039110511
10
362.2220186390544
20
109.04091039110514
42
-0.41421356237309503
10
362.72201863905445
20
108.54091039110511
10
362.72201863905434
20
95.540910391105101
42
-0.41421356237309503
10
362.2220186390544
20
95.040910391105086
10
346.84076863905443
20
95.040910391105129
42
-0.41421356237309503
0
LWPOLYLINE
5
199
100
AcDbEntity
8
0
100
AcDbPolyline
90
8
70
1
43
0.0
10
343.24076863905447
20
109.04091039110511
10
342.24076863905447
20
109.04091039110511
42
0.41421356237309503
10
341.74076863905447
20
108.54091039110511
10
341.74076863905447
20
95.540910391105101
42
0.41421356237309503
10
342.24076863905447
20
95.040910391105086
10
343.24076863905447
20
95.040910391105115
42
0.41421356237309503
10
343.74076863905452
20
95.540910391105101
10
343.74076863905452
20
108.54091039110511
42
0.41421356237309503
0
LWPOLYLINE
5
200
100
AcDbEntity
8
0
100
AcDbPolyline
90
20
70
1
43
0.0
10
326.65326863905449
20
94.081819143082441
42
-0.41421356237309503
10
326.15326863905443
20
94.581819143082484
10
326.15326863905443
20
95.040910391105086
10
325.40951863905445
20
95.040910391105058
42
-0.41421356237309503
10
324.90951863905445
20
95.540910391105101
10
324.90951863905451
20
108.54091039110511
42
-0.41421356237309503
10
325.40951863905445
20
109.04091039110511
10
326.15326863905443
20
109.04091039110511
10
326.15326863905437
20
109.5409103911051
42
-0.41421356237326151
10
326.65326863905443
20
110.04091039110511
10
332.40326863905455
20
110.04091039110514
42
-0.41421356237313667
10
332.90326863905449
20
109.5409103911051
10
332.90326863905449
20
109.04091039110511
10
338.40951863905445
20
109.04091039110509
42
-0.41421356237309503
10
338.90951863905445
20
108.54091039110511
10
338.90951863905445
20
95.540910391105101
42
-0.41421356237309503
10
338.40951863905445
20
95.040910391105115
10
332.90326863905449
20
95.040910391105115
10
332.90326863905449
20
94.581819143082484
42
-0.41421356237309503
10
332.40326863905443
20
94.08181914308247
0
LWPOLYLINE
5
201
100
AcDbEntity
8
0
100
AcDbPolyline
90
8
70
1
43
0.0
10
307.5970186390544
20
94.040910391105129
42
-0.41421356237309503
10
307.09701863905445
20
94.540910391105101
10
307.09701863905445
20
109.5409103911051
42
-0.41421356237309503
10
307.59701863905445
20
110.04091039110511
10
313.3470186390544
20
110.04091039110511
42
-0.41421356237309503
10
313.8470186390544
20
109.5409103911051
10
313.84701863905445
20
94.540910391105101
42
-0.41421356237309503
10
313.34701863905445
20
94.040910391105101
0
LWPOLYLINE
5
202
100
AcDbEntity
8
0
100
AcDbPolyline
90
8
70
1
43
0.0
10
410.3470186390544
20
95.540910391105101
42
-0.41421356237309503
10
409.84701863905445
20
95.040910391105086
10
394.46576863905443
20
95.040910391105058
42
-0.41421356237309503
10
393.96576863905437
20
95.540910391105101
10
393.96576863905437
20
108.54091039110511
42
-0.41421356237309503
10
394.46576863905443
20
109.04091039110511
10
409.84701863905445
20
109.04091039110509
42
-0.41421356237309503
10
410.3470186390544
20
108.54091039110511
0
LWPOLYLINE
5
203
100
AcDbEntity
8
0
100
AcDbPolyline
90
8
70
1
43
0.0
10
386.53451863905445
20
95.540910391105101
42
-0.41421356237309503
10
386.03451863905445
20
95.040910391105086
10
370.65326863905443
20
95.040910391105129
42
-0.41421356237309503
10
370.15326863905443
20
95.540910391105101
10
370.15326863905443
20
108.54091039110511
42
-0.41421356237309503
10
370.65326863905443
20
109.04091039110511
10
386.03451863905445
20
109.04091039110509
42
-0.41421356237309503
10
386.53451863905445
20
108.54091039110511
0
LWPOLYLINE
5
204
100
AcDbEntity
8
0
100
AcDbPolyline
90
8
70
1
43
0.0
10
218.60326863905442
20
94.581819143082484
42
-0.41421356237309503
10
218.10326863905442
20
94.08181914308247
10
207.5970186390544
20
94.040910391105129
42
-0.41421356237309503
10
207.09701863905445
20
94.540910391105101
10
207.09701863905445
20
109.5409103911051
42
-0.41421356237309503
10
207.59701863905445
20
110.04091039110511
10
218.10326863905442
20
110.04091039110511
42
-0.41421356237309503
10
218.60326863905442
20
109.5409103911051
0
LWPOLYLINE
5
205
100
AcDbEntity
8
0
100
AcDbPolyline
90
8
70
1
43
0.0
10
389.36576863905441
20
108.54091039110511
42
-0.41421356237309503
10
389.86576863905447
20
109.04091039110511
10
390.86576863905441
20
109.04091039110514
42
-0.41421356237309503
10
391.36576863905447
20
108.54091039110511
10
391.36576863905441
20
95.540910391105101
42
-0.41421356237309503
10
390.86576863905441
20
95.040910391105115
10
389.86576863905447
20
95.040910391105058
42
-0.41421356237309503
10
389.36576863905441
20
95.540910391105101
0
LWPOLYLINE
5
206
100
AcDbEntity
8
0
100
AcDbPolyline
90
8
70
1
43
0.0
10
202.67826863905441
20
185.2409103911051
10
189.67826863905444
20
185.2409103911051
42
0.41421356237309503
10
189.17826863905444
20
184.7409103911051
10
189.17826863905444
20
171.7409103911051
42
0.41421356237309503
10
189.67826863905444
20
171.2409103911051
10
202.67826863905441
20
171.2409103911051
42
0.41421356237309503
10
203.17826863905441
20
171.7409103911051
10
203.17826863905441
20
184.7409103911051
42
0.41421356237309503
0
LWPOLYLINE
5
207
100
AcDbEntity
8
0
100
AcDbPolyline
90
8
70
1
43
0.0
10
145.5282686390544
20
171.2409103911051
10
132.52826863905443
20
171.2409103911051
42
-0.41421356237309503
10
132.0282686390544
20
171.7409103911051
10
132.02826863905446
20
184.7409103911051
42
-0.41421356237309503
10
132.52826863905443
20
185.2409103911051
10
145.5282686390544
20
185.24091039110513
42
-0.41421356237309503
10
146.02826863905443
20
184.7409103911051
10
146.02826863905443
20
171.7409103911051
42
-0.41421356237309503
0
LWPOLYLINE
5
208
100
AcDbEntity
8
0
100
AcDbPolyline
90
8
70
1
43
0.0
10
221.72826863905442
20
185.2409103911051
10
208.72826863905442
20
185.2409103911051
42
0.41421356237309503
10
208.22826863905442
20
184.7409103911051
10
208.22826863905442
20
171.7409103911051
42
0.41421356237309503
10
208.72826863905442
20
171.2409103911051
10
221.72826863905442
20
171.2409103911051
42
0.41421356237309503
10
222.22826863905442
20
171.7409103911051
10
222.22826863905439
20
184.7409103911051
42
0.41421356237309503
0
LWPOLYLINE
5
209
100
AcDbEntity
8
0
100
AcDbPolyline
90
8
70
1
43
0.0
10
183.62826863905443
20
185.24091039110513
42
-0.41421356237309503
10
184.12826863905445
20
184.7409103911051
10
184.12826863905445
20
171.7409103911051
42
-0.41421356237309503
10
183.62826863905443
20
171.2409103911051
10
170.62826863905443
20
171.2409103911051
42
-0.41421356237309503
10
170.12826863905443
20
171.7409103911051
10
170.12826863905445
20
184.7409103911051
42
-0.41421356237309503
10
170.62826863905443
20
185.2409103911051
0
LWPOLYLINE
5
210
100
AcDbEntity
8
0
100
AcDbPolyline
90
8
70
1
43
0.0
10
164.57826863905441
20
185.2409103911051
10
151.57826863905441
20
185.2409103911051
42
0.41421356237309503
10
151.07826863905441
20
184.7409103911051
10
151.07826863905441
20
171.7409103911051
42
0.41421356237309503
10
151.57826863905441
20
171.2409103911051
10
164.57826863905441
20
171.2409103911051
42
0.41421356237309503
10
165.07826863905444
20
171.7409103911051
10
165.07826863905444
20
184.7409103911051
42
0.41421356237309503
0
LWPOLYLINE
5
211
100
AcDbEntity
8
0
100
AcDbPolyline
90
8
70
1
43
0.0
10
246.82826863905444
20
171.2409103911051
42
-0.41421356237309503
10
246.32826863905444
20
171.7409103911051
10
246.32826863905447
20
184.7409103911051
42
-0.41421356237309503
10
246.82826863905444
20
185.2409103911051
10
259.82826863905439
20
185.24091039110513
42
-0.41421356237309503
10
260.32826863905439
20
184.7409103911051
10
260.32826863905439
20
171.7409103911051
42
-0.41421356237309503
10
259.82826863905439
20
171.2409103911051
0
LWPOLYLINE
5
212
100
AcDbEntity
8
0
100
AcDbPolyline
90
8
70
1
43
0.0
10
297.92826863905441
20
171.2409103911051
10
284.92826863905441
20
171.24091039110513
42
-0.41421356237309503
10
284.42826863905447
20
171.7409103911051
10
284.42826863905447
20
184.7409103911051
42
-0.41421356237309503
10
284.92826863905441
20
185.2409103911051
10
297.92826863905441
20
185.24091039110513
42
-0.41421356237309503
10
298.42826863905441
20
184.7409103911051
10
298.42826863905441
20
171.7409103911051
42
-0.41421356237309503
0
LWPOLYLINE
5
213
100
AcDbEntity
8
0
100
AcDbPolyline
90
8
70
1
43
0.0
10
336.52826863905443
20
171.7409103911051
42
-0.41421356237309503
10
336.02826863905449
20
171.2409103911051
10
323.02826863905443
20
171.24091039110507
42
-0.41421356237309503
10
322.52826863905443
20
171.7409103911051
10
322.52826863905449
20
184.7409103911051
42
-0.41421356237309503
10
323.02826863905443
20
185.2409103911051
10
336.02826863905449
20
185.2409103911051
42
-0.41421356237309503
10
336.52826863905443
20
184.7409103911051
0
LWPOLYLINE
5
214
100
AcDbEntity
8
0
100
AcDbPolyline
90
8
70
1
43
0.0
10
341.57826863905439
20
184.7409103911051
42
-0.41421356237309503
10
342.07826863905439
20
185.2409103911051
10
355.07826863905444
20
185.24091039110516
42
-0.41421356237309503
10
355.5782686390545
20
184.7409103911051
10
355.5782686390545
20
171.7409103911051
42
-0.41421356237309503
10
355.07826863905444
20
171.2409103911051
10
342.07826863905439
20
171.24091039110513
42
-0.41421356237309503
10
341.57826863905439
20
171.7409103911051
0
LWPOLYLINE
5
215
100
AcDbEntity
8
0
100
AcDbPolyline
90
8
70
1
43
0.0
10
227.27826863905446
20
184.7409103911051
42
-0.41421356237309503
10
227.77826863905443
20
185.2409103911051
10
240.77826863905443
20
185.24091039110513
42
-0.41421356237309503
10
241.27826863905443
20
184.7409103911051
10
241.27826863905443
20
171.7409103911051
42
-0.41421356237309503
10
240.77826863905443
20
171.2409103911051
10
227.77826863905443
20
171.2409103911051
42
-0.41421356237309503
10
227.27826863905443
20
171.7409103911051
0
LWPOLYLINE
5
216
100
AcDbEntity
8
0
100
AcDbPolyline
90
8
70
1
43
0.0
10
265.37826863905445
20
171.7409103911051
10
265.37826863905445
20
184.7409103911051
42
-0.41421356237309503
10
265.8782686390544
20
185.2409103911051
10
278.8782686390544
20
185.24091039110513
42
-0.41421356237309503
10
279.37826863905445
20
184.7409103911051
10
279.37826863905445
20
171.7409103911051
42
-0.41421356237309503
10
278.8782686390544
20
171.2409103911051
10
265.8782686390544
20
171.24091039110513
42
-0.41421356237309503
0
LWPOLYLINE
5
217
100
AcDbEntity
8
0
100
AcDbPolyline
90
8
70
1
43
0.0
10
316.97826863905442
20
185.2409103911051
10
303.97826863905442
20
185.2409103911051
42
0.41421356237309503
10
303.47826863905442
20
184.7409103911051
10
303.47826863905442
20
171.7409103911051
42
0.41421356237309503
10
303.97826863905442
20
171.2409103911051
10
316.97826863905442
20
171.2409103911051
42
0.41421356237309503
10
317.47826863905442
20
171.7409103911051
10
317.47826863905442
20
184.7409103911051
42
0.41421356237309503
0
LWPOLYLINE
5
218
100
AcDbEntity
8
0
100
AcDbPolyline
90
8
70
1
43
0.0
10
360.62826863905445
20
171.7409103911051
10
360.62826863905445
20
184.7409103911051
42
-0.41421356237309503
10
361.1282686390544
20
185.2409103911051
10
374.12826863905445
20
185.24091039110516
42
-0.41421356237309503
10
374.62826863905445
20
184.7409103911051
10
374.62826863905445
20
171.7409103911051
42
-0.41421356237309503
10
374.12826863905445
20
171.2409103911051
10
361.1282686390544
20
171.24091039110513
42
-0.41421356237309503
0
LWPOLYLINE
5
219
100
AcDbEntity
8
0
100
AcDbPolyline
90
8
70
1
43
0.0
10
389.70326863905439
20
171.24091039110513
42
-0.41421356237309503
10
389.20326863905444
20
171.7409103911051
10
389.20326863905444
20
184.7409103911051
42
-0.41421356237309503
10
389.70326863905439
20
185.2409103911051
10
402.70326863905439
20
185.24091039110516
42
-0.41421356237309503
10
403.20326863905444
20
184.7409103911051
10
403.20326863905439
20
171.7409103911051
42
-0.41421356237309503
10
402.70326863905439
20
171.2409103911051
0
LWPOLYLINE
5
220
100
AcDbEntity
8
0
100
AcDbPolyline
90
8
70
1
43
0.0
10
136.79076863905442
20
152.69091039110509
10
136.79076863905442
20
165.69091039110509
42
-0.41421356237309503
10
137.29076863905442
20
166.19091039110512
10
150.29076863905442
20
166.19091039110512
42
-0.41421356237309503
10
150.79076863905442
20
165.69091039110509
10
150.79076863905442
20
152.69091039110509
42
-0.41421356237309503
10
150.29076863905442
20
152.19091039110509
10
137.29076863905442
20
152.19091039110509
42
-0.41421356237309503
0
LWPOLYLINE
5
221
100
AcDbEntity
8
0
100
AcDbPolyline
90
8
70
1
43
0.0
10
410.3470186390544
20
143.16591039110509
10
410.3470186390544
20
156.16591039110511
42
0.41421356237309503
10
409.84701863905445
20
156.66591039110511
10
396.84701863905445
20
156.66591039110511
42
0.41421356237309503
10
396.3470186390544
20
156.16591039110511
10
396.3470186390544
20
143.16591039110509
42
0.41421356237309503
10
396.84701863905445
20
142.66591039110511
10
409.84701863905445
20
142.66591039110511
42
0.41421356237309503
0
LWPOLYLINE
5
222
100
AcDbEntity
8
0
100
AcDbPolyline
90
8
70
1
43
0.0
10
387.6402686390544
20
170.7409103911051
42
-0.41421356237309503
10
387.14026863905445
20
170.2409103911051
10
381.3902686390544
20
170.24091039110513
42
-0.41421356237309503
10
380.89026863905445
20
170.7409103911051
10
380.89026863905445
20
185.7409103911051
42
-0.41421356237313667
10
381.3902686390544
20
186.2409103911051
10
387.14026863905445
20
186.24091039110513
42
-0.41421356237313667
10
387.6402686390544
20
185.7409103911051
0
LWPOLYLINE
5
223
100
AcDbEntity
8
0
100
AcDbPolyline
90
8
70
1
43
0.0
10
131.1907686390544
20
152.69091039110509
10
131.1907686390544
20
165.69091039110509
42
-0.41421356237309503
10
131.69076863905443
20
166.19091039110512
10
132.69076863905443
20
166.19091039110512
42
-0.41421356237309503
10
133.19076863905443
20
165.69091039110509
10
133.19076863905443
20
152.69091039110509
42
-0.41421356237309503
10
132.69076863905443
20
152.19091039110509
10
131.69076863905443
20
152.19091039110509
42
-0.41421356237309503
0
LWPOLYLINE
5
224
100
AcDbEntity
8
0
100
AcDbPolyline
90
8
70
1
43
0.0
10
411.01626863905437
20
170.2409103911051
10
405.26626863905443
20
170.24091039110505
42
-0.41421356237309503
10
404.76626863905437
20
170.7409103911051
10
404.76626863905437
20
185.7409103911051
42
-0.41421356237313667
10
405.26626863905437
20
186.24091039110513
10
411.01626863905443
20
186.24091039110513
42
-0.41421356237326151
10
411.51626863905449
20
185.7409103911051
10
411.51626863905437
20
170.7409103911051
42
-0.41421356237309503
0
LWPOLYLINE
5
225
100
AcDbEntity
8
0
100
AcDbPolyline
90
8
70
1
43
0.0
10
395.3470186390544
20
134.8529103911051
10
395.3470186390544
20
140.6029103911051
42
-0.41421356237309503
10
395.84701863905445
20
141.1029103911051
10
410.84701863905451
20
141.10291039110504
42
-0.41421356237319906
10
411.3470186390544
20
140.60291039110513
10
411.34701863905445
20
134.8529103911051
42
-0.41421356237326151
10
410.84701863905445
20
134.3529103911051
10
395.84701863905445
20
134.35291039110507
42
-0.41421356237309503
0
LWPOLYLINE
5
226
100
AcDbEntity
8
0
100
AcDbPolyline
90
32
70
1
43
0.0
10
403.87251863905448
20
113.0909103911051
10
398.12251863905442
20
113.09091039110513
42
-0.41421356237309503
10
397.62251863905448
20
113.5909103911051
10
397.62251863905448
20
114.0909103911051
10
380.49651863905439
20
114.0909103911051
10
380.49651863905439
20
113.5909103911051
42
-0.41421356237309503
10
379.99651863905444
20
113.0909103911051
10
374.24651863905439
20
113.09091039110513
42
-0.41421356237309503
10
373.74651863905444
20
113.5909103911051
10
373.74651863905444
20
114.0909103911051
10
373.03451863905445
20
114.09091039110507
42
-0.41421356237309503
10
372.5345186390544
20
114.59091039110511
10
372.53451863905445
20
127.5909103911051
42
-0.41421356237309503
10
373.03451863905445
20
128.0909103911051
10
373.74651863905444
20
128.0909103911051
10
373.74651863905444
20
128.59091039110507
42
-0.41421356237313667
10
374.24651863905439
20
129.09091039110513
10
379.99651863905444
20
129.09091039110513
42
-0.41421356237313667
10
380.49651863905439
20
128.59091039110507
10
380.49651863905439
20
128.0909103911051
10
397.62251863905448
20
128.0909103911051
10
397.62251863905448
20
128.59091039110507
42
-0.41421356237313667
10
398.12251863905442
20
129.09091039110513
10
403.87251863905448
20
129.09091039110513
42
-0.41421356237312623
10
404.37251863905442
20
128.5909103911051
10
404.37251863905442
20
128.0909103911051
10
412.22826863905448
20
128.09091039110515
42
-0.41421356237309503
10
412.72826863905448
20
127.5909103911051
10
412.72826863905448
20
114.59091039110511
42
-0.41421356237309503
10
412.22826863905448
20
114.0909103911051
10
404.37251863905442
20
114.0909103911051
10
404.37251863905442
20
113.5909103911051
42
-0.41421356237309503
0
LWPOLYLINE
5
227
100
AcDbEntity
8
0
100
AcDbPolyline
90
8
70
1
43
0.0
10
395.84701863905445
20
158.22891039110505
42
-0.41421356237309503
10
395.3470186390544
20
158.7289103911051
10
395.3470186390544
20
164.4789103911051
42
-0.41421356237309503
10
395.84701863905445
20
164.9789103911051
10
410.84701863905445
20
164.97891039110513
42
-0.41421356237326151
10
411.34701863905445
20
164.4789103911051
10
411.3470186390544
20
158.7289103911051
42
-0.41421356237325113
10
410.84701863905445
20
158.22891039110513
0
LWPOLYLINE
5
228
100
AcDbEntity
8
0
100
AcDbPolyline
90
8
70
1
43
0.0
10
135.57201863905442
20
133.64091039110508
10
135.57201863905442
20
146.64091039110508
42
0.41421356237309503
10
135.07201863905442
20
147.14091039110511
10
134.07201863905442
20
147.14091039110511
42
0.41421356237309503
10
133.57201863905442
20
146.64091039110508
10
133.57201863905442
20
133.64091039110508
42
0.41421356237309503
10
134.07201863905442
20
133.14091039110511
10
135.07201863905442
20
133.14091039110511
42
0.41421356237309503
0
LWPOLYLINE
5
229
100
AcDbEntity
8
0
100
AcDbPolyline
90
8
70
1
43
0.0
10
152.67201863905441
20
133.14091039110511
10
139.67201863905441
20
133.14091039110508
42
-0.41421356237309503
10
139.17201863905441
20
133.64091039110508
10
139.17201863905441
20
146.64091039110508
42
-0.41421356237309503
10
139.67201863905441
20
147.14091039110511
10
152.67201863905441
20
147.14091039110511
42
-0.41421356237309503
10
153.17201863905441
20
146.64091039110508
10
153.17201863905441
20
133.64091039110508
42
-0.41421356237309503
0
LWPOLYLINE
5
230
100
AcDbEntity
8
0
100
AcDbPolyline
90
8
70
1
43
0.0
10
134.40951863905443
20
114.59091039110511
10
134.40951863905443
20
127.5909103911051
42
-0.41421356237309503
10
134.90951863905443
20
128.0909103911051
10
147.9095186390544
20
128.0909103911051
42
-0.41421356237309503
10
148.40951863905443
20
127.5909103911051
10
148.40951863905443
20
114.59091039110511
42
-0.41421356237309503
10
147.9095186390544
20
114.0909103911051
10
134.90951863905443
20
114.0909103911051
42
-0.41421356237309503
0
LWPOLYLINE
5
231
100
AcDbEntity
8
0
100
AcDbPolyline
90
8
70
1
43
0.0
10
134.90951863905443
20
95.040910391105086
42
-0.41421356237309503
10
134.40951863905443
20
95.540910391105101
10
134.40951863905443
20
108.54091039110511
42
-0.41421356237309503
10
134.90951863905443
20
109.04091039110511
10
150.29076863905442
20
109.04091039110511
42
-0.41421356237309503
10
150.79076863905442
20
108.54091039110511
10
150.79076863905442
20
95.540910391105101
42
-0.41421356237309503
10
150.29076863905442
20
95.040910391105086
0
LWPOLYLINE
5
232
100
AcDbEntity
8
0
100
AcDbPolyline
90
8
70
1
43
0.0
10
156.39076863905441
20
95.540910391105101
42
-0.41421356237309503
10
155.89076863905441
20
95.040910391105086
10
154.89076863905441
20
95.040910391105086
42
-0.41421356237309503
10
154.39076863905441
20
95.540910391105101
10
154.39076863905441
20
108.54091039110511
42
-0.41421356237309503
10
154.89076863905441
20
109.04091039110511
10
155.89076863905441
20
109.0409103911051
42
-0.41421356237309503
10
156.39076863905441
20
108.54091039110511
0
LWPOLYLINE
5
233
100
AcDbEntity
8
0
100
AcDbPolyline
90
8
70
1
43
0.0
10
166.95951863905441
20
128.0909103911051
10
153.95951863905441
20
128.0909103911051
42
0.41421356237309503
10
153.45951863905441
20
127.5909103911051
10
153.45951863905441
20
114.59091039110511
42
0.41421356237309503
10
153.95951863905441
20
114.0909103911051
10
166.95951863905441
20
114.0909103911051
42
0.41421356237309503
10
167.45951863905441
20
114.59091039110511
10
167.45951863905441
20
127.5909103911051
42
0.41421356237309503
0
LWPOLYLINE
5
234
100
AcDbEntity
8
0
100
AcDbPolyline
90
8
70
1
43
0.0
10
247.92201863905444
20
109.04091039110511
10
224.15326863905443
20
109.04091039110511
42
0.41421356237310542
10
223.65326863905443
20
108.54091039110511
10
223.6532686390544
20
102.54091039110511
42
0.4142135623730846
10
224.15326863905443
20
102.04091039110511
10
247.92201863905444
20
102.0409103911051
42
0.41421356237309503
10
248.42201863905444
20
102.54091039110511
10
248.42201863905444
20
108.54091039110511
42
0.41421356237313667
0
LWPOLYLINE
5
235
100
AcDbEntity
8
0
100
AcDbPolyline
90
8
70
1
43
0.0
10
301.54701863905444
20
102.0409103911051
10
284.92826863905441
20
102.04091039110509
42
-0.4142135623730846
10
284.42826863905441
20
102.54091039110511
10
284.42826863905441
20
108.54091039110511
42
-0.41421356237310542
10
284.92826863905441
20
109.04091039110513
10
301.54701863905444
20
109.0409103911051
42
-0.41421356237310542
10
302.04701863905439
20
108.54091039110511
10
302.0470186390545
20
102.54091039110511
42
-0.4142135623730846
0
LWPOLYLINE
5
236
100
AcDbEntity
8
0
100
AcDbPolyline
90
20
70
1
43
0.0
10
153.31576863905443
20
150.16591039110511
10
153.3157686390544
20
168.21591039110507
42
-0.41421356237313667
10
153.81576863905445
20
168.71591039110513
10
393.32201863905448
20
168.71591039110507
42
-0.41421356237326151
10
393.82201863905442
20
168.21591039110507
10
393.82201863905448
20
131.1159103911051
42
-0.41421356237326151
10
393.32201863905448
20
130.61591039110507
10
370.50951863905436
20
130.61591039110513
42
0.41421356237313667
10
370.00951863905442
20
130.11591039110507
10
370.00951863905442
20
112.06591039110512
42
-0.41421356237313667
10
369.50951863905448
20
111.56591039110511
10
170.48451863905441
20
111.56591039110512
42
-0.4142135623730846
10
169.98451863905441
20
112.06591039110512
10
169.98451863905444
20
130.11591039110507
42
0.4142135623730846
10
169.48451863905439
20
130.61591039110507
10
156.19701863905442
20
130.61591039110507
42
-0.41421356237309503
10
155.69701863905442
20
131.11591039110507
10
155.69701863905442
20
149.16591039110509
42
0.4142135623730534
10
155.19701863905442
20
149.66591039110509
10
153.81576863905443
20
149.66591039110509
42
-0.4142135623730534
0
LINE
5
237
100
AcDbEntity
8
0
100
AcDbLine
10
383.73707898876341
20
88.213944198458535
30
0
11
380.72863693846466
21
91.799273897693013
31
0
0
LINE
5
238
100
AcDbEntity
8
0
100
AcDbLine
10
385.65219151299527
20
87.320911534632074
30
0
11
386.8982492231334
21
87.320911045874084
31
0
0
LINE
5
239
100
AcDbEntity
8
0
100
AcDbLine
10
387.39824922313346
20
87.820911045874112
30
0
11
387.39824962274429
21
89.920911534633973
31
0
0
LINE
5
240
100
AcDbEntity
8
0
100
AcDbLine
10
390.79824962274483
20
89.920911534633944
30
0
11
390.7982495010404
21
87.820911045874112
31
0
0
LINE
5
241
100
AcDbEntity
8
0
100
AcDbLine
10
391.29824950104052
20
87.320911045873999
30
0
11
392.54430744174851
21
87.320911534632955
31
0
0
LINE
5
242
100
AcDbEntity
8
0
100
AcDbLine
10
394.45941603733945
20
88.213939516490768
30
0
11
397.46791016555136
21
91.799285210923614
31
0
0
LINE
5
243
100
AcDbEntity
8
0
100
AcDbLine
10
399.7660334334164
20
92.870910391163676
30
0
11
402.6482686390861
21
92.87091039116136
31
0
0
LINE
5
244
100
AcDbEntity
8
0
100
AcDbLine
10
405.02786944598432
20
92.12091039110544
30
0
11
414.44826871159444
21
92.120910391105241
31
0
0
LINE
5
245
100
AcDbEntity
8
0
100
AcDbLine
10
414.44826871155226
20
188.12091039110675
30
0
11
389.97040059412939
21
188.12091039110544
31
0
0
LINE
5
246
100
AcDbEntity
8
0
100
AcDbLine
10
388.43831208686794
20
188.83533472008588
30
0
11
385.75944904620542
21
192.02788115111287
31
0
0
LINE
5
247
100
AcDbEntity
8
0
100
AcDbLine
10
383.84433958172446
20
192.92091016847041
30
0
11
382.59826911115647
21
192.92091016847047
31
0
0
LINE
5
248
100
AcDbEntity
8
0
100
AcDbLine
10
382.09826911115641
20
192.42091016847041
30
0
11
382.09826871154564
21
190.32090924757875
31
0
0
ENDSEC
0
SECTION
2
OBJECTS
0
DICTIONARY
5
C
100
AcDbDictionary
3
ACAD_GROUP
350
D
3
ACAD_MLINESTYLE
350
17
0
DICTIONARY
5
D
100
AcDbDictionary
0
DICTIONARY
5
1A
330
C
100
AcDbDictionary
0
DICTIONARY
5
17
100
AcDbDictionary
0
ENDSEC
0
EOF
