0
SECTION
2
HEADER
9
$INSUNITS
70
4
9
$ACADVER
1
AC1014
9
$HANDSEED
5
FFFF
0
ENDSEC
0
SECTION
2
TABLES
0
TABLE
2
VPORT
5
8
100
AcDbSymbolTable
0
ENDTAB
0
TABLE
2
LTYPE
5
5
100
AcDbSymbolTable
0
LTYPE
5
14
100
AcDbSymbolTableRecord
100
AcDbLinetypeTableRecord
2
BYBLOCK
70
0
0
LTYPE
5
15
100
AcDbSymbolTableRecord
100
AcDbLinetypeTableRecord
2
BYLAYER
70
0
0
ENDTAB
0
TABLE
2
LAYER
5
2
100
AcDbSymbolTable
70
2
0
LAYER
5
50
100
AcDbSymbolTableRecord
100
AcDbLayerTableRecord
2
0
70
0
6
CONTINUOUS
0
ENDTAB
0
TABLE
2
STYLE
5
3
100
AcDbSymbolTable
70
1
0
STYLE
5
11
100
AcDbSymbolTableRecord
100
AcDbTextStyleTableRecord
2
STANDARD
70
0
0
ENDTAB
0
TABLE
2
VIEW
5
6
100
AcDbSymbolTable
70
0
0
ENDTAB
0
TABLE
2
UCS
5
7
100
AcDbSymbolTable
70
0
0
ENDTAB
0
TABLE
2
APPID
5
9
100
AcDbSymbolTable
70
2
0
APPID
5
12
100
AcDbSymbolTableRecord
100
AcDbRegAppTableRecord
2
ACAD
70
0
0
ENDTAB
0
TABLE
2
DIMSTYLE
5
A
100
AcDbSymbolTable
70
1
0
ENDTAB
0
TABLE
2
BLOCK_RECORD
5
1
100
AcDbSymbolTable
70
1
0
BLOCK_RECORD
5
1F
100
AcDbSymbolTableRecord
100
AcDbBlockTableRecord
2
*MODEL_SPACE
0
BLOCK_RECORD
5
1B
100
AcDbSymbolTableRecord
100
AcDbBlockTableRecord
2
*PAPER_SPACE
0
ENDTAB
0
ENDSEC
0
SECTION
2
BLOCKS
0
BLOCK
5
20
100
AcDbEntity
100
AcDbBlockBegin
2
*MODEL_SPACE
0
ENDBLK
5
21
100
AcDbEntity
100
AcDbBlockEnd
0
BLOCK
5
1C
100
AcDbEntity
100
AcDbBlockBegin
2
*PAPER_SPACE
0
ENDBLK
5
1D
100
AcDbEntity
100
AcDbBlockEnd
0
ENDSEC
0
SECTION
2
ENTITIES
0
ARC
5
100
100
AcDbEntity
8
0
100
AcDbCircle
10
258.10388185724781
20
24.092642463354533
30
0
40
1.0000000000000142
210
0
220
0
230
1
100
AcDbArc
50
180
51
270
0
ARC
5
101
100
AcDbEntity
8
0
100
AcDbCircle
10
252.32563333695941
20
25.59264246335454
30
0
40
2.5000000000000044
210
0
220
0
230
1
100
AcDbArc
50
219.99999999996172
51
270.00000000001438
0
LINE
5
102
100
AcDbEntity
8
0
100
AcDbLine
10
247.22819523233909
20
27.778215254453809
30
0
11
250.41051701921958
21
23.98567601552406
31
0
0
ARC
5
103
100
AcDbEntity
8
0
100
AcDbCircle
10
265.11165284758994
20
26.492642463355534
30
0
40
2.0000000000558065
210
0
220
-0
230
1
100
AcDbArc
50
89.998580150631355
51
139.999999999979
0
ARC
5
104
100
AcDbEntity
8
0
100
AcDbCircle
10
245.69611086690992
20
26.492642463354631
30
0
40
2.0000000000000187
210
0
220
-0
230
1
100
AcDbArc
50
39.999999999953985
51
89.99999999994219
0
ARC
5
105
100
AcDbEntity
8
0
100
AcDbCircle
10
258.48213037753243
20
25.59264246335454
30
0
40
2.5000000000000711
210
0
220
0
230
1
100
AcDbArc
50
270.00000000000131
51
319.99999999999386
0
ARC
5
106
100
AcDbEntity
8
0
100
AcDbCircle
10
157.44923185724741
20
150.70514167657308
30
0
40
1.7000000000000171
210
0
220
0
230
1
100
AcDbArc
50
-180
51
0
0
LINE
5
107
100
AcDbEntity
8
0
100
AcDbLine
10
210.73048309702421
20
144.9051418583671
30
0
11
217.73048238176841
21
144.9051418583671
31
0
0
ARC
5
108
100
AcDbEntity
8
0
100
AcDbCircle
10
167.15700284759021
20
150.1051416765718
30
0
40
2.0000000000000115
210
0
220
0
230
1
100
AcDbArc
50
220.00000000002271
51
269.99999999998857
0
LINE
5
109
100
AcDbEntity
8
0
100
AcDbLine
10
154.74923447985191
20
153.50514139494101
30
0
11
154.37098340410731
21
153.50514139494101
31
0
0
ARC
5
110
100
AcDbEntity
8
0
100
AcDbCircle
10
147.7414608669103
20
150.10514167657271
30
0
40
2.0000000000000284
210
0
220
0
230
1
100
AcDbArc
50
270.00000000005861
51
320.00000000004826
0
LINE
5
111
100
AcDbEntity
8
0
100
AcDbLine
10
149.27354947943232
20
148.81956625243819
30
0
11
152.45587126631281
21
152.61211107930339
31
0
0
LINE
5
112
100
AcDbEntity
8
0
100
AcDbLine
10
155.74923650640983
20
150.70514149477881
30
0
11
155.74923650640983
21
152.5051412310282
31
0
0
ARC
5
113
100
AcDbEntity
8
0
100
AcDbCircle
10
154.37098333695991
20
151.0051416765728
30
0
40
2.5
210
0
220
-0
230
1
100
AcDbArc
50
89.999999999994145
51
140.00000000004613
0
ARC
5
114
100
AcDbEntity
8
0
100
AcDbCircle
10
154.7492318572485
20
152.5051416765728
30
0
40
0.99999999999999645
210
0
220
0
230
1
100
AcDbArc
50
0
51
90
0
LINE
5
115
100
AcDbEntity
8
0
100
AcDbLine
10
167.1569992722942
20
148.10514125487009
30
0
11
208.7304790439083
21
148.10514125487009
31
0
0
LINE
5
116
100
AcDbEntity
8
0
100
AcDbLine
10
165.62490658182639
20
148.81956625243819
30
0
11
162.4425847949459
21
152.61211107930339
31
0
0
ARC
5
117
100
AcDbEntity
8
0
100
AcDbCircle
10
208.73048185724741
20
147.10514167657269
30
0
40
1.0000000000000142
210
0
220
0
230
1
100
AcDbArc
50
0
51
90
0
ARC
5
118
100
AcDbEntity
8
0
100
AcDbCircle
10
210.73048185724741
20
145.9051416765727
30
0
40
1.0000000000000142
210
0
220
0
230
1
100
AcDbArc
50
180
51
270
0
LINE
5
119
100
AcDbEntity
8
0
100
AcDbLine
10
219.73048643488431
20
148.10514125487009
30
0
11
245.69611744303251
21
148.10514125487009
31
0
0
LINE
5
120
100
AcDbEntity
8
0
100
AcDbLine
10
159.14923445601011
20
150.70514149477881
30
0
11
159.14923445601011
21
152.5051412310282
31
0
0
ARC
5
121
100
AcDbEntity
8
0
100
AcDbCircle
10
219.73048185724738
20
147.10514167657269
30
0
40
0.99999999999999645
210
0
220
-0
230
1
100
AcDbArc
50
90
51
180
0
ARC
5
122
100
AcDbEntity
8
0
100
AcDbCircle
10
217.73048185724741
20
145.9051416765727
30
0
40
0.99999999999999645
210
0
220
0
230
1
100
AcDbArc
50
-90
51
0
0
ARC
5
123
100
AcDbEntity
8
0
100
AcDbCircle
10
245.69611086690992
20
150.10514167657271
30
0
40
2.0000000000000107
210
0
220
0
230
1
100
AcDbArc
50
270.00000000005781
51
320.00000000004724
0
ARC
5
124
100
AcDbEntity
8
0
100
AcDbCircle
10
160.14923185724808
20
152.5051416765728
30
0
40
0.99999999999999645
210
0
220
-0
230
1
100
AcDbArc
50
90
51
180
0
LINE
5
125
100
AcDbEntity
8
0
100
AcDbLine
10
247.22819523233909
20
148.81956625243819
30
0
11
250.41051701921958
21
152.61211107930339
31
0
0
ARC
5
126
100
AcDbEntity
8
0
100
AcDbCircle
10
265.11165284758994
20
150.1051416765718
30
0
40
2.000000000000016
210
0
220
0
230
1
100
AcDbArc
50
220.00000000002154
51
269.99999999998857
0
ARC
5
127
100
AcDbEntity
8
0
100
AcDbCircle
10
258.48213037753243
20
151.0051416765728
30
0
40
2.5000000000000178
210
0
220
-0
230
1
100
AcDbArc
50
40.000000000007091
51
90
0
LINE
5
128
100
AcDbEntity
8
0
100
AcDbLine
10
209.73048185724738
20
145.9051416765727
30
0
11
209.73048185724741
21
147.10514167657269
31
0
0
LINE
5
129
100
AcDbEntity
8
0
100
AcDbLine
10
218.73048185724738
20
147.10514167657269
30
0
11
218.73048185724741
21
145.9051416765727
31
0
0
ARC
5
130
100
AcDbEntity
8
0
100
AcDbCircle
10
160.52748037753358
20
151.0051416765728
30
0
40
2.5000000000000493
210
0
220
-0
230
1
100
AcDbArc
50
40.000000000005755
51
89.999999999999346
0
ARC
5
131
100
AcDbEntity
8
0
100
AcDbCircle
10
252.32563333695964
20
151.0051416765728
30
0
40
2.5
210
0
220
-0
230
1
100
AcDbArc
50
89.999999999994785
51
140.00000000004613
0
LINE
5
132
100
AcDbEntity
8
0
100
AcDbLine
10
160.5274875583126
20
153.50514139494101
30
0
11
160.149236482568
21
153.50514139494101
31
0
0
LINE
5
133
100
AcDbEntity
8
0
100
AcDbLine
10
69.157009285874608
20
148.10514125487009
30
0
11
147.74145678896451
21
148.10514125487009
31
0
0
LINE
5
134
100
AcDbEntity
8
0
100
AcDbLine
10
69.157009285874608
20
28.492643977312241
30
0
11
147.74145678896451
21
28.492643977312241
31
0
0
LINE
5
135
100
AcDbEntity
8
0
100
AcDbLine
10
-74.175783160142643
20
30.492640579847489
30
0
11
-74.175783160142643
21
146.10514185836709
31
0
0
LINE
5
136
100
AcDbEntity
8
0
100
AcDbLine
10
-45.835162240080571
20
28.492643977312241
30
0
11
49.741459351964259
21
28.492643977312241
31
0
0
ARC
5
137
100
AcDbEntity
8
0
100
AcDbCircle
10
-45.835162053575793
20
26.492642463354631
30
0
40
2.0000000000000018
210
0
220
0
230
1
100
AcDbArc
50
90.00000000005619
51
140.00000000004655
0
LINE
5
138
100
AcDbEntity
8
0
100
AcDbLine
10
-58.621181367896533
20
23.092641974596184
30
0
11
-58.242933086119635
21
23.092641974596184
31
0
0
LINE
5
139
100
AcDbEntity
8
0
100
AcDbLine
10
-47.367251205258114
20
27.778215254453809
30
0
11
-50.549572992138607
21
23.98567601552406
31
0
0
LINE
5
140
100
AcDbEntity
8
0
100
AcDbLine
10
-63.718615176156206
20
27.778215254453809
30
0
11
-60.53629257436846
21
23.98567601552406
31
0
0
ARC
5
141
100
AcDbEntity
8
0
100
AcDbCircle
10
-58.242933043913624
20
24.092642463354533
30
0
40
1.0000000000000009
210
0
220
0
230
1
100
AcDbArc
50
-89.99999999999919
51
0
0
ARC
5
142
100
AcDbEntity
8
0
100
AcDbCircle
10
-58.621181564199141
20
25.59264246335454
30
0
40
2.5000000000000018
210
0
220
0
230
1
100
AcDbArc
50
220.00000000000921
51
270.0000000000008
0
LINE
5
143
100
AcDbEntity
8
0
100
AcDbLine
10
-53.842932644300205
20
25.89264466872612
30
0
11
-53.842932644300205
21
24.092644001154106
31
0
0
LINE
5
144
100
AcDbEntity
8
0
100
AcDbLine
10
-65.25070402491842
20
28.492643977312241
30
0
11
-72.175782832317097
21
28.492643977312241
31
0
0
ARC
5
145
100
AcDbEntity
8
0
100
AcDbCircle
10
-72.175783043912872
20
30.492642463355534
30
0
40
2.0000000000000018
210
0
220
0
230
1
100
AcDbArc
50
180
51
270.0000000000008
0
ARC
5
146
100
AcDbEntity
8
0
100
AcDbCircle
10
-55.542933043912541
20
25.892643575863428
30
0
40
1.7000000000007363
210
0
220
0
230
1
100
AcDbArc
50
-3.7488344318645093e-05
51
180.0000374883443
0
ARC
5
147
100
AcDbEntity
8
0
100
AcDbCircle
10
-65.250704034255762
20
26.492642463355534
30
0
40
2.0000000000000155
210
0
220
-0
230
1
100
AcDbArc
50
40.000000000021096
51
89.999999999986557
0
LINE
5
148
100
AcDbEntity
8
0
100
AcDbLine
10
-57.242932922206862
20
25.89264466872612
30
0
11
-57.242932922206862
21
24.092644001154106
31
0
0
LINE
5
149
100
AcDbEntity
8
0
100
AcDbLine
10
-52.84293341171
20
23.092641974596184
30
0
11
-52.464684198610527
21
23.092641974596184
31
0
0
ARC
5
150
100
AcDbEntity
8
0
100
AcDbCircle
10
-52.842933043914002
20
24.092642463354533
30
0
40
1.0000000000000053
210
0
220
0
230
1
100
AcDbArc
50
180
51
270.00000000000119
0
ARC
5
151
100
AcDbEntity
8
0
100
AcDbCircle
10
-52.464684523625287
20
25.59264246335454
30
0
40
2.5000000000000044
210
0
220
0
230
1
100
AcDbArc
50
269.99999999999022
51
320.00000000003996
0
LINE
5
152
100
AcDbEntity
8
0
100
AcDbLine
10
67.624916595406773
20
27.778215254453809
30
0
11
64.44259480852628
21
23.98567601552406
31
0
0
LINE
5
153
100
AcDbEntity
8
0
100
AcDbLine
10
57.749231618829029
20
24.592644668726123
30
0
11
57.749231618829029
21
24.092644001154106
31
0
0
LINE
5
154
100
AcDbEntity
8
0
100
AcDbLine
10
51.273552042432087
20
27.778215254453809
30
0
11
54.45587382931258
21
23.98567601552406
31
0
0
ARC
5
155
100
AcDbEntity
8
0
100
AcDbCircle
10
62.527480377535056
20
25.59264246335454
30
0
40
2.5000000000000044
210
0
220
0
230
1
100
AcDbArc
50
269.99999999999022
51
320.00000000004138
0
LINE
5
156
100
AcDbEntity
8
0
100
AcDbLine
10
56.370985967107075
20
23.092641974596184
30
0
11
56.749229592271099
21
23.092641974596184
31
0
0
ARC
5
157
100
AcDbEntity
8
0
100
AcDbCircle
10
56.749231857246691
20
24.092642463354533
30
0
40
1.0000000000000009
210
0
220
0
230
1
100
AcDbArc
50
-89.999999999998778
51
0
0
ARC
5
158
100
AcDbEntity
8
0
100
AcDbCircle
10
69.157002847582532
20
26.492642463354631
30
0
40
2.0000000000000107
210
0
220
-0
230
1
100
AcDbArc
50
90
51
140.00000000004991
0
ARC
5
159
100
AcDbEntity
8
0
100
AcDbCircle
10
59.449231857247412
20
24.592642463354263
30
0
40
1.7000000000000082
210
0
220
0
230
1
100
AcDbArc
50
0
51
180
0
ARC
5
160
100
AcDbEntity
8
0
100
AcDbCircle
10
56.370983336961231
20
25.59264246335454
30
0
40
2.5000000000000266
210
0
220
0
230
1
100
AcDbArc
50
220.00000000000921
51
270
0
ARC
5
161
100
AcDbEntity
8
0
100
AcDbCircle
10
49.741460866905044
20
26.492642463355534
30
0
40
2
210
0
220
-0
230
1
100
AcDbArc
50
40.00000000004124
51
90
0
ARC
5
162
100
AcDbEntity
8
0
100
AcDbCircle
10
62.149231857246328
20
24.092642463354533
30
0
40
1.0000000000000053
210
0
220
0
230
1
100
AcDbArc
50
180
51
270.00000000000119
0
LINE
5
163
100
AcDbEntity
8
0
100
AcDbLine
10
61.14922956842922
20
24.592644668726123
30
0
11
61.14922956842922
21
24.092644001154106
31
0
0
LINE
5
164
100
AcDbEntity
8
0
100
AcDbLine
10
62.149231594987164
20
23.092641974596184
30
0
11
62.5274826707318
21
23.092641974596184
31
0
0
LINE
5
165
100
AcDbEntity
8
0
100
AcDbLine
10
-45.835162240080571
20
148.10514125487009
30
0
11
49.741459351964259
21
148.10514125487009
31
0
0
ARC
5
166
100
AcDbEntity
8
0
100
AcDbCircle
10
-72.175783043912872
20
146.1051416765718
30
0
40
1.9999999999999929
210
0
220
-0
230
1
100
AcDbArc
50
90
51
180
0
ARC
5
167
100
AcDbEntity
8
0
100
AcDbCircle
10
-65.250704034255278
20
150.1051416765718
30
0
40
1.9999999999999929
210
0
220
0
230
1
100
AcDbArc
50
270.0000000000008
51
319.99999999996004
0
LINE
5
168
100
AcDbEntity
8
0
100
AcDbLine
10
-65.25070402491842
20
148.10514125487009
30
0
11
-72.175782832317097
21
148.10514125487009
31
0
0
LINE
5
169
100
AcDbEntity
8
0
100
AcDbLine
10
-63.718615176156206
20
148.81956625243819
30
0
11
-60.53629257436846
21
152.61211107930339
31
0
0
ARC
5
170
100
AcDbEntity
8
0
100
AcDbCircle
10
-45.835162053575793
20
150.10514167657271
30
0
40
1.9999999999999969
210
0
220
0
230
1
100
AcDbArc
50
219.99999999995401
51
269.99999999994446
0
ARC
5
171
100
AcDbEntity
8
0
100
AcDbCircle
10
-58.621181564198217
20
151.0051416765728
30
0
40
2.5
210
0
220
0
230
1
100
AcDbArc
50
90.00000000000081
51
139.99999999999281
0
ARC
5
172
100
AcDbEntity
8
0
100
AcDbCircle
10
-52.842933043913085
20
152.5051416765728
30
0
40
0.99999999999999645
210
0
220
-0
230
1
100
AcDbArc
50
90
51
180
0
LINE
5
173
100
AcDbEntity
8
0
100
AcDbLine
10
-57.242932922206862
20
150.70514149477881
30
0
11
-57.242932922206862
21
152.5051412310282
31
0
0
ARC
5
174
100
AcDbEntity
8
0
100
AcDbCircle
10
-58.242933043913624
20
152.5051416765728
30
0
40
0.99999999999999645
210
0
220
0
230
1
100
AcDbArc
50
0
51
90
0
LINE
5
175
100
AcDbEntity
8
0
100
AcDbLine
10
-53.842932644300205
20
150.70514149477881
30
0
11
-53.842932644300205
21
152.5051412310282
31
0
0
ARC
5
176
100
AcDbEntity
8
0
100
AcDbCircle
10
-52.464684523625493
20
151.0051416765728
30
0
40
2.5000000000000213
210
0
220
-0
230
1
100
AcDbArc
50
39.999999999953474
51
90.000000000005699
0
ARC
5
177
100
AcDbEntity
8
0
100
AcDbCircle
10
-55.542933043913258
20
150.70514056486331
30
0
40
1.700000000000736
210
0
220
0
230
1
100
AcDbArc
50
-180.00003745916672
51
3.7459166703758946e-05
0
LINE
5
178
100
AcDbEntity
8
0
100
AcDbLine
10
-58.621181367896533
20
153.50514139494101
30
0
11
-58.242933086119635
21
153.50514139494101
31
0
0
LINE
5
179
100
AcDbEntity
8
0
100
AcDbLine
10
-47.367251205258114
20
148.81956625243819
30
0
11
-50.549572992138607
21
152.61211107930339
31
0
0
LINE
5
180
100
AcDbEntity
8
0
100
AcDbLine
10
-52.84293341171
20
153.50514139494101
30
0
11
-52.464684198610527
21
153.50514139494101
31
0
0
LINE
5
181
100
AcDbEntity
8
0
100
AcDbLine
10
57.749231618829029
20
150.70514149477881
30
0
11
57.749231618829029
21
152.5051412310282
31
0
0
LINE
5
182
100
AcDbEntity
8
0
100
AcDbLine
10
67.624916595406773
20
148.81956625243819
30
0
11
64.44259480852628
21
152.61211107930339
31
0
0
ARC
5
183
100
AcDbEntity
8
0
100
AcDbCircle
10
49.741460866905044
20
150.1051416765718
30
0
40
1.9999999999999929
210
0
220
0
230
1
100
AcDbArc
50
270.0000000000008
51
319.99999999996004
0
ARC
5
184
100
AcDbEntity
8
0
100
AcDbCircle
10
69.157002847582532
20
150.10514167657271
30
0
40
2.0000000000000053
210
0
220
0
230
1
100
AcDbArc
50
219.9999999999516
51
270.0000000000008
0
ARC
5
185
100
AcDbEntity
8
0
100
AcDbCircle
10
56.370983336961231
20
151.0051416765728
30
0
40
2.5
210
0
220
0
230
1
100
AcDbArc
50
90.00000000000081
51
139.99999999999272
0
LINE
5
186
100
AcDbEntity
8
0
100
AcDbLine
10
62.149231594987164
20
153.50514139494101
30
0
11
62.5274826707318
21
153.50514139494101
31
0
0
ARC
5
187
100
AcDbEntity
8
0
100
AcDbCircle
10
56.749231857246691
20
152.5051416765728
30
0
40
0.99999999999999645
210
0
220
0
230
1
100
AcDbArc
50
0
51
90
0
ARC
5
188
100
AcDbEntity
8
0
100
AcDbCircle
10
59.449231857247412
20
150.70514167657308
30
0
40
1.7000000000000082
210
0
220
0
230
1
100
AcDbArc
50
-180
51
0
0
LINE
5
189
100
AcDbEntity
8
0
100
AcDbLine
10
61.14922956842922
20
150.70514149477881
30
0
11
61.14922956842922
21
152.5051412310282
31
0
0
ARC
5
190
100
AcDbEntity
8
0
100
AcDbCircle
10
62.149231857246328
20
152.5051416765728
30
0
40
0.99999999999999645
210
0
220
-0
230
1
100
AcDbArc
50
90
51
180
0
LINE
5
191
100
AcDbEntity
8
0
100
AcDbLine
10
51.273552042432087
20
148.81956625243819
30
0
11
54.45587382931258
21
152.61211107930339
31
0
0
ARC
5
192
100
AcDbEntity
8
0
100
AcDbCircle
10
62.527480377534836
20
151.0051416765728
30
0
40
2.5000000000000213
210
0
220
-0
230
1
100
AcDbArc
50
39.99999999995358
51
90.000000000005699
0
LINE
5
193
100
AcDbEntity
8
0
100
AcDbLine
10
56.370985967107075
20
153.50514139494101
30
0
11
56.749229592271099
21
153.50514139494101
31
0
0
ARC
5
194
100
AcDbEntity
8
0
100
AcDbCircle
10
154.7492318572485
20
24.092642463354533
30
0
40
1.0000000000000009
210
0
220
0
230
1
100
AcDbArc
50
-89.99999999999838
51
0
0
ARC
5
195
100
AcDbEntity
8
0
100
AcDbCircle
10
160.52748037753358
20
25.59264246335454
30
0
40
2.5000000000000044
210
0
220
0
230
1
100
AcDbArc
50
270.00000000000193
51
319.99999999999426
0
LINE
5
196
100
AcDbEntity
8
0
100
AcDbLine
10
149.27354947943232
20
27.778215254453809
30
0
11
152.45587126631281
21
23.98567601552406
31
0
0
LINE
5
197
100
AcDbEntity
8
0
100
AcDbLine
10
274.03672532457853
20
30.492640579847489
30
0
11
274.03672532457853
21
146.10514185836709
31
0
0
ARC
5
198
100
AcDbEntity
8
0
100
AcDbCircle
10
157.44923185724741
20
25.892642463354267
30
0
40
1.7000000000000171
210
0
220
0
230
1
100
AcDbArc
50
0
51
180
0
ARC
5
199
100
AcDbEntity
8
0
100
AcDbCircle
10
160.14923185724808
20
24.092642463354533
30
0
40
0.99999999999999645
210
0
220
0
230
1
100
AcDbArc
50
180
51
270
0
LINE
5
200
100
AcDbEntity
8
0
100
AcDbLine
10
159.14923445601011
20
25.89264466872612
30
0
11
159.14923445601011
21
24.092644001154106
31
0
0
LINE
5
201
100
AcDbEntity
8
0
100
AcDbLine
10
167.1569992722942
20
28.492643977312241
30
0
11
245.69611744303251
21
28.492643977312241
31
0
0
LINE
5
202
100
AcDbEntity
8
0
100
AcDbLine
10
154.74923447985191
20
23.092641974596184
30
0
11
154.37098340410731
21
23.092641974596184
31
0
0
ARC
5
203
100
AcDbEntity
8
0
100
AcDbCircle
10
147.7414608669103
20
26.492642463354631
30
0
40
2.0000000000000098
210
0
220
-0
230
1
100
AcDbArc
50
39.999999999952678
51
89.99999999994138
0
ARC
5
204
100
AcDbEntity
8
0
100
AcDbCircle
10
154.37098333695968
20
25.59264246335454
30
0
40
2.5000000000000093
210
0
220
0
230
1
100
AcDbArc
50
219.99999999996103
51
270.00000000001171
0
LINE
5
205
100
AcDbEntity
8
0
100
AcDbLine
10
160.5274875583126
20
23.092641974596184
30
0
11
160.149236482568
21
23.092641974596184
31
0
0
ARC
5
206
100
AcDbEntity
8
0
100
AcDbCircle
10
167.15700284758981
20
26.492642463355534
30
0
40
2.0000000000000773
210
0
220
-0
230
1
100
AcDbArc
50
90
51
139.99999999996004
0
LINE
5
207
100
AcDbEntity
8
0
100
AcDbLine
10
165.62490658182639
20
27.778215254453809
30
0
11
162.4425847949459
21
23.98567601552406
31
0
0
LINE
5
208
100
AcDbEntity
8
0
100
AcDbLine
10
155.74923650640983
20
25.89264466872612
30
0
11
155.74923650640983
21
24.092644001154106
31
0
0
LWPOLYLINE
5
209
100
AcDbEntity
8
0
100
AcDbPolyline
90
8
70
1
43
0.0
10
-63.73202308995053
20
69.392642751691668
42
-0.41421356237309503
10
-64.23202308995053
20
69.892642751691668
10
-64.23202308995053
20
82.892642751691668
42
-0.41421356237309503
10
-63.73202308995053
20
83.392642751691682
10
-50.732023089950516
20
83.392642751691653
42
-0.41421356237309503
10
-50.23202308995053
20
82.892642751691668
10
-50.232023089950523
20
69.892642751691668
42
-0.41421356237309503
10
-50.732023089950516
20
69.392642751691668
0
LWPOLYLINE
5
210
100
AcDbEntity
8
0
100
AcDbPolyline
90
8
70
1
43
0.0
10
-69.332023089950525
20
69.392642751691668
42
-0.41421356237309503
10
-69.832023089950525
20
69.892642751691668
10
-69.832023089950525
20
82.892642751691668
42
-0.41421356237309503
10
-69.332023089950525
20
83.392642751691682
10
-68.332023089950525
20
83.392642751691682
42
-0.41421356237309503
10
-67.832023089950525
20
82.892642751691668
10
-67.832023089950525
20
69.892642751691668
42
-0.41421356237309503
10
-68.332023089950525
20
69.392642751691668
0
LWPOLYLINE
5
211
100
AcDbEntity
8
0
100
AcDbPolyline
90
8
70
1
43
0.0
10
52.449226910049475
20
144.80514275169168
42
-0.41421356237309503
10
52.949226910049482
20
145.30514275169168
10
65.949226910049475
20
145.30514275169168
42
-0.41421356237309503
10
66.449226910049475
20
144.80514275169168
10
66.449226910049461
20
131.80514275169168
42
-0.41421356237309503
10
65.949226910049475
20
131.30514275169168
10
52.949226910049482
20
131.30514275169165
42
-0.41421356237309503
10
52.449226910049475
20
131.80514275169168
0
LWPOLYLINE
5
212
100
AcDbEntity
8
0
100
AcDbPolyline
90
8
70
1
43
0.0
10
-13.725773089950524
20
131.30514275169165
42
-0.41421356237309503
10
-14.225773089950522
20
131.80514275169168
10
-14.225773089950531
20
144.80514275169168
42
-0.41421356237309503
10
-13.725773089950524
20
145.30514275169168
10
-0.72577308995052547
20
145.30514275169168
42
-0.41421356237309503
10
-0.22577308995052725
20
144.80514275169168
10
-0.22577308995053613
20
131.80514275169168
42
-0.41421356237309503
10
-0.72577308995052547
20
131.30514275169168
0
LWPOLYLINE
5
213
100
AcDbEntity
8
0
100
AcDbPolyline
90
8
70
1
43
0.0
10
18.324226910049475
20
145.30514275169168
42
-0.41421356237309503
10
18.824226910049482
20
144.80514275169168
10
18.824226910049468
20
131.80514275169168
42
-0.41421356237309503
10
18.324226910049475
20
131.30514275169168
10
5.3242269100494699
20
131.30514275169165
42
-0.41421356237309503
10
4.8242269100494717
20
131.80514275169168
10
4.8242269100494628
20
144.80514275169168
42
-0.41421356237309503
10
5.3242269100494699
20
145.30514275169168
0
LWPOLYLINE
5
214
100
AcDbEntity
8
0
100
AcDbPolyline
90
8
70
1
43
0.0
10
-19.775773089950519
20
131.30514275169168
10
-32.775773089950526
20
131.30514275169165
42
-0.41421356237309503
10
-33.275773089950526
20
131.80514275169168
10
-33.275773089950533
20
144.80514275169168
42
-0.41421356237309503
10
-32.775773089950526
20
145.30514275169168
10
-19.775773089950519
20
145.30514275169168
42
-0.41421356237309503
10
-19.275773089950519
20
144.80514275169168
10
-19.27577308995053
20
131.80514275169168
42
-0.41421356237309503
0
LWPOLYLINE
5
215
100
AcDbEntity
8
0
100
AcDbPolyline
90
8
70
1
43
0.0
10
-57.875773089950528
20
131.30514275169168
10
-70.875773089950528
20
131.30514275169165
42
-0.41421356237309503
10
-71.375773089950513
20
131.80514275169168
10
-71.375773089950528
20
144.80514275169168
42
-0.41421356237309503
10
-70.875773089950528
20
145.30514275169168
10
-57.875773089950528
20
145.30514275169168
42
-0.41421356237309503
10
-57.375773089950528
20
144.80514275169168
10
-57.375773089950535
20
131.80514275169168
42
-0.41421356237309503
0
LWPOLYLINE
5
216
100
AcDbEntity
8
0
100
AcDbPolyline
90
8
70
1
43
0.0
10
37.874226910049479
20
131.80514275169168
42
-0.41421356237309503
10
37.374226910049487
20
131.30514275169168
10
24.374226910049479
20
131.30514275169168
42
-0.41421356237309503
10
23.874226910049494
20
131.80514275169168
10
23.874226910049472
20
144.80514275169168
42
-0.41421356237309503
10
24.374226910049479
20
145.30514275169168
10
37.374226910049487
20
145.30514275169168
42
-0.41421356237309503
10
37.874226910049494
20
144.80514275169168
0
LWPOLYLINE
5
217
100
AcDbEntity
8
0
100
AcDbPolyline
90
8
70
1
43
0.0
10
71.499226910049487
20
131.80514275169168
10
71.499226910049487
20
144.80514275169168
42
-0.41421356237309503
10
71.999226910049487
20
145.30514275169168
10
84.999226910049472
20
145.30514275169168
42
-0.41421356237309503
10
85.499226910049487
20
144.80514275169168
10
85.499226910049458
20
131.80514275169168
42
-0.41421356237309503
10
84.999226910049472
20
131.30514275169168
10
71.999226910049487
20
131.30514275169165
42
-0.41421356237309503
0
LWPOLYLINE
5
218
100
AcDbEntity
8
0
100
AcDbPolyline
90
8
70
1
43
0.0
10
151.67422691004947
20
145.30514275169168
10
138.67422691004947
20
145.30514275169168
42
0.41421356237309503
10
138.17422691004947
20
144.80514275169168
10
138.17422691004947
20
131.80514275169168
42
0.41421356237309503
10
138.67422691004947
20
131.30514275169168
10
151.67422691004947
20
131.30514275169168
42
0.41421356237309503
10
152.17422691004947
20
131.80514275169168
10
152.17422691004947
20
144.80514275169168
42
0.41421356237309503
0
LWPOLYLINE
5
219
100
AcDbEntity
8
0
100
AcDbPolyline
90
8
70
1
43
0.0
10
170.72422691004948
20
145.30514275169168
42
-0.41421356237309503
10
171.22422691004948
20
144.80514275169168
10
171.22422691004948
20
131.80514275169168
42
-0.41421356237309503
10
170.72422691004948
20
131.30514275169168
10
157.72422691004948
20
131.30514275169165
42
-0.41421356237309503
10
157.22422691004948
20
131.80514275169168
10
157.22422691004948
20
144.80514275169168
42
-0.41421356237309503
10
157.72422691004948
20
145.30514275169168
0
LWPOLYLINE
5
220
100
AcDbEntity
8
0
100
AcDbPolyline
90
8
70
1
43
0.0
10
208.8242269100495
20
145.30514275169168
10
195.8242269100495
20
145.30514275169168
42
0.41421356237309503
10
195.3242269100495
20
144.80514275169168
10
195.3242269100495
20
131.80514275169168
42
0.41421356237309503
10
195.8242269100495
20
131.30514275169168
10
208.8242269100495
20
131.30514275169168
42
0.41421356237309503
10
209.3242269100495
20
131.80514275169168
10
209.3242269100495
20
144.80514275169168
42
0.41421356237309503
0
LWPOLYLINE
5
221
100
AcDbEntity
8
0
100
AcDbPolyline
90
8
70
1
43
0.0
10
251.68672691004943
20
131.30514275169168
10
238.68672691004946
20
131.30514275169165
42
-0.41421356237309503
10
238.18672691004946
20
131.80514275169168
10
238.18672691004946
20
144.80514275169168
42
-0.41421356237309503
10
238.68672691004946
20
145.30514275169168
10
251.68672691004943
20
145.30514275169165
42
-0.41421356237309503
10
252.1867269100494
20
144.80514275169168
10
252.1867269100494
20
131.80514275169168
42
-0.41421356237309503
0
LWPOLYLINE
5
222
100
AcDbEntity
8
0
100
AcDbPolyline
90
8
70
1
43
0.0
10
189.77422691004949
20
145.30514275169168
10
176.77422691004949
20
145.30514275169168
42
0.41421356237309503
10
176.27422691004949
20
144.80514275169168
10
176.27422691004949
20
131.80514275169168
42
0.41421356237309503
10
176.77422691004949
20
131.30514275169168
10
189.77422691004949
20
131.30514275169168
42
0.41421356237309503
10
190.27422691004949
20
131.80514275169168
10
190.27422691004949
20
144.80514275169168
42
0.41421356237309503
0
LWPOLYLINE
5
223
100
AcDbEntity
8
0
100
AcDbPolyline
90
8
70
1
43
0.0
10
104.54922691004944
20
131.80514275169168
42
-0.41421356237309503
10
104.04922691004944
20
131.30514275169168
10
91.04922691004947
20
131.30514275169165
42
-0.41421356237309503
10
90.54922691004947
20
131.80514275169168
10
90.54922691004947
20
144.80514275169168
42
-0.41421356237309503
10
91.04922691004947
20
145.30514275169168
10
104.04922691004944
20
145.30514275169168
42
-0.41421356237309503
10
104.54922691004946
20
144.80514275169168
0
LWPOLYLINE
5
224
100
AcDbEntity
8
0
100
AcDbPolyline
90
8
70
1
43
0.0
10
123.0992269100495
20
145.30514275169168
10
110.09922691004948
20
145.30514275169168
42
0.41421356237309503
10
109.59922691004948
20
144.80514275169168
10
109.59922691004948
20
131.80514275169168
42
0.41421356237309503
10
110.09922691004948
20
131.30514275169168
10
123.0992269100495
20
131.30514275169168
42
0.41421356237309503
10
123.59922691004951
20
131.80514275169168
10
123.59922691004951
20
144.80514275169168
42
0.41421356237309503
0
LWPOLYLINE
5
225
100
AcDbEntity
8
0
100
AcDbPolyline
90
8
70
1
43
0.0
10
219.1367269100495
20
131.80514275169168
10
219.1367269100495
20
144.80514275169168
42
-0.41421356237309503
10
219.6367269100495
20
145.30514275169168
10
232.6367269100495
20
145.30514275169168
42
-0.41421356237309503
10
233.1367269100495
20
144.80514275169168
10
233.13672691004945
20
131.80514275169168
42
-0.41421356237309503
10
232.6367269100495
20
131.30514275169168
10
219.6367269100495
20
131.30514275169165
42
-0.41421356237309503
0
LWPOLYLINE
5
226
100
AcDbEntity
8
0
100
AcDbPolyline
90
8
70
1
43
0.0
10
257.23672691004947
20
144.80514275169168
42
-0.41421356237309503
10
257.73672691004947
20
145.30514275169168
10
270.73672691004947
20
145.30514275169165
42
-0.41421356237309503
10
271.23672691004941
20
144.80514275169168
10
271.23672691004941
20
131.80514275169168
42
-0.41421356237309503
10
270.73672691004947
20
131.30514275169168
10
257.73672691004947
20
131.30514275169168
42
-0.41421356237309503
10
257.23672691004947
20
131.80514275169168
0
LWPOLYLINE
5
227
100
AcDbEntity
8
0
100
AcDbPolyline
90
8
70
1
43
0.0
10
-70.875773089950528
20
107.49264275169168
42
-0.41421356237309503
10
-71.375773089950513
20
107.99264275169166
10
-71.375773089950513
20
120.99264275169168
42
-0.41421356237309503
10
-70.875773089950528
20
121.49264275169166
10
-57.875773089950528
20
121.49264275169166
42
-0.41421356237309503
10
-57.375773089950528
20
120.99264275169168
10
-57.375773089950535
20
107.99264275169166
42
-0.41421356237309503
10
-57.875773089950528
20
107.49264275169168
0
LWPOLYLINE
5
228
100
AcDbEntity
8
0
100
AcDbPolyline
90
10
70
1
43
0.0
10
201.36222691004946
20
106.99264275169168
10
201.36222691004946
20
119.99264275169168
10
201.36222691004946
20
121.99264275169165
42
-0.41421356237309503
10
201.86222691004946
20
122.49264275169166
10
207.61222691004946
20
122.49264275169168
42
-0.4142135623730846
10
208.11222691004951
20
121.99264275169165
10
208.11222691004946
20
119.99264275169168
10
208.11222691004946
20
106.99264275169168
42
-0.41421356237309503
10
207.61222691004946
20
106.49264275169166
10
201.86222691004946
20
106.49264275169166
42
-0.41421356237309503
0
LWPOLYLINE
5
229
100
AcDbEntity
8
0
100
AcDbPolyline
90
8
70
1
43
0.0
10
185.79922691004947
20
120.99264275169168
42
-0.41421356237309503
10
186.29922691004947
20
121.49264275169166
10
199.29922691004947
20
121.49264275169168
42
-0.41421356237309503
10
199.79922691004947
20
120.99264275169168
10
199.79922691004944
20
107.99264275169166
42
-0.41421356237309503
10
199.29922691004947
20
107.49264275169168
10
186.29922691004947
20
107.49264275169166
42
-0.41421356237309503
10
185.79922691004947
20
107.99264275169166
0
LWPOLYLINE
5
230
100
AcDbEntity
8
0
100
AcDbPolyline
90
8
70
1
43
0.0
10
252.1867269100494
20
107.99264275169166
42
-0.41421356237309503
10
251.68672691004943
20
107.49264275169168
10
238.68672691004946
20
107.49264275169166
42
-0.41421356237309503
10
238.18672691004946
20
107.99264275169166
10
238.18672691004949
20
120.99264275169168
42
-0.41421356237309503
10
238.68672691004946
20
121.49264275169166
10
251.68672691004943
20
121.49264275169165
42
-0.41421356237309503
10
252.1867269100494
20
120.99264275169168
0
LWPOLYLINE
5
231
100
AcDbEntity
8
0
100
AcDbPolyline
90
8
70
1
43
0.0
10
271.23672691004947
20
107.99264275169166
10
271.23672691004947
20
120.99264275169168
42
0.41421356237309503
10
270.73672691004947
20
121.49264275169166
10
257.73672691004947
20
121.49264275169166
42
0.41421356237309503
10
257.23672691004947
20
120.99264275169168
10
257.23672691004947
20
107.99264275169166
42
0.41421356237309503
10
257.73672691004947
20
107.49264275169168
10
270.73672691004947
20
107.49264275169168
42
0.41421356237309503
0
LWPOLYLINE
5
232
100
AcDbEntity
8
0
100
AcDbPolyline
90
10
70
1
43
0.0
10
184.23622691004948
20
106.99264275169168
42
-0.41421356237309503
10
183.73622691004948
20
106.49264275169166
10
177.98622691004948
20
106.49264275169166
42
-0.41421356237309503
10
177.48622691004948
20
106.99264275169168
10
177.48622691004948
20
119.99264275169168
10
177.48622691004948
20
121.99264275169165
42
-0.41421356237309503
10
177.98622691004948
20
122.49264275169166
10
183.73622691004948
20
122.49264275169165
42
-0.4142135623730846
10
184.23622691004948
20
121.99264275169165
10
184.23622691004948
20
119.99264275169168
0
LWPOLYLINE
5
233
100
AcDbEntity
8
0
100
AcDbPolyline
90
8
70
1
43
0.0
10
219.6367269100495
20
107.49264275169166
42
-0.41421356237309503
10
219.1367269100495
20
107.99264275169166
10
219.13672691004956
20
120.99264275169168
42
-0.41421356237309503
10
219.6367269100495
20
121.49264275169166
10
232.6367269100495
20
121.49264275169168
42
-0.41421356237309503
10
233.1367269100495
20
120.99264275169168
10
233.13672691004945
20
107.99264275169166
42
-0.41421356237309503
10
232.6367269100495
20
107.49264275169168
0
LWPOLYLINE
5
234
100
AcDbEntity
8
0
100
AcDbPolyline
90
10
70
1
43
0.0
10
-52.613273089950525
20
88.942642751691665
10
-52.613273089950525
20
101.94264275169168
42
0.41421356237309503
10
-53.113273089950525
20
102.44264275169166
10
-66.113273089950525
20
102.44264275169166
10
-69.613273089950525
20
102.44264275169166
42
0.41421356237307422
10
-70.113273089950525
20
101.94264275169166
10
-70.113273089950525
20
88.942642751691665
42
0.41421356237310542
10
-69.613273089950525
20
88.442642751691665
10
-66.113273089950525
20
88.442642751691665
10
-53.113273089950525
20
88.442642751691665
42
0.41421356237309503
0
LWPOLYLINE
5
235
100
AcDbEntity
8
0
100
AcDbPolyline
90
8
70
1
43
0.0
10
-47.063273089950528
20
50.34264275169167
42
-0.41421356237309503
10
-47.563273089950528
20
50.84264275169167
10
-47.563273089950535
20
63.84264275169167
42
-0.41421356237309503
10
-47.063273089950528
20
64.342642751691685
10
-34.063273089950521
20
64.342642751691685
42
-0.41421356237309503
10
-33.563273089950521
20
63.84264275169167
10
-33.563273089950513
20
50.84264275169167
42
-0.41421356237309503
10
-34.063273089950521
20
50.342642751691656
0
LWPOLYLINE
5
236
100
AcDbEntity
8
0
100
AcDbPolyline
90
8
70
1
43
0.0
10
-55.494523089950519
20
64.34264275169167
10
-68.494523089950519
20
64.34264275169167
42
0.41421356237309503
10
-68.994523089950533
20
63.84264275169167
10
-68.994523089950533
20
50.84264275169167
42
0.41421356237309503
10
-68.494523089950519
20
50.342642751691656
10
-55.494523089950519
20
50.342642751691656
42
0.41421356237309503
10
-54.994523089950526
20
50.84264275169167
10
-54.994523089950526
20
63.84264275169167
42
0.41421356237309503
0
LWPOLYLINE
5
237
100
AcDbEntity
8
0
100
AcDbPolyline
90
8
70
1
43
0.0
10
179.15547691004949
20
50.342642751691656
42
-0.41421356237309503
10
178.65547691004949
20
50.84264275169167
10
178.65547691004949
20
63.84264275169167
42
-0.41421356237309503
10
179.15547691004949
20
64.342642751691685
10
192.15547691004946
20
64.342642751691685
42
-0.41421356237309503
10
192.65547691004946
20
63.84264275169167
10
192.65547691004946
20
50.84264275169167
42
-0.41421356237309503
10
192.15547691004946
20
50.342642751691656
0
LWPOLYLINE
5
238
100
AcDbEntity
8
0
100
AcDbPolyline
90
8
70
1
43
0.0
10
233.1367269100495
20
50.84264275169167
10
233.1367269100495
20
63.84264275169167
42
0.41421356237309503
10
232.6367269100495
20
64.34264275169167
10
219.6367269100495
20
64.34264275169167
42
0.41421356237309503
10
219.1367269100495
20
63.84264275169167
10
219.1367269100495
20
50.84264275169167
42
0.41421356237309503
10
219.6367269100495
20
50.342642751691656
10
232.6367269100495
20
50.342642751691656
42
0.41421356237309503
0
LWPOLYLINE
5
239
100
AcDbEntity
8
0
100
AcDbPolyline
90
10
70
1
43
0.0
10
200.9684769100495
20
49.84264275169167
42
-0.41421356237309503
10
200.4684769100495
20
49.342642751691663
10
194.7184769100495
20
49.342642751691663
42
-0.41421356237309503
10
194.2184769100495
20
49.84264275169167
10
194.2184769100495
20
62.842642751691677
10
194.2184769100495
20
64.842642751691685
42
-0.41421356237313145
10
194.7184769100495
20
65.34264275169167
10
200.4684769100495
20
65.342642751691699
42
-0.41421356237312101
10
200.96847691004953
20
64.842642751691685
10
200.9684769100495
20
62.842642751691677
0
LWPOLYLINE
5
240
100
AcDbEntity
8
0
100
AcDbPolyline
90
10
70
1
43
0.0
10
177.09247691004947
20
49.84264275169167
42
-0.41421356237309503
10
176.59247691004947
20
49.342642751691663
10
170.84247691004947
20
49.342642751691663
42
-0.41421356237309503
10
170.34247691004947
20
49.84264275169167
10
170.34247691004947
20
62.842642751691677
10
170.34247691004941
20
64.842642751691685
42
-0.41421356237312101
10
170.84247691004947
20
65.34264275169167
10
176.59247691004947
20
65.34264275169167
42
-0.41421356237313145
10
177.09247691004947
20
64.842642751691685
10
177.09247691004947
20
62.842642751691677
0
LWPOLYLINE
5
241
100
AcDbEntity
8
0
100
AcDbPolyline
90
8
70
1
43
0.0
10
-1.3882730899505269
20
44.792642751691659
42
-0.41421356237309503
10
-0.88827308995051979
20
45.292642751691673
10
0.11172691004948551
20
45.292642751691659
42
-0.41421356237309503
10
0.61172691004948376
20
44.792642751691659
10
0.61172691004949264
20
31.792642751691673
42
-0.41421356237309503
10
0.11172691004948554
20
31.292642751691666
10
-0.88827308995051979
20
31.292642751691673
42
-0.41421356237309503
10
-1.388273089950518
20
31.792642751691673
0
LWPOLYLINE
5
242
100
AcDbEntity
8
0
100
AcDbPolyline
90
8
70
1
43
0.0
10
-47.513273089950523
20
45.292642751691659
42
-0.41421356237309503
10
-47.01327308995053
20
44.792642751691659
10
-47.013273089950516
20
31.792642751691673
42
-0.41421356237309503
10
-47.513273089950523
20
31.292642751691666
10
-48.513273089950523
20
31.292642751691673
42
-0.41421356237309503
10
-49.013273089950516
20
31.792642751691673
10
-49.01327308995053
20
44.792642751691659
42
-0.41421356237309503
10
-48.513273089950523
20
45.292642751691673
0
LWPOLYLINE
5
243
100
AcDbEntity
8
0
100
AcDbPolyline
90
8
70
1
43
0.0
10
271.23672691004947
20
50.84264275169167
10
271.23672691004947
20
63.84264275169167
42
0.41421356237309503
10
270.73672691004947
20
64.34264275169167
10
257.73672691004947
20
64.342642751691685
42
0.41421356237309503
10
257.23672691004947
20
63.84264275169167
10
257.23672691004947
20
50.84264275169167
42
0.41421356237309503
10
257.73672691004947
20
50.342642751691656
10
270.73672691004947
20
50.342642751691656
42
0.41421356237309503
0
LWPOLYLINE
5
244
100
AcDbEntity
8
0
100
AcDbPolyline
90
8
70
1
43
0.0
10
-72.213273089950519
20
31.792642751691673
10
-72.213273089950533
20
44.792642751691659
42
-0.41421356237309503
10
-71.713273089950519
20
45.292642751691673
10
-70.713273089950519
20
45.292642751691659
42
-0.41421356237309503
10
-70.213273089950519
20
44.792642751691659
10
-70.213273089950519
20
31.792642751691673
42
-0.41421356237309503
10
-70.713273089950519
20
31.292642751691666
10
-71.713273089950519
20
31.292642751691673
42
-0.41421356237309503
0
LWPOLYLINE
5
245
100
AcDbEntity
8
0
100
AcDbPolyline
90
8
70
1
43
0.0
10
-29.300773089950525
20
45.292642751691673
10
-42.300773089950525
20
45.292642751691673
42
0.41421356237309503
10
-42.800773089950525
20
44.792642751691659
10
-42.800773089950525
20
31.792642751691673
42
0.41421356237309503
10
-42.300773089950525
20
31.292642751691666
10
-29.300773089950525
20
31.292642751691666
42
0.41421356237309503
10
-28.800773089950525
20
31.792642751691673
10
-28.800773089950525
20
44.792642751691659
42
0.41421356237309503
0
LWPOLYLINE
5
246
100
AcDbEntity
8
0
100
AcDbPolyline
90
8
70
1
43
0.0
10
-66.613273089950539
20
44.792642751691659
42
-0.41421356237309503
10
-66.113273089950525
20
45.292642751691673
10
-53.113273089950525
20
45.292642751691659
42
-0.41421356237309503
10
-52.613273089950525
20
44.792642751691659
10
-52.613273089950511
20
31.792642751691673
42
-0.41421356237309503
10
-53.113273089950525
20
31.292642751691666
10
-66.113273089950525
20
31.292642751691673
42
-0.41421356237309503
10
-66.613273089950525
20
31.792642751691673
0
LWPOLYLINE
5
247
100
AcDbEntity
8
0
100
AcDbPolyline
90
8
70
1
43
0.0
10
-5.4882730899505283
20
45.292642751691673
10
-18.488273089950518
20
45.292642751691673
42
0.41421356237309503
10
-18.988273089950518
20
44.792642751691659
10
-18.988273089950518
20
31.792642751691673
42
0.41421356237309503
10
-18.488273089950518
20
31.292642751691666
10
-5.4882730899505283
20
31.292642751691666
42
0.41421356237309503
10
-4.9882730899505301
20
31.792642751691673
10
-4.9882730899505301
20
44.792642751691659
42
0.41421356237309503
0
LWPOLYLINE
5
248
100
AcDbEntity
8
0
100
AcDbPolyline
90
8
70
1
43
0.0
10
251.68672691004943
20
50.342642751691656
10
238.68672691004946
20
50.342642751691656
42
-0.41421356237309503
10
238.18672691004946
20
50.84264275169167
10
238.18672691004949
20
63.84264275169167
42
-0.41421356237309503
10
238.68672691004946
20
64.34264275169167
10
251.68672691004943
20
64.342642751691642
42
-0.41421356237309503
10
252.1867269100494
20
63.84264275169167
10
252.18672691004943
20
50.84264275169167
42
-0.41421356237309503
0
LWPOLYLINE
5
249
100
AcDbEntity
8
0
100
AcDbPolyline
90
9
70
1
43
0.0
10
129.49922691004952
20
30.792642751691677
10
129.49922691004952
20
43.792642751691666
10
129.49922691004952
20
45.792642751691666
42
0.41421356237308982
10
128.99922691004949
20
46.292642751691666
10
123.2492269100495
20
46.292642751691666
42
0.41421356237308982
10
122.74922691004949
20
45.792642751691666
10
122.74922691004949
20
30.792642751691677
42
0.41421356237309503
10
123.2492269100495
20
30.29264275169167
10
128.99922691004949
20
30.29264275169167
42
0.41421356237309503
0
LWPOLYLINE
5
250
100
AcDbEntity
8
0
100
AcDbPolyline
90
8
70
1
43
0.0
10
156.93672691004949
20
31.792642751691673
10
156.93672691004949
20
44.792642751691659
42
0.41421356237309503
10
156.43672691004949
20
45.292642751691673
10
143.43672691004946
20
45.292642751691673
42
0.41421356237309503
10
142.93672691004952
20
44.792642751691659
10
142.93672691004952
20
31.792642751691673
42
0.41421356237309503
10
143.43672691004946
20
31.292642751691666
10
156.43672691004949
20
31.292642751691666
42
0.41421356237309503
0
LWPOLYLINE
5
251
100
AcDbEntity
8
0
100
AcDbPolyline
90
8
70
1
43
0.0
10
160.53672691004948
20
31.792642751691673
10
160.53672691004948
20
44.792642751691659
42
-0.41421356237309503
10
161.03672691004948
20
45.292642751691673
10
162.03672691004948
20
45.292642751691673
42
-0.41421356237309503
10
162.53672691004948
20
44.792642751691659
10
162.53672691004948
20
31.792642751691673
42
-0.41421356237309503
10
162.03672691004948
20
31.292642751691666
10
161.03672691004948
20
31.292642751691666
42
-0.41421356237309503
0
LWPOLYLINE
5
252
100
AcDbEntity
8
0
100
AcDbPolyline
90
8
70
1
43
0.0
10
180.74922691004952
20
31.792642751691673
10
180.74922691004952
20
44.792642751691659
42
0.41421356237309503
10
180.24922691004949
20
45.292642751691673
10
167.24922691004949
20
45.292642751691673
42
0.41421356237309503
10
166.74922691004949
20
44.792642751691659
10
166.74922691004949
20
31.792642751691673
42
0.41421356237309503
10
167.24922691004949
20
31.292642751691666
10
180.24922691004949
20
31.292642751691666
42
0.41421356237309503
0
LWPOLYLINE
5
253
100
AcDbEntity
8
0
100
AcDbPolyline
90
8
70
1
43
0.0
10
75.474226910049481
20
31.292642751691666
10
62.474226910049488
20
31.292642751691666
42
-0.41421356237309503
10
61.974226910049481
20
31.792642751691673
10
61.974226910049481
20
44.792642751691659
42
-0.41421356237309503
10
62.474226910049488
20
45.292642751691673
10
75.474226910049481
20
45.292642751691673
42
-0.41421356237309503
10
75.974226910049481
20
44.792642751691659
10
75.974226910049481
20
31.792642751691673
42
-0.41421356237309503
0
LWPOLYLINE
5
254
100
AcDbEntity
8
0
100
AcDbPolyline
90
8
70
1
43
0.0
10
139.33672691004949
20
31.792642751691673
10
139.33672691004949
20
44.792642751691659
42
0.41421356237309503
10
138.83672691004949
20
45.292642751691673
10
137.83672691004949
20
45.292642751691673
42
0.41421356237309503
10
137.33672691004949
20
44.792642751691659
10
137.33672691004949
20
31.792642751691673
42
0.41421356237309503
10
137.83672691004949
20
31.292642751691666
10
138.83672691004949
20
31.292642751691666
42
0.41421356237309503
0
LWPOLYLINE
5
255
100
AcDbEntity
8
0
100
AcDbPolyline
90
9
70
1
43
0.0
10
14.69922691004947
20
30.29264275169167
10
8.949226910049477
20
30.29264275169167
42
-0.41421356237309503
10
8.4492269100494699
20
30.792642751691677
10
8.4492269100494699
20
43.792642751691666
10
8.4492269100494735
20
45.792642751691666
42
-0.41421356237309437
10
8.9492269100494699
20
46.292642751691666
10
14.699226910049477
20
46.292642751691666
42
-0.41421356237309631
10
15.199226910049477
20
45.792642751691666
10
15.199226910049477
20
30.792642751691677
42
-0.41421356237309503
0
LWPOLYLINE
5
256
100
AcDbEntity
8
0
100
AcDbPolyline
90
8
70
1
43
0.0
10
-24.588273089950519
20
31.792642751691673
10
-24.58827308995053
20
44.792642751691659
42
-0.41421356237309503
10
-24.088273089950523
20
45.292642751691673
10
-23.088273089950519
20
45.292642751691659
42
-0.41421356237309503
10
-22.588273089950519
20
44.792642751691659
10
-22.588273089950512
20
31.792642751691673
42
-0.41421356237309503
10
-23.088273089950519
20
31.292642751691666
10
-24.088273089950523
20
31.292642751691673
42
-0.41421356237309503
0
LWPOLYLINE
5
257
100
AcDbEntity
8
0
100
AcDbPolyline
90
8
70
1
43
0.0
10
204.56172691004946
20
31.792642751691673
10
204.56172691004946
20
44.792642751691659
42
0.41421356237309503
10
204.06172691004946
20
45.292642751691673
10
191.06172691004946
20
45.292642751691673
42
0.41421356237309503
10
190.56172691004946
20
44.792642751691659
10
190.56172691004946
20
31.792642751691673
42
0.41421356237309503
10
191.06172691004946
20
31.292642751691666
10
204.06172691004946
20
31.292642751691666
42
0.41421356237309503
0
LWPOLYLINE
5
258
100
AcDbEntity
8
0
100
AcDbPolyline
90
8
70
1
43
0.0
10
208.16172691004948
20
31.792642751691673
10
208.16172691004948
20
44.792642751691659
42
-0.41421356237309503
10
208.66172691004948
20
45.292642751691673
10
209.66172691004948
20
45.292642751691631
42
-0.41421356237309503
10
210.16172691004948
20
44.792642751691659
10
210.16172691004951
20
31.792642751691673
42
-0.41421356237309503
10
209.66172691004948
20
31.292642751691666
10
208.66172691004948
20
31.292642751691666
42
-0.41421356237309503
0
LWPOLYLINE
5
259
100
AcDbEntity
8
0
100
AcDbPolyline
90
8
70
1
43
0.0
10
233.1367269100495
20
31.792642751691673
10
233.1367269100495
20
44.792642751691659
42
0.41421356237309503
10
232.6367269100495
20
45.292642751691673
10
219.6367269100495
20
45.292642751691673
42
0.41421356237309503
10
219.1367269100495
20
44.792642751691659
10
219.1367269100495
20
31.792642751691673
42
0.41421356237309503
10
219.6367269100495
20
31.292642751691666
10
232.6367269100495
20
31.292642751691666
42
0.41421356237309503
0
LWPOLYLINE
5
260
100
AcDbEntity
8
0
100
AcDbPolyline
90
8
70
1
43
0.0
10
186.96172691004949
20
31.792642751691673
42
-0.41421356237309503
10
186.46172691004949
20
31.292642751691666
10
185.46172691004949
20
31.292642751691702
42
-0.41421356237309503
10
184.96172691004949
20
31.792642751691673
10
184.96172691004946
20
44.792642751691659
42
-0.41421356237309503
10
185.46172691004949
20
45.292642751691673
10
186.46172691004949
20
45.292642751691673
42
-0.41421356237309503
10
186.96172691004949
20
44.792642751691659
0
LWPOLYLINE
5
261
100
AcDbEntity
8
0
100
AcDbPolyline
90
8
70
1
43
0.0
10
238.18672691004946
20
44.792642751691659
42
-0.41421356237309503
10
238.68672691004946
20
45.292642751691673
10
251.68672691004943
20
45.292642751691702
42
-0.41421356237309503
10
252.18672691004946
20
44.792642751691659
10
252.18672691004943
20
31.792642751691673
42
-0.41421356237309503
10
251.68672691004943
20
31.292642751691666
10
238.68672691004946
20
31.292642751691666
42
-0.41421356237309503
10
238.18672691004946
20
31.792642751691673
0
LWPOLYLINE
5
262
100
AcDbEntity
8
0
100
AcDbPolyline
90
8
70
1
43
0.0
10
271.23672691004947
20
31.792642751691673
42
-0.41421356237309503
10
270.73672691004947
20
31.292642751691666
10
257.73672691004947
20
31.292642751691702
42
-0.41421356237309503
10
257.23672691004947
20
31.792642751691673
10
257.23672691004947
20
44.792642751691659
42
-0.41421356237309503
10
257.73672691004947
20
45.292642751691673
10
270.73672691004947
20
45.292642751691702
42
-0.41421356237309503
10
271.23672691004947
20
44.792642751691659
0
LWPOLYLINE
5
263
100
AcDbEntity
8
0
100
AcDbPolyline
90
8
70
1
43
0.0
10
238.68672691004946
20
88.442642751691665
42
-0.41421356237309503
10
238.18672691004946
20
88.942642751691665
10
238.18672691004949
20
101.94264275169168
42
-0.41421356237309503
10
238.68672691004946
20
102.44264275169166
10
251.68672691004943
20
102.44264275169172
42
-0.41421356237309503
10
252.18672691004946
20
101.94264275169168
10
252.18672691004943
20
88.942642751691665
42
-0.41421356237309503
10
251.68672691004943
20
88.442642751691665
0
LWPOLYLINE
5
264
100
AcDbEntity
8
0
100
AcDbPolyline
90
8
70
1
43
0.0
10
206.94297691004948
20
79.417642751691673
10
206.94297691004948
20
92.417642751691673
42
0.41421356237309503
10
206.44297691004948
20
92.917642751691659
10
193.44297691004948
20
92.917642751691659
42
0.41421356237309503
10
192.94297691004945
20
92.417642751691673
10
192.94297691004948
20
79.417642751691673
42
0.41421356237309503
10
193.44297691004948
20
78.917642751691673
10
206.44297691004948
20
78.917642751691673
42
0.41421356237309503
0
LWPOLYLINE
5
265
100
AcDbEntity
8
0
100
AcDbPolyline
90
8
70
1
43
0.0
10
219.6367269100495
20
88.442642751691665
42
-0.41421356237309503
10
219.1367269100495
20
88.942642751691665
10
219.13672691004956
20
101.94264275169168
42
-0.41421356237309503
10
219.6367269100495
20
102.44264275169166
10
232.6367269100495
20
102.44264275169169
42
-0.41421356237309503
10
233.1367269100495
20
101.94264275169168
10
233.1367269100495
20
88.942642751691665
42
-0.41421356237309503
10
232.6367269100495
20
88.442642751691665
0
LWPOLYLINE
5
266
100
AcDbEntity
8
0
100
AcDbPolyline
90
10
70
1
43
0.0
10
192.44297691004948
20
70.604642751691657
42
-0.41421356237309503
10
191.94297691004948
20
71.104642751691671
10
191.94297691004948
20
76.854642751691671
42
-0.41421356237309503
10
192.44297691004948
20
77.354642751691671
10
205.44297691004948
20
77.354642751691671
10
207.44297691004948
20
77.354642751691671
42
-0.41421356237313145
10
207.94297691004948
20
76.854642751691671
10
207.94297691004948
20
71.104642751691671
42
-0.41421356237313145
10
207.44297691004948
20
70.604642751691671
10
205.44297691004948
20
70.604642751691671
0
LWPOLYLINE
5
267
100
AcDbEntity
8
0
100
AcDbPolyline
90
10
70
1
43
0.0
10
191.94297691004948
20
100.73064275169166
42
-0.41421356237309503
10
192.44297691004948
20
101.23064275169168
10
205.44297691004948
20
101.23064275169168
10
207.44297691004948
20
101.23064275169168
42
-0.41421356237313667
10
207.94297691004948
20
100.73064275169166
10
207.94297691004948
20
94.980642751691676
42
-0.41421356237313667
10
207.44297691004948
20
94.480642751691661
10
205.44297691004948
20
94.480642751691661
10
192.44297691004948
20
94.480642751691661
42
-0.41421356237309503
10
191.94297691004948
20
94.980642751691676
0
LWPOLYLINE
5
268
100
AcDbEntity
8
0
100
AcDbPolyline
90
8
70
1
43
0.0
10
257.23672691004947
20
101.94264275169168
42
-0.41421356237309503
10
257.73672691004947
20
102.44264275169166
10
270.73672691004947
20
102.44264275169165
42
-0.41421356237309503
10
271.23672691004941
20
101.94264275169168
10
271.23672691004947
20
88.942642751691665
42
-0.41421356237309503
10
270.73672691004947
20
88.442642751691665
10
257.73672691004947
20
88.442642751691693
42
-0.41421356237309503
10
257.23672691004947
20
88.942642751691665
0
LWPOLYLINE
5
269
100
AcDbEntity
8
0
100
AcDbPolyline
90
28
70
1
43
0.0
10
-30.263273089950502
20
48.09264275169167
10
167.04247691004946
20
48.092642751691692
42
0.41421356237312101
10
167.54247691004946
20
48.59264275169167
10
167.5424769100494
20
66.36764275169169
42
-0.41421356237312101
10
168.04247691004946
20
66.86764275169169
10
189.64297691004947
20
66.86764275169169
42
0.41421356237313145
10
190.14297691004947
20
67.367642751691676
10
190.14297691004947
20
104.46764275169167
42
0.41421356237309503
10
189.64297691004947
20
104.96764275169168
10
175.18622691004947
20
104.96764275169168
42
-0.41421356237309503
10
174.68622691004947
20
105.46764275169168
10
174.68622691004947
20
128.00514275169166
42
0.41421356237313667
10
174.18622691004944
20
128.50514275169166
10
-54.075773089950523
20
128.50514275169166
42
0.41421356237308982
10
-54.575773089950523
20
128.00514275169166
10
-54.575773089950523
20
105.46764275169167
42
0.41421356237308982
10
-54.075773089950523
20
104.96764275169167
10
-50.313273089950521
20
104.96764275169167
42
-0.41421356237308982
10
-49.813273089950521
20
104.46764275169166
10
-49.813273089950521
20
86.417642751691673
42
0.414213562373069
10
-49.313273089950521
20
85.917642751691673
10
-47.932023089950526
20
85.917642751691673
42
-0.41421356237307422
10
-47.432023089950519
20
85.417642751691659
10
-47.432023089950526
20
67.367642751691676
42
0.41421356237310542
10
-46.932023089950533
20
66.86764275169169
10
-31.26327308995052
20
66.867642751691676
42
-0.41421356237309764
10
-30.763273089950523
20
66.36764275169169
10
-30.763273089950523
20
48.59264275169167
42
0.41421356237308721
0
LWPOLYLINE
5
270
100
AcDbEntity
8
0
100
AcDbPolyline
90
9
70
1
43
0.0
10
-52.32577308995053
20
144.80514275169168
10
-52.32577308995053
20
138.30514275169168
10
-52.32577308995053
20
131.80514275169168
42
0.41421356237305862
10
-51.82577308995053
20
131.30514275169168
10
-38.825773089950523
20
131.30514275169168
42
0.414213562373069
10
-38.325773089950523
20
131.80514275169168
10
-38.325773089950523
20
144.80514275169168
42
0.41421356237308982
10
-38.825773089950523
20
145.30514275169168
10
-51.82577308995053
20
145.30514275169168
42
0.41421356237308982
0
LWPOLYLINE
5
271
100
AcDbEntity
8
0
100
AcDbPolyline
90
9
70
1
43
0.0
10
42.924226910049498
20
144.80514275169168
10
42.924226910049498
20
138.30514275169168
10
42.924226910049498
20
131.80514275169168
42
0.41421356237305862
10
43.424226910049491
20
131.30514275169168
10
46.899226910049478
20
131.30514275169168
42
0.414213562373069
10
47.399226910049478
20
131.80514275169168
10
47.399226910049478
20
144.80514275169168
42
0.41421356237308982
10
46.899226910049478
20
145.30514275169168
10
43.424226910049491
20
145.30514275169168
42
0.41421356237308982
0
LWPOLYLINE
5
272
100
AcDbEntity
8
0
100
AcDbPolyline
90
9
70
1
43
0.0
10
128.64922691004952
20
144.80514275169168
10
128.64922691004952
20
138.30514275169168
10
128.64922691004952
20
131.80514275169168
42
0.4142135623730534
10
129.14922691004952
20
131.30514275169168
10
132.62422691004946
20
131.30514275169168
42
0.4142135623730534
10
133.12422691004946
20
131.80514275169168
10
133.12422691004946
20
144.80514275169168
42
0.41421356237307422
10
132.62422691004946
20
145.30514275169168
10
129.14922691004952
20
145.30514275169168
42
0.41421356237307422
0
LWPOLYLINE
5
273
100
AcDbEntity
8
0
100
AcDbPolyline
90
5
70
1
43
0.0
10
-57.375773089950535
20
126.54264275169167
10
-64.375773089950542
20
126.54264275169167
10
-71.375773089950528
20
126.54264275169167
10
-71.375773089950528
20
128.50514275169164
10
-57.375773089950535
20
128.50514275169164
0
LWPOLYLINE
5
274
100
AcDbEntity
8
0
100
AcDbPolyline
90
9
70
1
43
0.0
10
177.98622691004948
20
126.54264275169167
10
192.79922691004947
20
126.54264275169167
10
208.8242269100495
20
126.54264275169167
42
0.41421356237309503
10
209.3242269100495
20
127.04264275169167
10
209.3242269100495
20
128.00514275169166
42
0.41421356237313667
10
208.8242269100495
20
128.50514275169166
10
177.98622691004948
20
128.50514275169166
42
0.41421356237313667
10
177.48622691004948
20
128.00514275169166
10
177.48622691004948
20
127.04264275169167
42
0.41421356237309503
0
LWPOLYLINE
5
275
100
AcDbEntity
8
0
100
AcDbPolyline
90
13
70
1
43
0.0
10
214.08672691004952
20
120.99264275169165
10
214.08672691004952
20
90.04310607422957
10
214.08672691004952
20
50.842642751691656
42
-0.41421356237313145
10
213.58672691004952
20
50.342642751691656
10
206.47297691004948
20
50.342642751691656
42
-0.41421356237313145
10
205.97297691004945
20
50.842642751691656
10
205.97297691004945
20
63.842642751691784
42
-0.41421356237313145
10
206.47297691004948
20
64.342642751691784
10
211.49297691004946
20
64.342642751691713
42
0.41421356237312101
10
211.99297691004946
20
64.842642751691699
10
211.99297691004949
20
120.99264275169165
42
-0.41421356237310542
10
212.49297691004949
20
121.49264275169166
10
213.58672691004952
20
121.49264275169166
42
-0.41421356237313667
0
LWPOLYLINE
5
276
100
AcDbEntity
8
0
100
AcDbPolyline
90
8
70
1
43
0.0
10
219.1367269100495
20
128.00514275169166
10
219.1367269100495
20
127.04264275169167
42
0.4142135623730846
10
219.6367269100495
20
126.54264275169169
10
270.73672691004941
20
126.54264275169167
42
0.41421356237309503
10
271.23672691004941
20
127.04264275169167
10
271.23672691004941
20
128.00514275169166
42
0.41421356237313667
10
270.73672691004941
20
128.50514275169166
10
219.6367269100495
20
128.50514275169169
42
0.41421356237310542
0
LWPOLYLINE
5
277
100
AcDbEntity
8
0
100
AcDbPolyline
90
8
70
1
43
0.0
10
114.44922691004949
20
45.292642751691673
10
81.524226910049492
20
45.292642751691673
42
0.414213562373069
10
81.024226910049478
20
44.792642751691673
10
81.024226910049478
20
38.792642751691673
42
0.41421356237306639
10
81.524226910049492
20
38.292642751691673
10
114.4492269100495
20
38.292642751691673
42
0.41421356237305862
10
114.9492269100495
20
38.792642751691673
10
114.9492269100495
20
44.792642751691673
42
0.414213562373069
0
LWPOLYLINE
5
278
100
AcDbEntity
8
0
100
AcDbPolyline
90
9
70
1
43
0.0
10
56.924226910049484
20
44.792642751691673
10
56.924226910049484
20
42.730068956350081
10
56.924226910049484
20
38.792642751691673
42
-0.41421356237309503
10
56.424226910049484
20
38.292642751691673
10
23.499226910049479
20
38.292642751691666
42
-0.41421356237308982
10
22.999226910049479
20
38.792642751691673
10
22.999226910049479
20
44.792642751691673
42
-0.41421356237309503
10
23.499226910049479
20
45.292642751691673
10
56.424226910049484
20
45.292642751691673
42
-0.41421356237309503
0
LWPOLYLINE
5
279
100
AcDbEntity
8
0
100
AcDbPolyline
90
16
70
1
43
0.0
10
228.2262913965335
20
80.534468913987581
10
234.29999475181103
20
80.534468913987581
42
-0.41421356237309503
10
234.79999475181103
20
80.034468913987581
10
234.79999475181103
20
79.499998234212399
42
-0.41421356237313145
10
234.29999475181103
20
78.999998234212399
10
228.72629139653353
20
78.999998234212399
10
228.72629139653353
20
74.099998361617324
42
0.41421356237309825
10
229.52629139653351
20
73.299998361617341
10
229.89999489262701
20
73.299998361617327
10
234.29999475181103
20
73.299998361617327
42
-0.41421356237313145
10
234.79999475181103
20
72.799998361617327
10
234.79999475181103
20
72.299998395144939
42
-0.41421356237313145
10
234.29999475181103
20
71.799998395144939
10
229.7262913965335
20
71.799998395144925
42
-0.41421356237309892
10
227.7262913965335
20
73.799998395144939
10
227.72629139653347
20
80.034468913987581
42
-0.4142135623730846
0
LINE
5
280
100
AcDbEntity
8
0
100
AcDbLine
10
241.68721600384512
20
80.034468913987538
30
0
11
241.68721600384512
21
72.299998395144939
31
0
0
LINE
5
281
100
AcDbEntity
8
0
100
AcDbLine
10
242.18721600384512
20
71.799998395144954
30
0
11
248.39999443665147
21
71.799998395144939
31
0
0
LINE
5
282
100
AcDbEntity
8
0
100
AcDbLine
10
248.89999443665147
20
72.299998395144939
30
0
11
248.89999443665147
21
72.799998361617327
31
0
0
LINE
5
283
100
AcDbEntity
8
0
100
AcDbLine
10
248.39999443665147
20
73.299998361617327
30
0
11
242.68721600384512
21
73.299998361617327
31
0
0
LWPOLYLINE
5
284
100
AcDbEntity
8
0
100
AcDbPolyline
90
28
70
1
43
0.0
10
256.08281115798883
20
72.299998395144939
10
256.08281115798883
20
72.799998361617327
42
-0.41421356237312101
10
256.58281115798889
20
73.299998361617313
10
262.00000390410423
20
73.299998361617327
10
256.08281115798883
20
78.732248151295678
10
256.00972390957196
20
78.799345541371636
42
-0.14522451934432351
10
255.7173940578522
20
79.287393017952311
10
255.69828524504916
20
79.361845401531809
42
-0.090408925908597379
10
255.67287169759129
20
79.719647756136652
42
-0.16309806460091023
10
255.9657095536339
20
80.283642935115239
42
-0.10363728633104335
10
256.33895756004927
20
80.453654578949454
10
256.59067647118326
20
80.510175079943522
42
-0.05527489417056887
10
256.80975973780949
20
80.534468913987581
10
262.89338973011309
20
80.53446891398761
42
-0.4142135623730846
10
263.39338973011314
20
80.034468913987581
10
263.39338973011314
20
79.50000117719172
42
-0.41421356237310542
10
262.8933897301132
20
79.000001177191763
10
257.00000382959843
20
79.000001177191734
10
263.13534126744338
20
73.367484722793833
42
-0.0497719566234587
10
263.26757723387152
20
73.219316025171608
10
263.30850629042715
20
73.163083575344885
42
-0.13851621825028085
10
263.49690551757539
20
72.653138494962263
42
-0.12298417022907507
10
263.34292205861055
20
72.193646395193809
10
263.36831727740355
20
72.233433173687487
42
-0.14507541545974337
10
262.93900439560821
20
71.86100778277364
10
263.00182407601051
20
71.889546542071429
42
-0.10701097119894255
10
262.58820900951144
20
71.799998395144939
10
256.58281115798889
20
71.799998395144954
42
-0.41421356237312101
0
ARC
5
285
100
AcDbEntity
8
0
100
AcDbCircle
10
248.3999944366515
20
72.299998395144911
30
0
40
0.49999999999997158
210
0
220
0
230
1
100
AcDbArc
50
-90.000000000003254
51
0
0
ARC
5
286
100
AcDbEntity
8
0
100
AcDbCircle
10
248.3999944366515
20
72.799998361617355
30
0
40
0.49999999999997158
210
0
220
0
230
1
100
AcDbArc
50
0
51
90.000000000003254
0
ARC
5
287
100
AcDbEntity
8
0
100
AcDbCircle
10
242.18721600384509
20
72.299998395144925
30
0
40
0.49999999999997158
210
0
220
0
230
1
100
AcDbArc
50
180
51
270.00000000000324
0
LINE
5
288
100
AcDbEntity
8
0
100
AcDbLine
10
242.68721600384512
20
79.494082049114084
30
0
11
242.68721600384512
21
80.034468913987581
31
0
0
LINE
5
289
100
AcDbEntity
8
0
100
AcDbLine
10
242.68721600384512
20
79.494082049114084
30
0
11
242.68721600384512
21
73.299998361617327
31
0
0
LINE
5
290
100
AcDbEntity
8
0
100
AcDbLine
10
242.18721600384512
20
80.534468913987567
30
0
11
242.18721600384512
21
80.534468913987567
31
0
0
ARC
5
291
100
AcDbEntity
8
0
100
AcDbCircle
10
242.18721600384512
20
80.034468913987553
30
0
40
0.50000000000000711
210
0
220
-0
230
1
100
AcDbArc
50
0
51
90
0
ARC
5
292
100
AcDbEntity
8
0
100
AcDbCircle
10
242.18721600384521
20
80.03446891398751
30
0
40
0.5000000000000604
210
0
220
0
230
1
100
AcDbArc
50
90.000000000009777
51
180
0
LINE
5
293
100
AcDbEntity
8
0
100
AcDbLine
10
253.70388185724724
20
24.092642463355446
30
0
11
253.70388185724724
21
24.097889432748119
31
0
0
ARC
5
294
100
AcDbEntity
8
0
100
AcDbCircle
10
272.03672127146268
20
146.10514185836709
30
0
40
2.0000040531158447
210
0
220
0
230
1
100
AcDbArc
50
0
51
90
0
ARC
5
295
100
AcDbEntity
8
0
100
AcDbCircle
10
272.03672127146268
20
30.492640579847489
30
0
40
2.0000040531158465
210
0
220
0
230
1
100
AcDbArc
50
-90.156393027080469
51
0
0
ARC
5
296
100
AcDbEntity
8
0
100
AcDbCircle
10
255.4038812341168
20
150.70514149477881
30
0
40
1.6999989748001099
210
0
220
0
230
1
100
AcDbArc
50
-180
51
0
0
ARC
5
297
100
AcDbEntity
8
0
100
AcDbCircle
10
255.4038818572474
20
25.892642463353489
30
0
40
1.7000000000003723
210
0
220
-0
230
1
100
AcDbArc
50
0
51
180
0
ARC
5
298
100
AcDbEntity
8
0
100
AcDbCircle
10
252.7038951339199
20
24.092642463355446
30
0
40
1.0000004887592651
210
0
220
0
230
1
100
AcDbArc
50
-90
51
0.30063043393533651
0
ARC
5
299
100
AcDbEntity
8
0
100
AcDbCircle
10
257.60387377161527
20
153.00514131298459
30
0
40
0.50000008195642209
210
0
220
-0
230
1
100
AcDbArc
50
90
51
180.29258506283827
0
ARC
5
300
100
AcDbEntity
8
0
100
AcDbCircle
10
253.20388869661832
20
153.00514131298459
30
0
40
0.50000008195642209
210
0
220
0
230
1
100
AcDbArc
50
-0.29258506283824415
51
90
0
ARC
5
301
100
AcDbEntity
8
0
100
AcDbCircle
10
258.48213037753243
20
151.0051416765728
30
0
40
2.5000032796633986
210
0
220
-0
230
1
100
AcDbArc
50
39.999948253997673
51
90.096709998996388
0
ARC
5
302
100
AcDbEntity
8
0
100
AcDbCircle
10
265.11165284758994
20
150.1051416765718
30
0
40
2.0000000000000195
210
0
220
0
230
1
100
AcDbArc
50
219.91165684307731
51
269.99977590511372
0
LINE
5
303
100
AcDbEntity
8
0
100
AcDbLine
10
252.32563333695987
20
153.5051416765728
30
0
11
253.20388869661832
21
153.50514139494101
31
0
0
LINE
5
304
100
AcDbEntity
8
0
100
AcDbLine
10
253.70388225931669
20
150.70514149477881
30
0
11
253.70388225931669
21
153.00258803731876
31
0
0
LINE
5
305
100
AcDbEntity
8
0
100
AcDbLine
10
257.10388020891691
20
150.70514149477881
30
0
11
257.10388020891691
21
153.00258803731876
31
0
0
LINE
5
306
100
AcDbEntity
8
0
100
AcDbLine
10
257.60387377161527
20
153.50514139494101
30
0
11
258.48213037753243
21
153.50514167657283
31
0
0
LINE
5
307
100
AcDbEntity
8
0
100
AcDbLine
10
263.57956396135245
20
148.81956645719814
30
0
11
260.39724544901389
21
152.61211107930339
31
0
0
LINE
5
308
100
AcDbEntity
8
0
100
AcDbLine
10
265.11164502520108
20
148.10514125487009
30
0
11
272.03672127146268
21
148.10514125487009
31
0
0
ARC
5
309
100
AcDbEntity
8
0
100
AcDbCircle
10
252.7038951339199
20
24.092642463355446
30
0
40
1.0000004887592651
210
0
220
0
230
1
100
AcDbArc
50
-90
51
0.30063043393533651
0
ARC
5
310
100
AcDbEntity
8
0
100
AcDbCircle
10
258.48213037753243
20
25.59264246335454
30
0
40
2.5000000000000711
210
0
220
0
230
1
100
AcDbArc
50
270.00000000000131
51
319.99999999999386
0
LINE
5
311
100
AcDbEntity
8
0
100
AcDbLine
10
258.48213037753248
20
23.092642463354469
30
0
11
258.10388185724781
21
23.09264246335453
31
0
0
ARC
5
312
100
AcDbEntity
8
0
100
AcDbCircle
10
258.10388185724781
20
24.092642463354533
30
0
40
1.0000000000000142
210
0
220
0
230
1
100
AcDbArc
50
180
51
270
0
ARC
5
313
100
AcDbEntity
8
0
100
AcDbCircle
10
265.11165284758994
20
26.492642463355534
30
0
40
2.0000000000558065
210
0
220
-0
230
1
100
AcDbArc
50
89.998580150631355
51
140.07049875020223
0
LINE
5
314
100
AcDbEntity
8
0
100
AcDbLine
10
265.11160240968263
20
28.492642462775347
30
0
11
265.11170240968266
21
28.492642462797239
31
0
0
LINE
5
315
100
AcDbEntity
8
0
100
AcDbLine
10
270
20
28.492643532720486
30
0
11
272.08163193558175
21
28.492643988336951
31
0
0
LINE
5
316
100
AcDbEntity
8
0
100
AcDbLine
10
265.11170240968266
20
28.492642462797239
30
0
11
270
21
28.492643532720486
31
0
0
LINE
5
317
100
AcDbEntity
8
0
100
AcDbLine
10
263.57798330437709
20
27.776331573779526
30
0
11
260.39724148532974
21
23.985673439137951
31
0
0
LINE
5
318
100
AcDbEntity
8
0
100
AcDbLine
10
257.10388185724781
20
24.092642463354533
30
0
11
257.10388185724776
21
25.892642463354289
31
0
0
LINE
5
319
100
AcDbEntity
8
0
100
AcDbLine
10
253.70388185724704
20
25.89264246335269
30
0
11
253.70388185724724
21
24.092642463355446
31
0
0
LINE
5
320
100
AcDbEntity
8
0
100
AcDbLine
10
252.7038951339199
20
23.092641974596184
30
0
11
252.32563333696004
21
23.092642463354537
31
0
0
ENDSEC
0
SECTION
2
OBJECTS
0
DICTIONARY
5
C
100
AcDbDictionary
3
ACAD_GROUP
350
D
3
ACAD_MLINESTYLE
350
17
0
DICTIONARY
5
D
100
AcDbDictionary
0
DICTIONARY
5
1A
330
C
100
AcDbDictionary
0
DICTIONARY
5
17
100
AcDbDictionary
0
ENDSEC
0
EOF
