0
SECTION
2
HEADER
9
$INSUNITS
70
4
9
$ACADVER
1
AC1014
9
$HANDSEED
5
FFFF
0
ENDSEC
0
SECTION
2
TABLES
0
TABLE
2
VPORT
5
8
100
AcDbSymbolTable
0
ENDTAB
0
TABLE
2
LTYPE
5
5
100
AcDbSymbolTable
0
LTYPE
5
14
100
AcDbSymbolTableRecord
100
AcDbLinetypeTableRecord
2
BYBLOCK
70
0
0
LTYPE
5
15
100
AcDbSymbolTableRecord
100
AcDbLinetypeTableRecord
2
BYLAYER
70
0
0
ENDTAB
0
TABLE
2
LAYER
5
2
100
AcDbSymbolTable
70
2
0
LAYER
5
50
100
AcDbSymbolTableRecord
100
AcDbLayerTableRecord
2
0
70
0
6
CONTINUOUS
0
ENDTAB
0
TABLE
2
STYLE
5
3
100
AcDbSymbolTable
70
1
0
STYLE
5
11
100
AcDbSymbolTableRecord
100
AcDbTextStyleTableRecord
2
STANDARD
70
0
0
ENDTAB
0
TABLE
2
VIEW
5
6
100
AcDbSymbolTable
70
0
0
ENDTAB
0
TABLE
2
UCS
5
7
100
AcDbSymbolTable
70
0
0
ENDTAB
0
TABLE
2
APPID
5
9
100
AcDbSymbolTable
70
2
0
APPID
5
12
100
AcDbSymbolTableRecord
100
AcDbRegAppTableRecord
2
ACAD
70
0
0
ENDTAB
0
TABLE
2
DIMSTYLE
5
A
100
AcDbSymbolTable
70
1
0
ENDTAB
0
TABLE
2
BLOCK_RECORD
5
1
100
AcDbSymbolTable
70
1
0
BLOCK_RECORD
5
1F
100
AcDbSymbolTableRecord
100
AcDbBlockTableRecord
2
*MODEL_SPACE
0
BLOCK_RECORD
5
1B
100
AcDbSymbolTableRecord
100
AcDbBlockTableRecord
2
*PAPER_SPACE
0
ENDTAB
0
ENDSEC
0
SECTION
2
BLOCKS
0
BLOCK
5
20
100
AcDbEntity
100
AcDbBlockBegin
2
*MODEL_SPACE
0
ENDBLK
5
21
100
AcDbEntity
100
AcDbBlockEnd
0
BLOCK
5
1C
100
AcDbEntity
100
AcDbBlockBegin
2
*PAPER_SPACE
0
ENDBLK
5
1D
100
AcDbEntity
100
AcDbBlockEnd
0
ENDSEC
0
SECTION
2
ENTITIES
0
ARC
5
100
100
AcDbEntity
8
0
100
AcDbCircle
10
146.94467812365275
20
-98.48697739617522
30
0
40
1.0004856764187209
210
0
220
0
230
-1
100
AcDbArc
50
178.6335553531116
51
269.98847966767352
0
LINE
5
101
100
AcDbEntity
8
0
100
AcDbLine
10
-146.94447695827023
20
-99.487463052370018
30
0
11
-151.94447695827023
21
-99.487463052369947
31
0
0
ARC
5
102
100
AcDbEntity
8
0
100
AcDbCircle
10
151.94447695827029
20
-98.487463052369975
30
0
40
0.99999999999997868
210
0
220
-0
230
-1
100
AcDbArc
50
269.99999999999676
51
360
0
LWPOLYLINE
5
103
100
AcDbEntity
8
0
100
AcDbPolyline
90
15
70
1
43
0.0
10
136.85378867279809
20
-78.792368208591199
10
136.85378867279809
20
-75.616381165268081
10
131.78517261590287
20
-75.616381165268081
10
131.78517261590287
20
-74.734882720590576
10
136.85378867279809
20
-70.210721585407896
10
136.85378867279809
20
-63.780968224231458
10
130.57959386068205
20
-63.780968224231458
10
128.44066381109712
20
-65.919898273816386
10
128.44066381109712
20
-68.538467183005309
10
131.78517261590287
20
-68.538467183005309
10
131.78517261590287
20
-66.969918479976229
10
133.36668453135331
20
-66.969918479976229
10
133.36668453135331
20
-68.901437130813576
10
128.28510526203644
20
-73.529303965370048
10
128.28510526203644
20
-78.792368208591199
0
LWPOLYLINE
5
104
100
AcDbEntity
8
0
100
AcDbPolyline
90
9
70
1
43
0.0
10
140.93720058564202
20
-66.969918479976229
10
143.14094669733549
20
-66.969918479976229
10
138.75938089879185
20
-78.792368208591199
10
142.27241146507993
20
-78.792368208591199
10
146.69286690088853
20
-66.282868221624653
10
144.4761575767734
20
-63.780968224231458
10
137.82602960442745
20
-63.780968224231458
10
137.82602960442745
20
-68.538467183005309
10
140.93720058564202
20
-68.538467183005309
0
LWPOLYLINE
5
105
100
AcDbEntity
8
0
100
AcDbPolyline
90
120
70
1
43
0.0
10
110.51380459690989
20
0
10
142.03034488539998
20
-1.0547118733938987e-14
42
0.26794919243091464
10
145.06143379863971
20
1.7500000000001137
10
147.08215974080926
20
5.2500000000004139
42
-0.2679491924310744
10
149.24722325027005
20
6.5000000000000568
10
153.00280545344009
20
6.5000000000003189
42
-0.23780660640471141
10
155.01263929073986
20
5.4867978835301301
10
158.02222242192977
20
1.418482963069817
42
0.23780660640544948
10
160.83598979414973
20
0
10
163.01774531795019
20
1.3711254354120683e-13
42
-0.19891236737966181
10
164.43195888032989
20
-0.58578643762018601
10
166.26038600507292
20
-2.4142135623670851
42
-0.19891236737965454
10
166.84617244269987
20
-3.828427124740017
10
166.84617244269953
20
-63.513307348690098
42
-0.17030362141467337
10
166.42982318063986
20
-64.700227939050023
10
165.30634794286829
20
-66.104571986258719
42
0.17019411175618493
10
164.84871940023964
20
-67.416428806320141
10
164.8487194002393
20
-97.646004568890135
42
0.17030362141346628
10
165.30889490040977
20
-98.95786416875012
10
166.43237013818205
20
-100.36220821596817
42
-0.17030362141359789
10
166.84871940023982
20
-101.54912880631997
10
166.84871940023942
20
-115.2340090302701
42
-0.19891236738054624
10
166.26293296260997
20
-116.64822259265009
10
164.43450583786813
20
-118.47664971738796
42
-0.19891236738059298
10
163.02029227548985
20
-119.06243615501978
10
160.00256458381983
20
-119.06243615502027
42
0.2679491924312804
10
156.97147567056987
20
-120.8124361550199
10
154.95073210213079
20
-124.31246668463046
42
-0.26794919243105203
10
152.78566859266988
20
-125.5624666846299
10
149.24977020780972
20
-125.56246668463002
42
-0.26794919243106119
10
147.08470669834981
20
-124.31246668462991
10
145.06396312990643
20
-120.81243615502196
42
0.26794919243128645
10
142.03287421666005
20
-119.06243615501978
10
80.002564583819833
20
-119.06243615502014
42
0.26794919243129145
10
76.971475670569873
20
-120.8124361550199
10
74.950732102130615
20
-124.31246668463039
42
-0.2679491924310573
10
72.785668592669879
20
-125.5624666846299
10
69.249770472579826
20
-125.56246668462991
42
-0.2679492279041823
10
67.08470679763991
20
-124.31246639800008
10
65.063326670269149
20
-120.81133224556054
42
0.26794919243091642
10
62.03223798869999
20
-119.06133184428995
10
28.003201782719884
20
-119.06132733926077
42
0.26814422463720389
10
24.969565448579942
20
-120.81132641221019
10
22.948179564903022
20
-124.31246946442602
42
-0.26794919243161058
10
20.783116055439734
20
-125.56246946442997
10
-10.752776749729945
20
-125.56246946442975
42
-0.26794919243108428
10
-12.917840259190143
20
-124.31246946442997
10
-14.939227516455727
20
-120.81132403307751
42
0.26794915695827243
10
-17.970315966350086
20
-119.06132403307993
10
-79.999333480410272
20
-119.06131582119991
42
0.26794922790433351
10
-83.030422857010251
20
-120.81131582120008
10
-85.051814855409191
20
-124.31246946443054
42
-0.26794919243106358
10
-87.21687836487007
20
-125.56246946442997
10
-102.75277674973012
20
-125.56246946443009
42
-0.26794919243107646
10
-104.91784025919031
20
-124.31246946442997
10
-106.93923363118351
20
-120.81131344206192
42
0.26794915695787164
10
-109.97032208107017
20
-119.06131344206017
10
-159.99932736568016
20
-119.06130523018005
42
0.26794922790469433
10
-163.03041674229007
20
-120.81130523018004
10
-165.05181485540919
20
-124.31246946443054
42
-0.26794919243107895
10
-167.21687836487007
20
-125.56246946442997
10
-170.75277674972995
20
-125.56246946443005
42
-0.2679491924310774
10
-172.91784025919014
20
-124.31246946442997
10
-174.93923961352311
20
-120.81130308035173
42
0.26794919243131327
10
-177.97032852677006
20
-119.06130308034989
10
-180.98778505301027
20
-119.06130308035026
42
-0.19891236737962534
10
-182.40199861538002
20
-118.47551664272004
10
-184.23042574012339
20
-116.64708951797321
42
-0.1989123673796161
10
-184.81621217775
20
-115.23287595560021
10
-184.81621217775029
20
-95.548563758180194
42
-0.17030362141282673
10
-184.39986291569994
20
-94.361643167829925
10
-183.2763876779178
20
-92.957299120611779
42
0.17030362141343178
10
-182.81621217775012
20
-91.645439520750074
10
-182.8162121777504
20
-51.41586375818008
42
0.17030362141439176
10
-183.27638767791996
20
-50.104004158310147
10
-184.39986291569681
20
-48.69966011109743
42
-0.17030362141280869
10
-184.81621217775
20
-47.51273952074996
10
-184.81621217775015
20
-3.8284273233199433
42
-0.19891236737875059
10
-184.2304257401301
20
-2.4142137609499059
10
-182.4019986153782
20
-0.58578663620192506
42
-0.19891236737869683
10
-180.98778505301027
20
-1.9857992583638406e-07
10
-177.96965522925007
20
-1.9858007405115785e-07
42
0.26794919243090604
10
-174.93856631601005
20
1.7499998014199036
10
-172.91784025919077
20
5.2500000000004103
42
-0.26794919243107873
10
-170.75277674972995
20
6.5000000000000568
10
-167.21687836487007
20
6.500000000000135
42
-0.26794919243106596
10
-165.05181485541016
20
5.2500000000000568
10
-163.03108891324433
20
1.7499999999976112
42
0.26794919243091819
10
-160
20
0
10
-97.96965511460003
20
2.7755575615628914e-14
42
0.26794919243090964
10
-94.938566201360288
20
1.7500000000001137
10
-92.91784025919074
20
5.2500000000004041
42
-0.26794919243107512
10
-90.752776749729946
20
6.5000000000000568
10
-87.21687836487007
20
6.499999999999809
42
-0.26794919243106263
10
-85.051814855410157
20
5.2500000000000568
10
-83.031088913244446
20
1.7499999999975295
42
0.26794919243092319
10
-80
20
0
10
-17.969655114600016
20
-1.3655743202889425e-13
42
0.26794919243091175
10
-14.938566201360288
20
1.7500000000001137
10
-12.917840259190751
20
5.2500000000004077
42
-0.26794919243107468
10
-10.752776749729946
20
6.5000000000000568
10
-7.2168783648700696
20
6.5000000000000231
42
-0.26794919243105952
10
-5.0518148554101572
20
5.2500000000000568
10
-3.0310889132440977
20
1.7499999999977525
42
0.26794919243092247
10
0
20
0
10
62.030344885399984
20
-7.6050277186823223e-14
42
0.26794919243091248
10
65.061433798639712
20
1.7500000000001137
10
67.082159740809089
20
5.2500000000004903
42
-0.26794919243107218
10
69.247223250270054
20
6.5000000000000568
10
72.78312163512993
20
6.5000000000002442
42
-0.26794919243105969
10
74.948185144589843
20
5.2500000000000568
10
76.968911086753081
20
1.7500000000018621
42
0.26794919243129944
10
80
20
0
10
100.12514981174974
20
5.3707038816241948e-14
42
-0.41421356237308998
10
101.12514981174996
20
-0.99999999999994316
10
101.12514981174991
20
-2.2749691558900049
42
0.41421356237309653
10
102.12514981174992
20
-3.2749691558899485
10
108.51380459691001
20
-3.2749691558900147
42
0.41421356237310403
10
109.51380459690995
20
-2.2749691558900054
10
109.51380459690989
20
-0.99999999999994316
42
-0.4142135623731118
0
LWPOLYLINE
5
106
100
AcDbEntity
8
0
100
AcDbPolyline
90
12
70
1
43
0.0
10
-69.446001586658952
20
-107.20412971903924
42
0.51298917604306737
10
-75.94386448320148
20
-107.20412971903926
42
-0.24153136105810855
10
-77.568330207330121
20
-108.03746305236984
10
-86.194933034930187
20
-108.0374630523701
42
0.99999999999999989
10
-86.194933034930159
20
-111.03746305236996
10
-77.568330207330121
20
-111.03746305236982
42
-0.24153136105922385
10
-75.943864483196847
20
-111.87079638570751
42
0.5129891760417522
10
-69.44600158665996
20
-111.87079638571012
42
-0.24153136106000686
10
-67.821535862520079
20
-111.03746305236996
10
-64.194933034929988
20
-111.03746305236974
42
0.99999999999999989
10
-64.194933034929988
20
-108.03746305236984
10
-67.821535862520079
20
-108.03746305236997
42
-0.24153136105890943
0
LWPOLYLINE
5
107
100
AcDbEntity
8
0
100
AcDbPolyline
90
4
70
1
43
0.0
10
160.42378018285007
20
-23.331219155890071
42
0.99999999999999989
10
160.42378018285007
20
-19.531219155890053
10
112.12380459690991
20
-19.531219155890049
42
0.99999999999999989
10
112.12380459690991
20
-23.331219155890039
0
LWPOLYLINE
5
108
100
AcDbEntity
8
0
100
AcDbPolyline
90
8
70
1
43
0.0
10
111.22380459690987
20
-26.337469155889728
42
0.41421356237308721
10
110.22380459690966
20
-27.337469155889949
10
110.22380459690956
20
-39.337469112180088
42
0.41421357517537705
10
111.22380459690987
20
-40.337469155890062
10
123.22374356174976
20
-40.337469155889721
42
0.41421356237308982
10
124.2237435617497
20
-39.337469155889835
10
124.2237435617494
20
-27.337469112180205
42
0.41421354957079881
10
123.22374356174976
20
-26.337469155890009
0
LWPOLYLINE
5
109
100
AcDbEntity
8
0
100
AcDbPolyline
90
8
70
1
43
0.0
10
111.22380459690987
20
-45.387456948860006
42
0.41421356237309764
10
110.22380459690977
20
-46.38745694886012
10
110.22380459690957
20
-58.387456905149982
42
0.41421357517545382
10
111.22380459690987
20
-59.387456948859956
10
123.22374356174976
20
-59.387456948860013
42
0.41421356237309243
10
124.2237435617497
20
-58.387456948860006
10
124.22374356174943
20
-46.387456905150088
42
0.41421354957073897
10
123.22374356174976
20
-45.387456948860176
0
LWPOLYLINE
5
110
100
AcDbEntity
8
0
100
AcDbPolyline
90
8
70
1
43
0.0
10
111.22380459690987
20
-2.5249691558897935
42
0.4142135623731063
10
110.22380459690966
20
-3.5249691558900054
10
110.22380459690956
20
-15.524969112180145
42
0.41421357517537899
10
111.22380459690987
20
-16.524969155889835
10
123.22374356174976
20
-16.524969155889778
42
0.41421356237308854
10
124.2237435617497
20
-15.524969155889892
10
124.22374356174942
20
-3.5249691121799742
42
0.41421354957073236
10
123.22374356174976
20
-2.5249691558900622
0
LWPOLYLINE
5
111
100
AcDbEntity
8
0
100
AcDbPolyline
90
8
70
1
43
0.0
10
111.22380459690987
20
-102.53745084534002
42
0.4142135623730846
10
110.22380459690977
20
-103.53745084534012
10
110.22380459690956
20
-115.53745080162999
42
0.41421357517546681
10
111.22380459690987
20
-116.53745084534023
10
123.22374356174976
20
-116.53745084534003
42
0.41421356237310025
10
124.2237435617497
20
-115.53745084534
10
124.22374356174942
20
-103.53745080163009
42
0.41421354957070777
10
123.22374356174976
20
-102.53745084534019
0
LWPOLYLINE
5
112
100
AcDbEntity
8
0
100
AcDbPolyline
90
8
70
1
43
0.0
10
130.27379238987976
20
-26.337469155889949
42
0.41421356237309631
10
129.27379238987976
20
-27.337469155889949
10
129.27379238987965
20
-39.337469112180088
42
0.41421357517538487
10
130.27379238987976
20
-40.337469155890062
10
142.27379238987993
20
-40.337469155889721
42
0.41421356237308982
10
143.27379238987987
20
-39.337469155889835
10
143.27379238988024
20
-27.337469112180205
42
0.41421354957078843
10
142.27379238987993
20
-26.337469155890009
0
LWPOLYLINE
5
113
100
AcDbEntity
8
0
100
AcDbPolyline
90
8
70
1
43
0.0
10
149.32378018284993
20
-26.337469155889949
42
0.41421356237309631
10
148.32378018284993
20
-27.337469155889949
10
148.32378018285007
20
-39.337469112180088
42
0.41421357517538615
10
149.32378018284993
20
-40.337469155890062
10
161.32378018284982
20
-40.337469155889742
42
0.41421356237310414
10
162.32378018284976
20
-39.337469155889835
10
162.3237801828497
20
-27.337469112180205
42
0.41421354957078843
10
161.32378018284982
20
-26.337469155890009
0
LWPOLYLINE
5
114
100
AcDbEntity
8
0
100
AcDbPolyline
90
8
70
1
43
0.0
10
130.27379238987976
20
-45.38745694886024
42
0.41421356237308721
10
129.27379238987987
20
-46.38745694886012
10
129.27379238987942
20
-58.387456905149982
42
0.4142135751754642
10
130.27379238987976
20
-59.387456948859956
10
142.27379238987993
20
-59.387456948860333
42
0.41421356237309243
10
143.27379238987987
20
-58.387456948860006
10
143.27379238988021
20
-46.387456905150088
42
0.41421354957071038
10
142.27379238987993
20
-45.387456948860176
0
LWPOLYLINE
5
115
100
AcDbEntity
8
0
100
AcDbPolyline
90
8
70
1
43
0.0
10
149.32378018284993
20
-45.38745694886024
42
0.41421356237308721
10
148.32378018285004
20
-46.38745694886012
10
148.32378018285004
20
-58.387456905149982
42
0.41421357517546159
10
149.32378018284993
20
-59.387456948859956
10
161.32378018284982
20
-59.387456948860013
42
0.41421356237309243
10
162.32378018284976
20
-58.387456948860006
10
162.3237801828497
20
-46.387456905150088
42
0.41421354957070516
10
161.32378018284982
20
-45.387456948860176
0
LWPOLYLINE
5
116
100
AcDbEntity
8
0
100
AcDbPolyline
90
8
70
1
43
0.0
10
-45.93873202418024
20
-26.337469155889952
42
0.41421356237309503
10
-46.93873202418024
20
-27.337469155889949
10
-46.938732024180126
20
-39.337469112180088
42
0.41421357517537705
10
-45.93873202418024
20
-40.337469155890062
10
-33.938732024180069
20
-40.337469155889842
42
0.41421356237309243
10
-32.938732024180126
20
-39.337469155889835
10
-32.93873202417997
20
-27.337469112180205
42
0.41421354957080664
10
-33.938732024180069
20
-26.337469155890009
0
LWPOLYLINE
5
117
100
AcDbEntity
8
0
100
AcDbPolyline
90
8
70
1
43
0.0
10
11.211292389879759
20
-26.337469155889845
42
0.41421356237309115
10
10.211292389879649
20
-27.337469155889949
10
10.211292389879755
20
-39.337469112180095
42
0.41421357517538421
10
11.211292389879759
20
-40.337469155890062
10
23.211292389879929
20
-40.337469155889735
42
0.41421356237309243
10
24.211292389879873
20
-39.337469155889835
10
24.211292389879823
20
-27.337469112180205
42
0.41421354957080531
10
23.211292389879929
20
-26.337469155890009
0
LWPOLYLINE
5
118
100
AcDbEntity
8
0
100
AcDbPolyline
90
8
70
1
43
0.0
10
30.26128018284993
20
-26.337469155889842
42
0.41421356237308982
10
29.261280182849823
20
-27.337469155889949
10
29.261280182849823
20
-39.337469112180088
42
0.41421357517537705
10
30.26128018284993
20
-40.337469155890062
10
42.261280182849816
20
-40.337469155889842
42
0.41421356237309764
10
43.261280182850044
20
-39.337469155889835
10
43.261280182849816
20
-27.337469112180205
42
0.41421354957080531
10
42.261280182849816
20
-26.337469155890009
0
LWPOLYLINE
5
119
100
AcDbEntity
8
0
100
AcDbPolyline
90
8
70
1
43
0.0
10
49.311267975819817
20
-26.337469155889952
42
0.41421356237309503
10
48.311267975819817
20
-27.337469155889949
10
48.311267975819696
20
-39.337469112180088
42
0.41421357517538354
10
49.311267975819817
20
-40.337469155890062
10
61.311267975819703
20
-40.337469155889835
42
0.41421356237309892
10
62.311267975819938
20
-39.337469155889835
10
62.311267975819817
20
-27.337469112180205
42
0.41421354957080919
10
61.311267975819703
20
-26.337469155890009
0
LWPOLYLINE
5
120
100
AcDbEntity
8
0
100
AcDbPolyline
90
8
70
1
43
0.0
10
-55.463725920670015
20
-45.38745694886024
42
0.41421356237307944
10
-56.463725920669916
20
-46.38745694886012
10
-56.463725920669916
20
-58.387456905149982
42
0.41421357517546942
10
-55.463725920670015
20
-59.387456948859956
10
-43.463725920670129
20
-59.387456948860127
42
0.41421356237310025
10
-42.463725920669901
20
-58.387456948860006
10
-42.463725920670143
20
-46.387456905150088
42
0.41421354957072076
10
-43.463725920670129
20
-45.387456948860176
0
LWPOLYLINE
5
121
100
AcDbEntity
8
0
100
AcDbPolyline
90
8
70
1
43
0.0
10
20.736286286359871
20
-45.387456948860233
42
0.41421356237309631
10
19.736286286359981
20
-46.38745694886012
10
19.736286286359981
20
-58.387456905149982
42
0.41421357517546681
10
20.736286286359871
20
-59.387456948859956
10
32.736286286359757
20
-59.38745694886012
42
0.41421356237309764
10
33.736286286359984
20
-58.387456948860006
10
33.736286286359864
20
-46.387456905150096
42
0.41421354957071949
10
32.736286286359757
20
-45.387456948860176
0
LWPOLYLINE
5
122
100
AcDbEntity
8
0
100
AcDbPolyline
90
8
70
1
43
0.0
10
39.786274079330042
20
-45.387456948860134
42
0.41421356237309243
10
38.786274079330042
20
-46.38745694886012
10
38.786274079330042
20
-58.387456905149982
42
0.41421357517546159
10
39.786274079330042
20
-59.387456948859956
10
51.786274079329935
20
-59.387456948860006
42
0.41421356237311324
10
52.786274079329871
20
-58.387456948860006
10
52.786274079329829
20
-46.387456905150088
42
0.41421354957072859
10
51.786274079329935
20
-45.387456948860176
0
LWPOLYLINE
5
123
100
AcDbEntity
8
0
100
AcDbPolyline
90
8
70
1
43
0.0
10
58.836292389879929
20
-45.387456948860347
42
0.41421356237308982
10
57.836292389880157
20
-46.38745694886012
10
57.836292389879944
20
-58.387456905149982
42
0.41421357517545898
10
58.836292389879929
20
-59.387456948859956
10
70.836292389879816
20
-59.387456948860013
42
0.41421356237310281
10
71.836292389879759
20
-58.387456948860006
10
71.836292389879944
20
-46.387456905150088
42
0.41421354957072076
10
70.836292389879816
20
-45.387456948860176
0
LWPOLYLINE
5
124
100
AcDbEntity
8
0
100
AcDbPolyline
90
8
70
1
43
0.0
10
25.498767975819877
20
-64.437475259400159
42
0.4142135623730937
10
24.498767975819984
20
-65.43747525940006
10
24.498767975819973
20
-77.437475215689929
42
0.41421357517555135
10
25.498767975819877
20
-78.437475259400173
10
37.49876797581976
20
-78.437475259400344
42
0.41421356237310025
10
38.498767975819703
20
-77.43747525940023
10
38.498767975819867
20
-65.437475215690043
42
0.41421354957071949
10
37.49876797581976
20
-64.437475259400117
0
LWPOLYLINE
5
125
100
AcDbEntity
8
0
100
AcDbPolyline
90
8
70
1
43
0.0
10
-31.651225920670072
20
-64.437475259400159
42
0.41421356237309764
10
-32.651225920669958
20
-65.43747525940006
10
-32.651225920669958
20
-77.437475215689915
42
0.41421357517554486
10
-31.651225920670072
20
-78.437475259400173
10
-19.651225920669901
20
-78.43747525940023
42
0.41421356237310281
10
-18.651225920669958
20
-77.43747525940023
10
-18.651225920670001
20
-65.437475215690029
42
0.41421354957072076
10
-19.651225920669901
20
-64.437475259400117
0
LWPOLYLINE
5
126
100
AcDbEntity
8
0
100
AcDbPolyline
90
8
70
1
43
0.0
10
-50.701213713640243
20
-64.437475259400159
42
0.41421356237308982
10
-51.701213713640144
20
-65.43747525940006
10
-51.701213713640151
20
-77.437475215689915
42
0.41421357517555524
10
-50.701213713640243
20
-78.437475259400173
10
-38.701213713640072
20
-78.437475259400344
42
0.41421356237310025
10
-37.701213713640129
20
-77.43747525940023
10
-37.701213713639973
20
-65.437475215690029
42
0.41421354957072337
10
-38.701213713640072
20
-64.437475259400117
0
LWPOLYLINE
5
127
100
AcDbEntity
8
0
100
AcDbPolyline
90
8
70
1
43
0.0
10
-55.463725920670015
20
-2.5249691558900085
42
0.41421356237309537
10
-56.463725920670015
20
-3.5249691558900054
10
-56.463725920669901
20
-15.524969112180145
42
0.41421357517538748
10
-55.463725920670015
20
-16.524969155889835
10
-43.463725920670129
20
-16.524969155889899
42
0.41421356237309309
10
-42.463725920669901
20
-15.524969155889892
10
-42.463725920670129
20
-3.5249691121799742
42
0.41421354957071882
10
-43.463725920670129
20
-2.5249691558900622
0
LWPOLYLINE
5
128
100
AcDbEntity
8
0
100
AcDbPolyline
90
8
70
1
43
0.0
10
49.311267975819817
20
-2.5249691558900085
42
0.41421356237309537
10
48.311267975819817
20
-3.5249691558900054
10
48.311267975819931
20
-15.524969112180145
42
0.41421357517538293
10
49.311267975819817
20
-16.524969155889835
10
61.311267975819703
20
-16.524969155889899
42
0.41421356237308982
10
62.311267975819938
20
-15.524969155889892
10
62.311267975819817
20
-3.5249691121799742
42
0.41421354957073009
10
61.311267975819703
20
-2.5249691558900622
0
LWPOLYLINE
5
129
100
AcDbEntity
8
0
100
AcDbPolyline
90
8
70
1
43
0.0
10
68.373951081279927
20
-2.524969155889786
42
0.41421356237309293
10
67.373951081279714
20
-3.5249691558900054
10
67.37395108128004
20
-15.524969112180145
42
0.41421357517538032
10
68.373951081279927
20
-16.524969155889835
10
80.373951081279813
20
-16.524969155889782
42
0.41421356237308982
10
81.37395108128004
20
-15.524969155889892
10
81.373951081279699
20
-3.5249691121799742
42
0.41421354957071704
10
80.373951081279813
20
-2.5249691558900622
0
LWPOLYLINE
5
130
100
AcDbEntity
8
0
100
AcDbPolyline
90
8
70
1
43
0.0
10
130.27379238987976
20
-2.524969155890004
42
0.41421356237309664
10
129.27379238987976
20
-3.5249691558900054
10
129.27379238988007
20
-15.524969112180145
42
0.41421357517537966
10
130.27379238987976
20
-16.524969155889835
10
142.27379238987993
20
-16.524969155889778
42
0.41421356237308854
10
143.27379238987987
20
-15.524969155889892
10
143.27379238987982
20
-3.5249691121799742
42
0.41421354957071704
10
142.27379238987993
20
-2.5249691558900622
0
LWPOLYLINE
5
131
100
AcDbEntity
8
0
100
AcDbPolyline
90
8
70
1
43
0.0
10
149.32378018284993
20
-2.524969155890004
42
0.41421356237309664
10
148.32378018284993
20
-3.5249691558900054
10
148.32378018285004
20
-15.524969112180145
42
0.41421357517537444
10
149.32378018284993
20
-16.524969155889835
10
161.32378018284982
20
-16.524969155889792
42
0.41421356237310281
10
162.32378018284976
20
-15.524969155889892
10
162.32378018284925
20
-3.5249691121799742
42
0.41421354957071804
10
161.32378018284982
20
-2.5249691558900622
0
LWPOLYLINE
5
132
100
AcDbEntity
8
0
100
AcDbPolyline
90
8
70
1
43
0.0
10
30.26128018284993
20
-2.5249691558898961
42
0.41421356237309825
10
29.261280182849823
20
-3.5249691558900054
10
29.261280182849827
20
-15.524969112180145
42
0.41421357517538032
10
30.26128018284993
20
-16.524969155889835
10
42.261280182849816
20
-16.524969155889899
42
0.41421356237309309
10
43.261280182850044
20
-15.524969155889892
10
43.261280182849816
20
-3.5249691121799742
42
0.41421354957072259
10
42.261280182849816
20
-2.5249691558900622
0
LWPOLYLINE
5
133
100
AcDbEntity
8
0
100
AcDbPolyline
90
8
70
1
43
0.0
10
-107.85120761012024
20
-64.437475259400173
42
0.41421356237310542
10
-108.85120761012013
20
-65.43747525940006
10
-108.85120761012011
20
-77.437475215689915
42
0.41421357517553703
10
-107.85120761012024
20
-78.437475259400173
10
-95.851207610120071
20
-78.437475259400344
42
0.41421356237310281
10
-94.851207610120127
20
-77.43747525940023
10
-94.851207610120071
20
-65.437475215690029
42
0.41421354957072598
10
-95.851207610120071
20
-64.437475259400117
0
LWPOLYLINE
5
134
100
AcDbEntity
8
0
100
AcDbPolyline
90
8
70
1
43
0.0
10
130.27379238987976
20
-83.487463052369975
42
0.41421356237311063
10
129.27379238987976
20
-84.487463052369947
10
129.27379238987965
20
-96.487463008659802
42
0.41421357517555524
10
130.27379238987976
20
-97.48746305237006
10
142.27379238987993
20
-97.487463052370003
42
0.41421356237308982
10
143.27379238987987
20
-96.487463052370117
10
143.27379238987993
20
-84.487463008659915
42
0.41421354957072859
10
142.27379238987993
20
-83.487463052370003
0
LWPOLYLINE
5
135
100
AcDbEntity
8
0
100
AcDbPolyline
90
8
70
1
43
0.0
10
130.27379238987976
20
-102.53745084534025
42
0.41421356237309503
10
129.27379238987987
20
-103.53745084534012
10
129.2737923898801
20
-115.53745080162999
42
0.41421357517548241
10
130.27379238987976
20
-116.53745084534023
10
142.27379238987993
20
-116.53745084534022
42
0.41421356237310025
10
143.27379238987987
20
-115.53745084534
10
143.27379238987982
20
-103.53745080163009
42
0.41421354957071815
10
142.27379238987993
20
-102.53745084534019
0
LWPOLYLINE
5
136
100
AcDbEntity
8
0
100
AcDbPolyline
90
8
70
1
43
0.0
10
149.32378018284993
20
-102.53745084534025
42
0.41421356237309503
10
148.32378018285004
20
-103.53745084534012
10
148.32378018285004
20
-115.53745080162999
42
0.41421357517548241
10
149.32378018284993
20
-116.53745084534023
10
161.32378018284982
20
-116.53745084534
42
0.41421356237308982
10
162.32378018284976
20
-115.53745084534
10
162.3237801828497
20
-103.53745080163009
42
0.41421354957071815
10
161.32378018284982
20
-102.53745084534019
0
LWPOLYLINE
5
137
100
AcDbEntity
8
0
100
AcDbPolyline
90
8
70
1
43
0.0
10
-141.1887320241803
20
-26.337469155889842
42
0.41421356237310153
10
-142.18873202418038
20
-27.337469155889949
10
-142.1887320241803
20
-39.337469112180088
42
0.41421357517538487
10
-141.1887320241803
20
-40.337469155890062
10
-129.18873202418013
20
-40.337469155889721
42
0.41421356237308982
10
-128.18873202418018
20
-39.337469155889835
10
-128.18873202418027
20
-27.337469112180205
42
0.41421354957079881
10
-129.18873202418013
20
-26.337469155890009
0
LWPOLYLINE
5
138
100
AcDbEntity
8
0
100
AcDbPolyline
90
8
70
1
43
0.0
10
15.9737740793301
20
-83.487463052369833
42
0.4142135623730846
10
14.973774079329988
20
-84.487463052369947
10
14.973774079330093
20
-96.487463008659802
42
0.41421357517555851
10
15.9737740793301
20
-97.48746305237006
10
27.973774079329985
20
-97.487463052370032
42
0.41421356237308721
10
28.973774079329928
20
-96.487463052370117
10
28.973774079329981
20
-84.487463008659915
42
0.41421354957072859
10
27.973774079329985
20
-83.487463052370003
0
LWPOLYLINE
5
139
100
AcDbEntity
8
0
100
AcDbPolyline
90
8
70
1
43
0.0
10
-22.126232024180297
20
-83.487463052369975
42
0.41421356237308071
10
-23.126232024180297
20
-84.487463052369947
10
-23.126232024180197
20
-96.487463008659816
42
0.41421357517554225
10
-22.126232024180297
20
-97.48746305237006
10
-10.126232024180126
20
-97.487463052370131
42
0.41421356237309631
10
-9.1262320241801831
20
-96.487463052370117
10
-9.1262320241799113
20
-84.487463008659915
42
0.4142135495707201
10
-10.126232024180126
20
-83.487463052370003
0
LWPOLYLINE
5
140
100
AcDbEntity
8
0
100
AcDbPolyline
90
8
70
1
43
0.0
10
-41.176219817150184
20
-83.487463052369847
42
0.41421356237307683
10
-42.176219817150297
20
-84.487463052369947
10
-42.176219817150297
20
-96.487463008659788
42
0.41421357517555785
10
-41.176219817150184
20
-97.48746305237006
10
-29.176219817150013
20
-97.487463052370032
42
0.41421356237308721
10
-28.17621981715007
20
-96.487463052370117
10
-28.176219817150013
20
-84.487463008659915
42
0.41421354957072987
10
-29.176219817150013
20
-83.487463052370003
0
LWPOLYLINE
5
141
100
AcDbEntity
8
0
100
AcDbPolyline
90
8
70
1
43
0.0
10
-60.226207610120071
20
-83.487463052369975
42
0.41421356237311063
10
-61.226207610120071
20
-84.487463052369947
10
-61.226207610119971
20
-96.487463008659816
42
0.41421357517554225
10
-60.226207610120071
20
-97.48746305237006
10
-48.226207610120184
20
-97.487463052370131
42
0.41421356237309503
10
-47.226207610120241
20
-96.487463052370117
10
-47.226207610120071
20
-84.48746300865993
42
0.4142135495707312
10
-48.226207610120184
20
-83.487463052370003
0
LWPOLYLINE
5
142
100
AcDbEntity
8
0
100
AcDbPolyline
90
8
70
1
43
0.0
10
-179.28872286891021
20
-26.337469155889831
42
0.41421356237307294
10
-180.28872286891033
20
-27.337469155889949
10
-180.28872286891021
20
-39.337469112180088
42
0.41421357517536533
10
-179.28872286891021
20
-40.337469155890062
10
-167.28872286891004
20
-40.337469155889742
42
0.41421356237310414
10
-166.2887228689101
20
-39.337469155889835
10
-166.28872286891021
20
-27.337469112180205
42
0.41421354957077799
10
-167.28872286891004
20
-26.337469155890009
0
LWPOLYLINE
5
143
100
AcDbEntity
8
0
100
AcDbPolyline
90
8
70
1
43
0.0
10
-160.23871981715018
20
-26.337469155889956
42
0.41421356237309892
10
-161.23871981715024
20
-27.337469155889949
10
-161.23871981715007
20
-39.337469112180088
42
0.41421357517536667
10
-160.23871981715018
20
-40.337469155890062
10
-148.23871981715001
20
-40.337469155889721
42
0.41421356237308982
10
-147.23871981715007
20
-39.337469155889835
10
-147.23871981715016
20
-27.337469112180205
42
0.41421354957079881
10
-148.23871981715001
20
-26.337469155890009
0
LWPOLYLINE
5
144
100
AcDbEntity
8
0
100
AcDbPolyline
90
8
70
1
43
0.0
10
-122.13871371364007
20
-26.337469155889849
42
0.4142135623730937
10
-123.13871371364017
20
-27.337469155889949
10
-123.13871371364004
20
-39.337469112180088
42
0.41421357517539265
10
-122.13871371364007
20
-40.337469155890062
10
-110.1387137136402
20
-40.337469155889721
42
0.41421356237309503
10
-109.13871371364024
20
-39.337469155889835
10
-109.1387137136403
20
-27.337469112180205
42
0.4142135495707962
10
-110.1387137136402
20
-26.337469155890009
0
LWPOLYLINE
5
145
100
AcDbEntity
8
0
100
AcDbPolyline
90
8
70
1
43
0.0
10
-103.0887259206699
20
-26.337469155889949
42
0.41421356237309631
10
-104.0887259206699
20
-27.337469155889949
10
-104.08872592066982
20
-39.337469112180088
42
0.41421357517539265
10
-103.0887259206699
20
-40.337469155890062
10
-91.088725920670015
20
-40.337469155889856
42
0.41421356237309764
10
-90.088725920670072
20
-39.337469155889835
10
-90.088725920670043
20
-27.337469112180205
42
0.41421354957081574
10
-91.088725920670015
20
-26.337469155890009
0
LWPOLYLINE
5
146
100
AcDbEntity
8
0
100
AcDbPolyline
90
8
70
1
43
0.0
10
-84.038707610120298
20
-26.337469155889949
42
0.41421356237309631
10
-85.038707610120298
20
-27.337469155889949
10
-85.038707610120213
20
-39.337469112180088
42
0.41421357517539265
10
-84.038707610120298
20
-40.337469155890062
10
-72.038707610120127
20
-40.337469155889842
42
0.41421356237309243
10
-71.038707610120184
20
-39.337469155889835
10
-71.038707610120127
20
-27.337469112180205
42
0.41421354957080531
10
-72.038707610120127
20
-26.337469155890009
0
LWPOLYLINE
5
147
100
AcDbEntity
8
0
100
AcDbPolyline
90
8
70
1
43
0.0
10
-64.988719817150127
20
-26.337469155889831
42
0.41421356237308854
10
-65.98871981715024
20
-27.337469155889949
10
-65.988719817150255
20
-39.337469112180088
42
0.41421357517538615
10
-64.988719817150127
20
-40.337469155890062
10
-52.988719817149956
20
-40.337469155889735
42
0.41421356237309764
10
-51.988719817150013
20
-39.337469155889835
10
-51.98871981715007
20
-27.337469112180205
42
0.4142135495707962
10
-52.988719817149956
20
-26.337469155890009
0
LWPOLYLINE
5
148
100
AcDbEntity
8
0
100
AcDbPolyline
90
8
70
1
43
0.0
10
-174.52622592067002
20
-45.387456948860219
42
0.41421356237307161
10
-175.52622592066993
20
-46.38745694886012
10
-175.52622592066993
20
-58.387456905149982
42
0.41421357517547203
10
-174.52622592067002
20
-59.387456948859956
10
-162.52622592067013
20
-59.38745694886012
42
0.41421356237310281
10
-161.5262259206699
20
-58.387456948860006
10
-161.52622592067016
20
-46.387456905150088
42
0.41421354957069217
10
-162.52622592067013
20
-45.387456948860176
0
LWPOLYLINE
5
149
100
AcDbEntity
8
0
100
AcDbPolyline
90
8
70
1
43
0.0
10
-150.71372592067007
20
-45.38745694886024
42
0.41421356237310281
10
-151.71372592066996
20
-46.38745694886012
10
-151.71372592066996
20
-58.387456905149982
42
0.4142135751754486
10
-150.71372592067007
20
-59.387456948859956
10
-138.7137259206699
20
-59.387456948860127
42
0.41421356237310542
10
-137.71372592066996
20
-58.387456948860006
10
-137.7137259206699
20
-46.387456905150088
42
0.41421354957072598
10
-138.7137259206699
20
-45.387456948860176
0
LWPOLYLINE
5
150
100
AcDbEntity
8
0
100
AcDbPolyline
90
8
70
1
43
0.0
10
-131.66370761012018
20
-45.38745694886024
42
0.41421356237310281
10
-132.66370761012007
20
-46.38745694886012
10
-132.66370761012007
20
-58.387456905149982
42
0.4142135751754486
10
-131.66370761012018
20
-59.387456948859956
10
-119.66370761012031
20
-59.387456948860127
42
0.41421356237308982
10
-118.66370761012007
20
-58.387456948860006
10
-118.66370761012034
20
-46.387456905150088
42
0.41421354957072076
10
-119.66370761012031
20
-45.387456948860176
0
LWPOLYLINE
5
151
100
AcDbEntity
8
0
100
AcDbPolyline
90
8
70
1
43
0.0
10
-112.61371981715001
20
-45.387456948860113
42
0.41421356237309764
10
-113.61371981715001
20
-46.38745694886012
10
-113.6137198171501
20
-58.387456905149982
42
0.41421357517544338
10
-112.61371981715001
20
-59.387456948859956
10
-100.61371981715013
20
-59.387456948860013
42
0.41421356237309243
10
-99.613719817150184
20
-58.387456948860006
10
-99.613719817150269
20
-46.387456905150088
42
0.41421354957072598
10
-100.61371981715013
20
-45.387456948860176
0
LWPOLYLINE
5
152
100
AcDbEntity
8
0
100
AcDbPolyline
90
8
70
1
43
0.0
10
-93.563732024180126
20
-45.38745694886024
42
0.41421356237310281
10
-94.563732024180013
20
-46.38745694886012
10
-94.563732024180013
20
-58.387456905149982
42
0.4142135751754486
10
-93.563732024180126
20
-59.387456948859956
10
-81.56373202418024
20
-59.387456948860127
42
0.41421356237310542
10
-80.563732024180297
20
-58.387456948860006
10
-80.56373202418014
20
-46.387456905150088
42
0.41421354957072598
10
-81.56373202418024
20
-45.387456948860176
0
LWPOLYLINE
5
153
100
AcDbEntity
8
0
100
AcDbPolyline
90
8
70
1
43
0.0
10
-74.513713713640186
20
-45.38745694886024
42
0.41421356237309243
10
-75.513713713640101
20
-46.38745694886012
10
-75.513713713640101
20
-58.387456905149982
42
0.41421357517546159
10
-74.513713713640186
20
-59.387456948859956
10
-62.513713713640016
20
-59.38745694886012
42
0.41421356237310802
10
-61.513713713640072
20
-58.387456948860006
10
-61.513713713639895
20
-46.387456905150088
42
0.41421354957072859
10
-62.513713713640016
20
-45.387456948860176
0
LWPOLYLINE
5
154
100
AcDbEntity
8
0
100
AcDbPolyline
90
8
70
1
43
0.0
10
-145.95121371364002
20
-64.43747525940006
42
0.41421356237308982
10
-146.95121371364002
20
-65.43747525940006
10
-146.95121371364002
20
-77.437475215689915
42
0.41421357517555263
10
-145.95121371364002
20
-78.437475259400173
10
-133.95121371364013
20
-78.437475259400244
42
0.41421356237310542
10
-132.95121371364019
20
-77.43747525940023
10
-132.95121371364027
20
-65.437475215690029
42
0.41421354957072598
10
-133.95121371364013
20
-64.437475259400117
0
LWPOLYLINE
5
155
100
AcDbEntity
8
0
100
AcDbPolyline
90
8
70
1
43
0.0
10
-126.90121066187999
20
-64.43747525940006
42
0.41421356237308982
10
-127.90121066188
20
-65.43747525940006
10
-127.9012106618801
20
-77.437475215689915
42
0.41421357517555785
10
-126.90121066187999
20
-78.437475259400173
10
-114.9012106618801
20
-78.43747525940023
42
0.41421356237309764
10
-113.90121066188017
20
-77.43747525940023
10
-113.90121066188024
20
-65.437475215690029
42
0.41421354957072598
10
-114.9012106618801
20
-64.437475259400117
0
LWPOLYLINE
5
156
100
AcDbEntity
8
0
100
AcDbPolyline
90
8
70
1
43
0.0
10
-69.751232024180183
20
-64.437475259400159
42
0.41421356237309764
10
-70.751232024180069
20
-65.43747525940006
10
-70.751232024180069
20
-77.437475215689915
42
0.41421357517553964
10
-69.751232024180183
20
-78.437475259400173
10
-57.751232024180297
20
-78.437475259400344
42
0.41421356237309503
10
-56.751232024180069
20
-77.43747525940023
10
-56.751232024180197
20
-65.437475215690029
42
0.41421354957072337
10
-57.751232024180297
20
-64.437475259400117
0
LWPOLYLINE
5
157
100
AcDbEntity
8
0
100
AcDbPolyline
90
8
70
1
43
0.0
10
-88.80121981715007
20
-64.43747525940006
42
0.41421356237309764
10
-89.80121981715007
20
-65.43747525940006
10
-89.801219817150169
20
-77.437475215689915
42
0.41421357517554225
10
-88.80121981715007
20
-78.437475259400173
10
-76.801219817150184
20
-78.43747525940023
42
0.41421356237309764
10
-75.801219817149956
20
-77.43747525940023
10
-75.801219817150297
20
-65.437475215690029
42
0.41421354957071554
10
-76.801219817150184
20
-64.437475259400117
0
LWPOLYLINE
5
158
100
AcDbEntity
8
0
100
AcDbPolyline
90
8
70
1
43
0.0
10
-142.1887320241803
20
-15.524969112180145
42
0.41421357517537899
10
-141.1887320241803
20
-16.524969155889892
10
-129.18873202418013
20
-16.524969155889778
42
0.41421356237308854
10
-128.18873202418018
20
-15.524969155889892
10
-128.18873202418027
20
-3.5249691121799742
42
0.41421354957072692
10
-129.18873202418013
20
-2.5249691558900622
10
-141.18873211161002
20
-2.5249691558898792
42
0.4142135367655243
10
-142.18873202418024
20
-3.5249691558900054
0
LWPOLYLINE
5
159
100
AcDbEntity
8
0
100
AcDbPolyline
90
8
70
1
43
0.0
10
-122.13871371364007
20
-2.5249691558899023
42
0.4142135623730952
10
-123.13871371364017
20
-3.5249691558900054
10
-123.13871371364004
20
-15.524969112180145
42
0.4142135751753816
10
-122.13871371364007
20
-16.524969155889835
10
-110.13871371364019
20
-16.524969155889771
42
0.41421356237308721
10
-109.13871371364024
20
-15.524969155889892
10
-109.1387137136403
20
-3.5249691121799742
42
0.41421354957073214
10
-110.1387137136402
20
-2.5249691558900622
0
LWPOLYLINE
5
160
100
AcDbEntity
8
0
100
AcDbPolyline
90
8
70
1
43
0.0
10
-103.0887259206699
20
-2.524969155890004
42
0.41421356237309664
10
-104.0887259206699
20
-3.5249691558900054
10
-104.08872592066982
20
-15.524969112180145
42
0.41421357517537383
10
-103.0887259206699
20
-16.524969155889835
10
-91.088725920670015
20
-16.524969155889899
42
0.41421356237310347
10
-90.088725920670072
20
-15.524969155889892
10
-90.088725920670001
20
-3.5249691121799742
42
0.41421354957072554
10
-91.088725920670015
20
-2.5249691558900622
0
LWPOLYLINE
5
161
100
AcDbEntity
8
0
100
AcDbPolyline
90
8
70
1
43
0.0
10
-84.038707610120298
20
-2.524969155890004
42
0.41421356237309664
10
-85.038707610120298
20
-3.5249691558900054
10
-85.038707610120213
20
-15.524969112180145
42
0.41421357517537383
10
-84.038707610120298
20
-16.524969155889835
10
-72.038707610120127
20
-16.524969155889899
42
0.41421356237309309
10
-71.038707610120184
20
-15.524969155889892
10
-71.038707610120127
20
-3.5249691121799742
42
0.41421354957072259
10
-72.038707610120127
20
-2.5249691558900622
0
LWPOLYLINE
5
162
100
AcDbEntity
8
0
100
AcDbPolyline
90
8
70
1
43
0.0
10
-79.276225920669958
20
-83.487463052369975
42
0.41421356237311063
10
-80.276225920669958
20
-84.487463052369947
10
-80.276225920669873
20
-96.487463008659802
42
0.41421357517553964
10
-79.276225920669958
20
-97.48746305237006
10
-67.276225920670072
20
-97.487463052370131
42
0.41421356237309503
10
-66.276225920670129
20
-96.487463052370117
10
-66.276225920669958
20
-84.48746300865993
42
0.4142135495707312
10
-67.276225920670072
20
-83.487463052370003
0
LWPOLYLINE
5
163
100
AcDbEntity
8
0
100
AcDbPolyline
90
8
70
1
43
0.0
10
-98.326213713640129
20
-83.487463052369847
42
0.4142135623730846
10
-99.326213713640229
20
-84.487463052369947
10
-99.326213713640129
20
-96.487463008659802
42
0.41421357517555524
10
-98.326213713640129
20
-97.48746305237006
10
-86.326213713640243
20
-97.487463052369989
42
0.41421356237307422
10
-85.326213713640016
20
-96.487463052370117
10
-85.326213713640243
20
-84.487463008659915
42
0.41421354957073897
10
-86.326213713640243
20
-83.487463052370003
0
LWPOLYLINE
5
164
100
AcDbEntity
8
0
100
AcDbPolyline
90
8
70
1
43
0.0
10
-117.37623202418008
20
-83.487463052369847
42
0.41421356237310025
10
-118.37623202418017
20
-84.487463052369947
10
-118.37623202418008
20
-96.487463008659802
42
0.41421357517554486
10
-117.37623202418008
20
-97.48746305237006
10
-105.37623202418018
20
-97.487463052370146
42
0.41421356237310025
10
-104.37623202418024
20
-96.487463052370117
10
-104.37623202417997
20
-84.487463008659915
42
0.41421354957073897
10
-105.37623202418018
20
-83.487463052370003
0
LWPOLYLINE
5
165
100
AcDbEntity
8
0
100
AcDbPolyline
90
8
70
1
43
0.0
10
-136.42621981714996
20
-83.487463052369847
42
0.41421356237305862
10
-137.42621981715004
20
-84.487463052369947
10
-137.42621981715004
20
-96.487463008659802
42
0.41421357517557089
10
-136.42621981714996
20
-97.48746305237006
10
-124.42621981715007
20
-97.487463052370003
42
0.41421356237308982
10
-123.42621981715013
20
-96.487463052370117
10
-123.42621981715007
20
-84.487463008659915
42
0.41421354957073897
10
-124.42621981715007
20
-83.487463052370003
0
LWPOLYLINE
5
166
100
AcDbEntity
8
0
100
AcDbPolyline
90
8
70
1
43
0.0
10
-26.888713713640016
20
-26.337469155889949
42
0.41421356237309243
10
-27.888713713640016
20
-27.337469155889949
10
-27.888713713639909
20
-39.337469112180088
42
0.41421357517537705
10
-26.888713713640016
20
-40.337469155890062
10
-14.888713713640129
20
-40.337469155889842
42
0.41421356237309309
10
-13.888713713640186
20
-39.337469155889835
10
-13.888713713640019
20
-27.337469112180209
42
0.41421354957081113
10
-14.888713713640129
20
-26.337469155890009
0
LWPOLYLINE
5
167
100
AcDbEntity
8
0
100
AcDbPolyline
90
8
70
1
43
0.0
10
-7.8387259206701296
20
-26.337469155889842
42
0.41421356237309082
10
-8.8387259206702389
20
-27.337469155889949
10
-8.8387259206701305
20
-39.337469112180088
42
0.41421357517538548
10
-7.8387259206701287
20
-40.337469155890062
10
4.1612740793300418
20
-40.337469155889735
42
0.41421356237309293
10
5.1612740793299849
20
-39.337469155889835
10
5.1612740793299334
20
-27.337469112180205
42
0.41421354957080531
10
4.1612740793300409
20
-26.337469155890009
0
LWPOLYLINE
5
168
100
AcDbEntity
8
0
100
AcDbPolyline
90
8
70
1
43
0.0
10
-36.413707610120127
20
-45.38745694886024
42
0.41421356237309892
10
-37.413707610120021
20
-46.38745694886012
10
-37.413707610120021
20
-58.387456905149989
42
0.41421357517546031
10
-36.413707610120127
20
-59.387456948859956
10
-24.413707610120241
20
-59.387456948860105
42
0.41421356237310414
10
-23.413707610120298
20
-58.387456948860006
10
-23.413707610120245
20
-46.387456905150088
42
0.41421354957071815
10
-24.413707610120241
20
-45.387456948860176
0
LWPOLYLINE
5
169
100
AcDbEntity
8
0
100
AcDbPolyline
90
8
70
1
43
0.0
10
-17.363719817149956
20
-45.38745694886012
42
0.41421356237309243
10
-18.363719817149956
20
-46.38745694886012
10
-18.363719817150066
20
-58.387456905149982
42
0.41421357517546875
10
-17.363719817149956
20
-59.387456948859956
10
-5.36371981715007
20
-59.387456948860006
42
0.41421356237310086
10
-4.3637198171501268
20
-58.387456948860006
10
-4.3637198171501801
20
-46.387456905150088
42
0.4142135495707237
10
-5.36371981715007
20
-45.387456948860176
0
LWPOLYLINE
5
170
100
AcDbEntity
8
0
100
AcDbPolyline
90
8
70
1
43
0.0
10
1.686267975819931
20
-45.38745694886024
42
0.41421356237309687
10
0.68626797582004062
20
-46.38745694886012
10
0.68626797582003918
20
-58.387456905149982
42
0.41421357517546759
10
1.6862679758199306
20
-59.387456948859956
10
13.686267975819817
20
-59.387456948860105
42
0.4142135623731048
10
14.68626797581976
20
-58.387456948860006
10
14.686267975819922
20
-46.387456905150088
42
0.41421354957072404
10
13.686267975819817
20
-45.387456948860176
0
LWPOLYLINE
5
171
100
AcDbEntity
8
0
100
AcDbPolyline
90
8
70
1
43
0.0
10
6.4487801828499878
20
-64.43747525940006
42
0.41421356237309631
10
5.4487801828499869
20
-65.43747525940006
10
5.4487801828498741
20
-77.437475215689915
42
0.41421357517555329
10
6.4487801828499869
20
-78.437475259400173
10
18.448780182849873
20
-78.437475259400443
42
0.41421356237310281
10
19.448780182849816
20
-77.43747525940023
10
19.448780182849774
20
-65.437475215690029
42
0.41421354957072076
10
18.448780182849873
20
-64.437475259400117
0
LWPOLYLINE
5
172
100
AcDbEntity
8
0
100
AcDbPolyline
90
8
70
1
43
0.0
10
-12.601207610120184
20
-64.437475259400159
42
0.41421356237309698
10
-13.601207610120074
20
-65.43747525940006
10
-13.601207610120074
20
-77.437475215689915
42
0.41421357517554486
10
-12.601207610120184
20
-78.437475259400173
10
-0.60120761012029778
20
-78.43747525940023
42
0.41421356237309853
10
0.39879238987992949
20
-77.43747525940023
10
0.39879238987959226
20
-65.437475215690029
42
0.41421354957072376
10
-0.60120761012029789
20
-64.437475259400117
0
LWPOLYLINE
5
173
100
AcDbEntity
8
0
100
AcDbPolyline
90
8
70
1
43
0.0
10
-36.413707610120127
20
-2.5249691558900036
42
0.41421356237309293
10
-37.413707610120127
20
-3.5249691558900054
10
-37.413707610120021
20
-15.524969112180145
42
0.41421357517537966
10
-36.413707610120127
20
-16.524969155889835
10
-24.413707610120241
20
-16.524969155889895
42
0.41421356237309437
10
-23.413707610120298
20
-15.524969155889892
10
-23.413707610120241
20
-3.5249691121799742
42
0.41421354957071965
10
-24.413707610120241
20
-2.5249691558900622
0
LWPOLYLINE
5
174
100
AcDbEntity
8
0
100
AcDbPolyline
90
8
70
1
43
0.0
10
-17.363719817149956
20
-2.5249691558898952
42
0.4142135623730947
10
-18.36371981715007
20
-3.5249691558900054
10
-18.36371981715007
20
-15.524969112180145
42
0.41421357517538093
10
-17.363719817149956
20
-16.524969155889835
10
-5.36371981715007
20
-16.524969155889782
42
0.41421356237309631
10
-4.3637198171501268
20
-15.524969155889892
10
-4.3637198171501819
20
-3.5249691121799742
42
0.41421354957072354
10
-5.36371981715007
20
-2.5249691558900622
0
LWPOLYLINE
5
175
100
AcDbEntity
8
0
100
AcDbPolyline
90
8
70
1
43
0.0
10
1.6862679758199308
20
-2.5249691558900054
42
0.41421356237309503
10
0.68626797581993071
20
-3.5249691558900054
10
0.68626797582004173
20
-15.524969112180145
42
0.41421357517538226
10
1.6862679758199306
20
-16.524969155889835
10
13.686267975819817
20
-16.524969155889892
42
0.41421356237309503
10
14.68626797581976
20
-15.524969155889892
10
14.686267975819927
20
-3.5249691121799742
42
0.4142135495707237
10
13.686267975819817
20
-2.5249691558900622
0
LWPOLYLINE
5
176
100
AcDbEntity
8
0
100
AcDbPolyline
90
8
70
1
43
0.0
10
-3.0762137136400725
20
-83.487463052369975
42
0.41421356237307994
10
-4.0762137136400725
20
-84.487463052369947
10
-4.0762137136399685
20
-96.487463008659802
42
0.41421357517554702
10
-3.0762137136400725
20
-97.48746305237006
10
8.9237862863598139
20
-97.487463052370131
42
0.41421356237309631
10
9.923786286359757
20
-96.487463052370117
10
9.9237862863600288
20
-84.487463008659915
42
0.4142135495707201
10
8.9237862863598139
20
-83.487463052370003
0
LWPOLYLINE
5
177
100
AcDbEntity
8
0
100
AcDbPolyline
90
8
70
1
43
0.0
10
44.548786286359814
20
-64.437475259400159
42
0.41421356237309764
10
43.548786286359928
20
-65.43747525940006
10
43.548786286359928
20
-77.437475215689915
42
0.41421357517553964
10
44.548786286359814
20
-78.437475259400173
10
56.548786286359984
20
-78.437475259400344
42
0.41421356237310025
10
57.548786286359928
20
-77.43747525940023
10
57.548786286360112
20
-65.437475215690029
42
0.41421354957072076
10
56.548786286359984
20
-64.437475259400117
0
LWPOLYLINE
5
178
100
AcDbEntity
8
0
100
AcDbPolyline
90
8
70
1
43
0.0
10
35.023792389879702
20
-83.487463052369833
42
0.4142135623730846
10
34.023792389879588
20
-84.487463052369947
10
34.023792389879709
20
-96.487463008659802
42
0.41421357517556434
10
35.023792389879702
20
-97.48746305237006
10
47.023792389879873
20
-97.487463052370032
42
0.41421356237308721
10
48.023792389879816
20
-96.487463052370117
10
48.023792389879873
20
-84.487463008659915
42
0.41421354957072859
10
47.023792389879873
20
-83.487463052370003
0
LWPOLYLINE
5
179
100
AcDbEntity
8
0
100
AcDbPolyline
90
8
70
1
43
0.0
10
86.415119294179931
20
-15.524969112180145
42
0.41421357517537316
10
87.415119294179817
20
-16.524969155889782
10
99.415149811749757
20
-16.524969155889778
42
0.41421356237308854
10
100.4151498117497
20
-15.524969155889892
10
100.41514981174964
20
-3.5249691121799742
42
0.41421354957071704
10
99.415149811749757
20
-2.5249691558900622
10
87.415119206749807
20
-2.5249691558899983
42
0.41421353676543726
10
86.415119294179874
20
-3.5249691558900054
0
LWPOLYLINE
5
180
100
AcDbEntity
8
0
100
AcDbPolyline
90
8
70
1
43
0.0
10
-176.90746676540016
20
-64.437475259400145
42
0.41421356237307422
10
-177.90746676540007
20
-65.43747525940006
10
-177.90746676540007
20
-77.437475215689915
42
0.41421357517557605
10
-176.90746676540016
20
-78.437475259400173
10
-160.14242286891005
20
-78.437475259400358
42
0.41421353676834405
10
-159.14242295633017
20
-77.43747525940023
10
-159.14242295633002
20
-65.437475303120038
42
0.41421354957363438
10
-160.14242286891005
20
-64.437475259400117
0
LWPOLYLINE
5
181
100
AcDbEntity
8
0
100
AcDbPolyline
90
4
70
1
43
0.0
10
12.786267975820063
20
-23.331219155890071
42
0.99999999999999989
10
12.786267975820067
20
-19.531219155890053
10
-54.563725920670265
20
-19.531219155889943
42
0.99999999999999989
10
-54.563725920670265
20
-23.331219155890039
0
LWPOLYLINE
5
182
100
AcDbEntity
8
0
100
AcDbPolyline
90
4
70
1
43
0.0
10
-72.938707610120161
20
-23.331219155890182
42
0.99999999999999989
10
-72.938707610120161
20
-19.531219155889943
10
-140.28873202417998
20
-19.531219155890049
42
0.99999999999999989
10
-140.28873202417998
20
-23.331219155890039
0
LWPOLYLINE
5
183
100
AcDbEntity
8
0
100
AcDbPolyline
90
4
70
1
43
0.0
10
98.515149811750007
20
-23.331219155890182
42
0.99999999999999989
10
98.515149811750007
20
-19.531219155889943
10
31.16128018284968
20
-19.531219155889943
42
0.99999999999999989
10
31.16128018284968
20
-23.331219155890039
0
ARC
5
184
100
AcDbEntity
8
0
100
AcDbCircle
10
-153.94447695827014
20
-98.487463052369918
30
0
40
0.99999999999988987
210
-0
220
0
230
1
100
AcDbArc
50
0
51
89.99999999999838
0
LINE
5
185
100
AcDbEntity
8
0
100
AcDbLine
10
-153.94447695827012
20
-97.487463052370032
30
0
11
-168.82045352077029
21
-97.48746305237006
31
0
0
ARC
5
186
100
AcDbEntity
8
0
100
AcDbCircle
10
-168.82045352077034
20
-98.487463052370018
30
0
40
0.99999999999996092
210
0
220
-0
230
1
100
AcDbArc
50
89.999999999996746
51
180
0
ARC
5
187
100
AcDbEntity
8
0
100
AcDbCircle
10
170.82045352077029
20
-98.487463052370032
30
0
40
0.99999999999997868
210
0
220
0
230
-1
100
AcDbArc
50
180
51
269.99999999999346
0
LINE
5
188
100
AcDbEntity
8
0
100
AcDbLine
10
-170.82045352077017
20
-99.487463052370018
30
0
11
-175.82045352077017
21
-99.487463052369947
31
0
0
ARC
5
189
100
AcDbEntity
8
0
100
AcDbCircle
10
175.82045352077023
20
-98.487463052369975
30
0
40
0.99999999999997868
210
0
220
-0
230
-1
100
AcDbArc
50
269.99999999999676
51
360
0
LINE
5
190
100
AcDbEntity
8
0
100
AcDbLine
10
-176.82045352077023
20
-98.487463052370003
30
0
11
-176.82045352077023
21
-97.475289664108715
31
0
0
CIRCLE
5
191
100
AcDbEntity
8
0
100
AcDbCircle
10
-63.751216765400329
20
-9.5249691558899485
30
0
40
4
210
0
220
0
230
1
0
CIRCLE
5
192
100
AcDbEntity
8
0
100
AcDbCircle
10
21.9737893381199
20
-9.5249691558899485
30
0
40
4
210
0
220
0
230
1
0
CIRCLE
5
193
100
AcDbEntity
8
0
100
AcDbCircle
10
-168.9822805997602
20
3.5000027798099609
30
0
40
1.7499999999999205
210
0
220
0
230
1
0
LWPOLYLINE
5
194
100
AcDbEntity
8
0
100
AcDbPolyline
90
12
70
1
43
0.0
10
-162.73872744654994
20
-8.0249691558901191
42
0.99999999999999989
10
-162.73872744654994
20
-11.024969155889778
10
-159.11212461895019
20
-11.024969155890131
42
-0.24153136105817388
10
-157.48765889482141
20
-11.858302489221032
42
0.51298917604302852
10
-150.98979599827513
20
-11.858302489223515
42
-0.24153136105891906
10
-149.36533027414015
20
-11.024969155890005
10
-145.73872744655006
20
-11.024969155889899
42
0.99999999999999989
10
-145.73872744655006
20
-8.0249691558898917
10
-149.36533027414015
20
-8.0249691558899876
42
-0.24153136105995399
10
-150.98979599828334
20
-7.1916358225526134
42
0.51298917604178818
10
-157.48765889481385
20
-7.191635822554634
42
-0.24153136105921044
10
-159.11212461895019
20
-8.0249691558898917
0
LWPOLYLINE
5
195
100
AcDbEntity
8
0
100
AcDbPolyline
90
12
70
1
43
0.0
10
-27.582360823010113
20
-108.03746305237006
42
0.99999999999999989
10
-27.582360823010106
20
-111.03746305236974
10
-23.955757995420019
20
-111.03746305236969
42
-0.24153136105999651
10
-22.331292271276713
20
-111.87079638570744
42
0.51298917604175454
10
-15.833429374746357
20
-111.87079638570546
42
-0.24153136105923326
10
-14.208963650609974
20
-111.03746305236996
10
-10.582360823010237
20
-111.03746305236984
42
0.99999999999999989
10
-10.58236082301022
20
-108.03746305236984
10
-14.208963650609974
20
-108.03746305236997
42
-0.2415313610581318
10
-15.833429374738818
20
-107.20412971903919
42
0.51298917604306893
10
-22.331292271285108
20
-107.20412971903657
42
-0.24153136105888393
10
-23.955757995420015
20
-108.03746305236984
0
LWPOLYLINE
5
196
100
AcDbEntity
8
0
100
AcDbPolyline
90
4
70
1
43
0.0
10
-168.18872286891008
20
-23.331219155890071
42
0.99999999999999989
10
-168.18872286891008
20
-19.531219155890053
10
-178.38872286891018
20
-19.531219155890049
42
0.99999999999999989
10
-178.38872286891018
20
-23.331219155890039
0
CIRCLE
5
197
100
AcDbEntity
8
0
100
AcDbCircle
10
-88.982280599760202
20
3.5000027798099609
30
0
40
1.7499999999999205
210
0
220
0
230
1
0
CIRCLE
5
198
100
AcDbEntity
8
0
100
AcDbCircle
10
-8.9822805997602018
20
3.5000027798099609
30
0
40
1.7499999999999205
210
0
220
0
230
1
0
CIRCLE
5
199
100
AcDbEntity
8
0
100
AcDbCircle
10
71.017719400239798
20
3.5000027798099609
30
0
40
1.7499999999999205
210
0
220
0
230
1
0
CIRCLE
5
200
100
AcDbEntity
8
0
100
AcDbCircle
10
151.0177194002398
20
3.5000027798099609
30
0
40
1.7499999999999205
210
0
220
0
230
1
0
CIRCLE
5
201
100
AcDbEntity
8
0
100
AcDbCircle
10
151.0177194002398
20
-122.55999722018998
30
0
40
1.7499999999999205
210
0
220
0
230
1
0
CIRCLE
5
202
100
AcDbEntity
8
0
100
AcDbCircle
10
71.017719400239798
20
-122.55999722018998
30
0
40
1.7499999999999205
210
0
220
0
230
1
0
CIRCLE
5
203
100
AcDbEntity
8
0
100
AcDbCircle
10
-8.9822805997602018
20
-122.55999722018998
30
0
40
1.7499999999999205
210
0
220
0
230
1
0
CIRCLE
5
204
100
AcDbEntity
8
0
100
AcDbCircle
10
-88.982280599760202
20
-122.55999722018998
30
0
40
1.7499999999999205
210
0
220
0
230
1
0
CIRCLE
5
205
100
AcDbEntity
8
0
100
AcDbCircle
10
-168.9822805997602
20
-122.55999722018998
30
0
40
1.7499999999999205
210
0
220
0
230
1
0
LINE
5
206
100
AcDbEntity
8
0
100
AcDbLine
10
-176.90742098903004
20
-83.474461084670523
30
0
11
-176.82045352077023
21
-83.474461084670523
31
0
0
LINE
5
207
100
AcDbEntity
8
0
100
AcDbLine
10
-142.49511556084011
20
-84.474461084670537
30
0
11
-142.49511556084011
21
-96.475291084670545
31
0
0
LINE
5
208
100
AcDbEntity
8
0
100
AcDbLine
10
-143.49511556084011
20
-97.475291084670545
30
0
11
-144.9566489259698
21
-97.475291084670545
31
0
0
LINE
5
209
100
AcDbEntity
8
0
100
AcDbLine
10
-177.90742098903002
20
-96.388290386148299
30
0
11
-177.90742098903007
21
-84.474461084670537
31
0
0
LWPOLYLINE
5
210
100
AcDbEntity
8
0
100
AcDbPolyline
90
10
70
1
43
0.0
10
21.284860386195888
20
-103.53745084534023
10
21.284860386195888
20
-117.53746305237003
42
-0.41421356237308854
10
20.284860386195945
20
-118.53746305237003
10
14.166095320275829
20
-118.53746305236993
42
-0.4142135623730957
10
13.166095320275936
20
-117.53746305237003
10
13.166095320275886
20
-103.53745084534017
10
13.166095320275879
20
-101.53745084534026
42
-0.41421352321833782
10
14.166095186593179
20
-100.53745084534027
10
20.284860386195888
20
-100.53745084534027
42
-0.41421356237310025
10
21.284860386195888
20
-101.53745084534029
0
LWPOLYLINE
5
211
100
AcDbEntity
8
0
100
AcDbPolyline
90
40
70
1
43
0.0
10
64.458764429665052
20
-64.437475259400117
10
63.598786286359932
20
-64.437475259400117
42
0.41421356237309503
10
62.598786286359918
20
-65.437475259400117
10
62.598786286359918
20
-77.43747525940023
42
0.41421356237307422
10
63.59878628635991
20
-78.437475259400159
10
67.067035798079928
20
-78.437475259400173
10
95.943012360579871
20
-78.437475259400443
42
0.41421356237310025
10
96.943012360580099
20
-77.43747525940023
10
96.943012360580099
20
-77.318769155889868
10
97.94301236058007
20
-77.318769155889868
42
0.41421356237309503
10
98.94301236058007
20
-76.318769155889868
10
98.94301236058007
20
-73.818769155889868
10
98.94301236058007
20
-71.318769155889868
42
0.41421356237309503
10
97.94301236058007
20
-70.318769155889868
10
96.943012360580042
20
-70.318769155889868
10
96.943012360580042
20
-68.91246915588988
10
97.030077043670033
20
-68.91246915588988
42
0.41421356237309503
10
98.030077043670033
20
-67.91246915588988
10
98.030077043670033
20
-55.912469155889887
42
0.41421356237309503
10
97.030077043670033
20
-54.91246915588988
10
95.648792389879858
20
-54.91246915588988
10
95.648792389879873
20
-53.506169155889879
10
98.030077043670033
20
-53.506169155889879
10
98.062890459826491
20
-53.506169155889879
42
0.41421356237309243
10
99.062890459826463
20
-52.506169155889893
10
99.062890459826477
20
-52.387456948859864
10
99.062890459826477
20
-46.387456948859871
42
0.41421356237309503
10
98.062890459826491
20
-45.387456948859878
10
94.648792389879745
20
-45.387456948859878
10
82.648792389879617
20
-45.387456948859999
42
0.41421356237309503
10
81.648792389879631
20
-46.387456948859992
10
81.648792389879631
20
-53.387456948859992
10
81.648792389879631
20
-63.437475259400159
42
-0.41421356237309243
10
80.648792389879631
20
-64.437475259400145
10
74.067035798080099
20
-64.437475259400159
42
-0.41421356237309503
10
73.067035798080155
20
-63.437475259400181
42
0.41421356237309764
10
72.067035798079928
20
-62.43747525940023
10
67.067035798079928
20
-62.437475259400401
42
0.41421356237309503
10
66.067035798079928
20
-63.437475259400181
42
-0.41421356237309503
10
65.067035798079985
20
-64.437475259400117
0
LINE
5
212
100
AcDbEntity
8
0
100
AcDbLine
10
-174.52615592311045
20
-102.53745286659304
30
0
11
-162.52615592311003
21
-102.53746305237001
31
0
0
ARC
5
213
100
AcDbEntity
8
0
100
AcDbCircle
10
162.52615592311
20
-103.53746305236997
30
0
40
0.99999999999996092
210
0
220
0
230
-1
100
AcDbArc
50
89.99999999999838
51
180
0
ARC
5
214
100
AcDbEntity
8
0
100
AcDbCircle
10
162.52615592311
20
-115.53746305236986
30
0
40
0.99999999999990763
210
0
220
0
230
-1
100
AcDbArc
50
180
51
270.00000000000159
0
LINE
5
215
100
AcDbEntity
8
0
100
AcDbLine
10
-161.52615592311003
20
-103.53746305236997
30
0
11
-161.52615592311008
21
-115.53746305236984
31
0
0
LINE
5
216
100
AcDbEntity
8
0
100
AcDbLine
10
-162.52615592311003
20
-116.53746305236977
30
0
11
-174.52615592311014
21
-116.53745286659309
31
0
0
ARC
5
217
100
AcDbEntity
8
0
100
AcDbCircle
10
-174.52615592311045
20
-103.53745286659304
30
0
40
0.99999999999999645
210
0
220
-0
230
1
100
AcDbArc
50
90
51
180
0
LINE
5
218
100
AcDbEntity
8
0
100
AcDbLine
10
-175.52615592311011
20
-115.53745201777836
30
0
11
-175.52615592311045
21
-103.53745286659304
31
0
0
ARC
5
219
100
AcDbEntity
8
0
100
AcDbCircle
10
-174.52615592311014
20
-115.53745201777836
30
0
40
1.0000008488147216
210
0
220
0
230
1
100
AcDbArc
50
180
51
270
0
ARC
5
220
100
AcDbEntity
8
0
100
AcDbCircle
10
-143.49511556084011
20
-96.475291084670545
30
0
40
0.99999999999999645
210
0
220
0
230
1
100
AcDbArc
50
-90
51
0
0
ARC
5
221
100
AcDbEntity
8
0
100
AcDbCircle
10
-143.49511556084011
20
-84.474461084670537
30
0
40
0.99999999999999645
210
0
220
0
230
1
100
AcDbArc
50
0
51
90
0
ARC
5
222
100
AcDbEntity
8
0
100
AcDbCircle
10
-177.3639209890305
20
-97.475290386148302
30
0
40
0.54346746826075909
210
0
220
0
230
1
100
AcDbArc
50
-7.3637667635729429e-05
51
90
0
ARC
5
223
100
AcDbEntity
8
0
100
AcDbCircle
10
-177.3638654498647
20
-96.388267381072808
30
0
40
0.54355553965219361
210
0
220
0
230
1
100
AcDbArc
50
180.00242494757327
51
269.9941456584076
0
ARC
5
224
100
AcDbEntity
8
0
100
AcDbCircle
10
-176.90742098903004
20
-84.474461084670537
30
0
40
0.99999999999999645
210
0
220
-0
230
1
100
AcDbArc
50
90
51
180
0
LWPOLYLINE
5
225
100
AcDbEntity
8
0
100
AcDbPolyline
90
11
70
1
43
0.0
10
-101.05709287358408
20
-117.54016905642537
10
-101.05709287358408
20
-104.54016905640117
10
-101.05709287358407
20
-102.54016905640115
10
-101.05709287358407
20
-101.54016905640117
42
-0.41421356237309503
10
-100.05709287358407
20
-100.54016905640117
10
-93.938292873584075
20
-100.54016905640117
42
-0.41421356237309503
10
-92.938292873584075
20
-101.54016905640117
10
-92.938292873584089
20
-104.5374630523699
10
-92.938292873584047
20
-117.53746305237001
42
-0.41421356237310542
10
-93.93829287358399
20
-118.53746305237003
10
-100.05709287358408
20
-118.53978893561072
42
-0.41448242501486632
0
LINE
5
226
100
AcDbEntity
8
0
100
AcDbLine
10
-127.90115592311014
20
-103.53746305236999
30
0
11
-127.90115592311014
21
-103.53745201777829
31
0
0
LINE
5
227
100
AcDbEntity
8
0
100
AcDbLine
10
-127.90115592311014
20
-103.53746305236999
30
0
11
-127.90115592311014
21
-115.53745286659309
31
0
0
ARC
5
228
100
AcDbEntity
8
0
100
AcDbCircle
10
-126.90115592311048
20
-115.53745286659309
30
0
40
0.99999999999999645
210
0
220
0
230
1
100
AcDbArc
50
180
51
270
0
ARC
5
229
100
AcDbEntity
8
0
100
AcDbCircle
10
-126.90115592311017
20
-103.53745201777829
30
0
40
0.99999915118523575
210
0
220
-0
230
1
100
AcDbArc
50
90
51
180
0
LINE
5
230
100
AcDbEntity
8
0
100
AcDbLine
10
48.023792389879823
20
-103.53745286661552
30
0
11
48.023792389879816
21
-115.53745201779901
31
0
0
LWPOLYLINE
5
231
100
AcDbEntity
8
0
100
AcDbPolyline
90
8
70
1
43
0.0
10
95.648844076889858
20
-115.53745286657156
10
95.648844076889873
20
-103.53746305236997
42
0.41421654569104677
10
94.648844076890242
20
-102.53745286657163
10
82.648844076889816
20
-102.53746305236987
42
0.41421356237308982
10
81.648844076889873
20
-103.53746305236997
10
81.648844076889816
20
-115.53746305236984
42
0.41421356237310542
10
82.648844076889816
20
-116.53746305236984
10
94.648844076890256
20
-116.53745286657119
42
0.41421356237309503
0
LINE
5
232
100
AcDbEntity
8
0
100
AcDbLine
10
-126.90115592311017
20
-102.53745286659307
30
0
11
-114.90115592311014
21
-102.53746305237001
31
0
0
ARC
5
233
100
AcDbEntity
8
0
100
AcDbCircle
10
114.90115592311011
20
-103.53746305236996
30
0
40
0.99999999999994316
210
0
220
0
230
-1
100
AcDbArc
50
89.99999999999838
51
180
0
LINE
5
234
100
AcDbEntity
8
0
100
AcDbLine
10
-113.90115592311017
20
-103.53746305236997
30
0
11
-113.9011559231102
21
-115.53746305236984
31
0
0
ARC
5
235
100
AcDbEntity
8
0
100
AcDbCircle
10
114.90115592311011
20
-115.53746305236983
30
0
40
0.99999999999990763
210
0
220
-0
230
-1
100
AcDbArc
50
180
51
270.00000000000159
0
LINE
5
236
100
AcDbEntity
8
0
100
AcDbLine
10
-114.90115592311014
20
-116.53746305236973
30
0
11
-126.90115592311048
21
-116.53745286659309
31
0
0
ARC
5
237
100
AcDbEntity
8
0
100
AcDbCircle
10
47.023792389880185
20
-103.53745286661552
30
0
40
0.99999999999964118
210
0
220
0
230
1
100
AcDbArc
50
0
51
90
0
ARC
5
238
100
AcDbEntity
8
0
100
AcDbCircle
10
47.023792389879802
20
-115.53745201779898
30
0
40
1.0000000000000142
210
0
220
0
230
1
100
AcDbArc
50
270
51
360
0
LINE
5
239
100
AcDbEntity
8
0
100
AcDbLine
10
47.023792389879794
20
-116.5374528666155
30
0
11
35.02384407688993
21
-116.53746305236976
31
0
0
ARC
5
240
100
AcDbEntity
8
0
100
AcDbCircle
10
-35.023844076889944
20
-115.53746305236984
30
0
40
0.99999999999990763
210
-0
220
0
230
-1
100
AcDbArc
50
-89.99999999999919
51
0
0
LINE
5
241
100
AcDbEntity
8
0
100
AcDbLine
10
34.023844076890036
20
-115.53746305236984
30
0
11
34.023844076889702
21
-103.53746305236997
31
0
0
ARC
5
242
100
AcDbEntity
8
0
100
AcDbCircle
10
-35.023844076889922
20
-103.53746305236996
30
0
40
1.0000000000002229
210
-0
220
0
230
-1
100
AcDbArc
50
0
51
90.000000000000398
0
LINE
5
243
100
AcDbEntity
8
0
100
AcDbLine
10
35.02384407688993
20
-102.53746305236973
30
0
11
47.023792389880185
21
-102.53745286661589
31
0
0
LWPOLYLINE
5
244
100
AcDbEntity
8
0
100
AcDbPolyline
90
28
70
1
43
0.0
10
100.41133511448983
20
-27.337469155890016
10
100.41133511448982
20
-41.337469155890034
42
-0.41421356237309503
10
99.411335114489816
20
-42.337469155890012
10
98.324268464099845
20
-42.337469155890012
10
93.324268464099873
20
-42.337469155889949
42
-0.41421356237311063
10
92.324268464099873
20
-41.337469155890005
42
0.41421356237310542
10
91.324268464099987
20
-40.337469155890005
10
76.448291901599816
20
-40.337469155890062
42
0.41421356237310802
10
75.448291901599703
20
-41.337469155890005
42
-0.41421356237311063
10
74.44829190159993
20
-42.337469155889906
10
69.448291901599973
20
-42.337469155889941
10
68.3612679758198
20
-42.337469155889956
42
-0.41421356237309503
10
67.3612679758198
20
-41.337469155889963
10
67.361267975819814
20
-27.337469155890023
42
-0.41421356237311585
10
68.361267975819814
20
-26.337469155889952
10
68.448291901599688
20
-26.337469155889952
10
68.448291901599703
20
-25.337469155889959
42
-0.41421356237309503
10
69.448291901599703
20
-24.337469155889959
10
74.448291901599703
20
-24.337469155889963
42
-0.41421356237309503
10
75.448291901599717
20
-25.337469155889959
42
0.4142135623730937
10
76.448291901599703
20
-26.337469155889956
10
91.324268464099873
20
-26.337469155889998
42
0.41421356237309503
10
92.324268464099873
20
-25.337469155889995
42
-0.41421356237309503
10
93.324268464099873
20
-24.337469155889995
10
98.324268464099873
20
-24.337469155889998
42
-0.41421356237309503
10
99.324268464099887
20
-25.337469155889995
10
99.324268464099887
20
-26.33746915589002
10
99.41133511448983
20
-26.337469155890037
42
-0.41421356237309503
0
LWPOLYLINE
5
245
100
AcDbEntity
8
0
100
AcDbPolyline
90
33
70
1
43
0.0
10
84.182951429378065
20
-97.487453182806121
10
82.742566803939894
20
-97.487456948859943
10
69.540477043669995
20
-97.487448894714319
42
0.41421356237310025
10
68.540477043669966
20
-98.487448894714333
42
-0.41421396338052874
10
67.540477043669995
20
-99.487448327604412
10
62.217585114469856
20
-99.487445308939755
42
-0.41421396338029087
10
61.217585114469848
20
-98.487444741829862
10
61.217585114469848
20
-97.487444741829847
42
-0.41421356237310281
10
60.217585114469742
20
-96.487444741829904
10
60.217585114469898
20
-84.487444741830018
42
-0.41421356237308204
10
61.217585114469848
20
-83.487444741830132
10
61.304660212149713
20
-83.48744474182979
10
61.304660212149713
20
-82.487469155890096
42
-0.41421356237309503
10
62.304660212149948
20
-81.487469155889869
10
67.30466021214994
20
-81.487469155889869
42
-0.41420998702127437
10
68.30466021207566
20
-82.487456948859915
42
0.41421356242558116
10
69.304660212149884
20
-83.487456948859929
10
82.742566716520116
20
-83.487456948859915
10
84.180667292229927
20
-83.487456948859915
42
0.41420998707394746
10
85.180667292229941
20
-82.487469155890096
42
-0.41421356237307944
10
86.180667292229884
20
-81.487469155889997
10
91.180667292229884
20
-81.487469155890153
42
-0.41420641154225424
10
92.180667292230027
20
-82.48744474182979
42
0.41421356237309503
10
93.180667292230027
20
-83.48744474182979
10
99.411335114489816
20
-83.487444741819843
42
-0.41421356237310025
10
100.41133511448984
20
-84.487444741819786
10
100.41133511448993
20
-96.487410751801562
42
-0.41421171356346603
10
99.41133511448993
20
-97.487413366418352
10
93.180667292231703
20
-97.487429657227111
42
0.41421356237309503
10
92.180664677614899
20
-98.487432271843886
42
-0.41421356237661733
10
91.180667292231817
20
-99.487434886460676
10
86.180667292229941
20
-99.487447959544653
42
-0.4142154111900116
10
85.180667292229955
20
-98.487450574161457
42
0.41354471164065126
0
LINE
5
246
100
AcDbEntity
8
0
100
AcDbLine
10
-176.82045352077023
20
-83.474461084670523
30
0
11
-176.82045352077023
21
-82.474461084670523
31
0
0
LINE
5
247
100
AcDbEntity
8
0
100
AcDbLine
10
-170.82045352077029
20
-81.474461084670523
30
0
11
-175.8204535207702
21
-81.474461084670523
31
0
0
LINE
5
248
100
AcDbEntity
8
0
100
AcDbLine
10
-168.82045352077029
20
-83.474461084670523
30
0
11
-153.94447695827023
21
-83.474461084670523
31
0
0
ARC
5
249
100
AcDbEntity
8
0
100
AcDbCircle
10
-175.8204535207702
20
-82.474461084670523
30
0
40
0.99999999999999645
210
0
220
-0
230
1
100
AcDbArc
50
90
51
180
0
ARC
5
250
100
AcDbEntity
8
0
100
AcDbCircle
10
-170.82045352077029
20
-82.474461084670523
30
0
40
1.0000000000000142
210
0
220
0
230
1
100
AcDbArc
50
0
51
90
0
ARC
5
251
100
AcDbEntity
8
0
100
AcDbCircle
10
-168.82045352077029
20
-82.474461084670523
30
0
40
1.0000000000000142
210
0
220
0
230
1
100
AcDbArc
50
180
51
270
0
ARC
5
252
100
AcDbEntity
8
0
100
AcDbCircle
10
-144.94447695827037
20
-98.475291084670431
30
0
40
1.0000740756551265
210
0
220
0
230
1
100
AcDbArc
50
90.697367938974025
51
179.30263206102589
0
LINE
5
253
100
AcDbEntity
8
0
100
AcDbLine
10
-146.94447695827029
20
-81.474461084670523
30
0
11
-151.94447695827026
21
-81.474461084670523
31
0
0
LINE
5
254
100
AcDbEntity
8
0
100
AcDbLine
10
-144.94447695827029
20
-83.474461084670523
30
0
11
-143.49511556084011
21
-83.474461084670537
31
0
0
ARC
5
255
100
AcDbEntity
8
0
100
AcDbCircle
10
-151.94447695827023
20
-82.474461084670523
30
0
40
0.99999999999999645
210
0
220
0
230
1
100
AcDbArc
50
90.000000000001634
51
180
0
ARC
5
256
100
AcDbEntity
8
0
100
AcDbCircle
10
-153.94447695827023
20
-82.474461084670523
30
0
40
0.99999999999999645
210
0
220
0
230
1
100
AcDbArc
50
-90
51
0
0
ARC
5
257
100
AcDbEntity
8
0
100
AcDbCircle
10
-146.94447695827029
20
-82.474461084670523
30
0
40
0.99999999999999645
210
0
220
0
230
1
100
AcDbArc
50
0
51
90
0
ARC
5
258
100
AcDbEntity
8
0
100
AcDbCircle
10
-144.94447695827029
20
-82.474461084670523
30
0
40
0.99999999999999645
210
0
220
0
230
1
100
AcDbArc
50
180
51
270
0
LWPOLYLINE
5
259
100
AcDbEntity
8
0
100
AcDbPolyline
90
8
70
1
43
0.0
10
-33.938670989030015
20
-102.53745084534019
10
-45.93867098903003
20
-102.53745084534025
42
0.41421356237309764
10
-46.938670989030022
20
-103.53745084534023
10
-46.93867098903003
20
-115.53745084534013
42
0.41421356237310025
10
-45.938670989030015
20
-116.53745084534012
10
-33.938670901610237
20
-116.53745084534012
42
0.41421353676843509
10
-32.938670989030072
20
-115.53745084534
10
-32.938670989030022
20
-103.53745084534012
42
0.4142135623730937
0
LWPOLYLINE
5
260
100
AcDbEntity
8
0
100
AcDbPolyline
90
8
70
1
43
0.0
10
-179.28872286891036
20
-2.5249691558896026
42
0.41421356237307472
10
-180.28872286891047
20
-3.5249691558897256
10
-180.28872286891038
20
-15.524969112179864
42
0.414213575175366
10
-179.28872286891036
20
-16.524969155889838
10
-167.28872286891018
20
-16.524969155889512
42
0.41421356237310347
10
-166.28872286891024
20
-15.524969155889611
10
-166.28872286891036
20
-3.5249691121799813
42
0.41421354957077949
10
-167.28872286891018
20
-2.5249691558897851
0
ENDSEC
0
SECTION
2
OBJECTS
0
DICTIONARY
5
C
100
AcDbDictionary
3
ACAD_GROUP
350
D
3
ACAD_MLINESTYLE
350
17
0
DICTIONARY
5
D
100
AcDbDictionary
0
DICTIONARY
5
1A
330
C
100
AcDbDictionary
0
DICTIONARY
5
17
100
AcDbDictionary
0
ENDSEC
0
EOF
