0
SECTION
2
HEADER
9
$INSUNITS
70
4
9
$ACADVER
1
AC1014
9
$HANDSEED
5
FFFF
0
ENDSEC
0
SECTION
2
TABLES
0
TABLE
2
VPORT
5
8
100
AcDbSymbolTable
0
ENDTAB
0
TABLE
2
LTYPE
5
5
100
AcDbSymbolTable
0
LTYPE
5
14
100
AcDbSymbolTableRecord
100
AcDbLinetypeTableRecord
2
BYBLOCK
70
0
0
LTYPE
5
15
100
AcDbSymbolTableRecord
100
AcDbLinetypeTableRecord
2
BYLAYER
70
0
0
ENDTAB
0
TABLE
2
LAYER
5
2
100
AcDbSymbolTable
70
2
0
LAYER
5
50
100
AcDbSymbolTableRecord
100
AcDbLayerTableRecord
2
0
70
0
6
CONTINUOUS
0
ENDTAB
0
TABLE
2
STYLE
5
3
100
AcDbSymbolTable
70
1
0
STYLE
5
11
100
AcDbSymbolTableRecord
100
AcDbTextStyleTableRecord
2
STANDARD
70
0
0
ENDTAB
0
TABLE
2
VIEW
5
6
100
AcDbSymbolTable
70
0
0
ENDTAB
0
TABLE
2
UCS
5
7
100
AcDbSymbolTable
70
0
0
ENDTAB
0
TABLE
2
APPID
5
9
100
AcDbSymbolTable
70
2
0
APPID
5
12
100
AcDbSymbolTableRecord
100
AcDbRegAppTableRecord
2
ACAD
70
0
0
ENDTAB
0
TABLE
2
DIMSTYLE
5
A
100
AcDbSymbolTable
70
1
0
ENDTAB
0
TABLE
2
BLOCK_RECORD
5
1
100
AcDbSymbolTable
70
1
0
BLOCK_RECORD
5
1F
100
AcDbSymbolTableRecord
100
AcDbBlockTableRecord
2
*MODEL_SPACE
0
BLOCK_RECORD
5
1B
100
AcDbSymbolTableRecord
100
AcDbBlockTableRecord
2
*PAPER_SPACE
0
ENDTAB
0
ENDSEC
0
SECTION
2
BLOCKS
0
BLOCK
5
20
100
AcDbEntity
100
AcDbBlockBegin
2
*MODEL_SPACE
0
ENDBLK
5
21
100
AcDbEntity
100
AcDbBlockEnd
0
BLOCK
5
1C
100
AcDbEntity
100
AcDbBlockBegin
2
*PAPER_SPACE
0
ENDBLK
5
1D
100
AcDbEntity
100
AcDbBlockEnd
0
ENDSEC
0
SECTION
2
ENTITIES
0
LWPOLYLINE
5
100
100
AcDbEntity
8
0
100
AcDbPolyline
90
8
70
1
43
0.0
10
107.20600000000002
20
-26.637999999999991
10
107.20600000000002
20
-40.137599999999992
42
0.41421356237313667
10
107.45600000000002
20
-40.387599999999999
10
120.95700000000001
20
-40.387599999999999
42
0.41421356237310542
10
121.20699999999999
20
-40.137599999999992
10
121.20700000000001
20
-26.637999999999998
42
0.41421356237312101
10
120.95700000000001
20
-26.388000000000005
10
107.45600000000002
20
-26.387999999999998
42
0.41421356237312101
0
LWPOLYLINE
5
101
100
AcDbEntity
8
0
100
AcDbPolyline
90
8
70
1
43
0.0
10
140.25700000000001
20
-40.137599999999992
10
140.25700000000001
20
-26.637999999999998
42
0.41421356237313145
10
140.00700000000001
20
-26.387999999999998
10
126.50700000000002
20
-26.387999999999998
42
0.41421356237312101
10
126.25700000000002
20
-26.637999999999991
10
126.25700000000002
20
-40.137599999999992
42
0.41421356237313667
10
126.50700000000002
20
-40.387599999999999
10
140.00700000000001
20
-40.387599999999999
42
0.41421356237313667
0
LINE
5
102
100
AcDbEntity
8
0
100
AcDbLine
10
140.00700000000001
20
-40.387599999999999
30
0
11
126.50700000000002
21
-40.387599999999999
31
0
0
LINE
5
103
100
AcDbEntity
8
0
100
AcDbLine
10
126.25700000000002
20
-40.137599999999992
30
0
11
126.25700000000002
21
-26.637999999999991
31
0
0
LWPOLYLINE
5
104
100
AcDbEntity
8
0
100
AcDbPolyline
90
8
70
1
43
0.0
10
159.30700000000002
20
-40.137599999999992
10
159.30700000000002
20
-26.637999999999998
42
0.41421356237313145
10
159.05700000000002
20
-26.387999999999998
10
145.55600000000001
20
-26.387999999999998
42
0.41421356237311063
10
145.30599999999998
20
-26.637999999999991
10
145.30600000000001
20
-40.137599999999992
42
0.41421356237310542
10
145.55600000000001
20
-40.387600000000006
10
159.05700000000002
20
-40.387599999999999
42
0.41421356237313667
0
LWPOLYLINE
5
105
100
AcDbEntity
8
0
100
AcDbPolyline
90
8
70
1
43
0.0
10
235.25700000000003
20
-26.387999999999998
10
221.75700000000001
20
-26.387999999999984
42
0.41421356237312101
10
221.50700000000001
20
-26.637999999999991
10
221.50700000000001
20
-40.137599999999992
42
0.41421356237313667
10
221.75700000000001
20
-40.387599999999999
10
235.25700000000003
20
-40.387599999999999
42
0.41421356237326151
10
235.50700000000006
20
-40.137599999999992
10
235.50700000000006
20
-26.637999999999998
42
0.41421356237325113
0
LWPOLYLINE
5
106
100
AcDbEntity
8
0
100
AcDbPolyline
90
8
70
1
43
0.0
10
164.357
20
-26.637999999999991
10
164.357
20
-40.137599999999992
42
0.41421356237326151
10
164.607
20
-40.387599999999978
10
178.107
20
-40.387599999999978
42
0.41421356237326151
10
178.357
20
-40.137599999999992
10
178.357
20
-26.637999999999998
42
0.41421356237325113
10
178.107
20
-26.388000000000019
10
164.607
20
-26.388000000000019
42
0.41421356237324591
0
LWPOLYLINE
5
107
100
AcDbEntity
8
0
100
AcDbPolyline
90
8
70
1
43
0.0
10
216.20700000000002
20
-26.388000000000019
10
202.70599999999999
20
-26.388000000000019
42
0.41421356237324591
10
202.45599999999999
20
-26.637999999999991
10
202.45599999999996
20
-40.137599999999992
42
0.41421356237326151
10
202.70599999999999
20
-40.387599999999999
10
216.20700000000002
20
-40.387599999999999
42
0.41421356237326151
10
216.45700000000005
20
-40.137599999999992
10
216.45700000000002
20
-26.637999999999998
42
0.41421356237325113
0
LWPOLYLINE
5
108
100
AcDbEntity
8
0
100
AcDbPolyline
90
8
70
1
43
0.0
10
240.55599999999998
20
-26.637999999999991
10
240.55599999999998
20
-40.137599999999992
42
0.41421356237313667
10
240.80599999999998
20
-40.387599999999999
10
254.30700000000004
20
-40.387599999999978
42
0.41421356237326151
10
254.55700000000004
20
-40.137599999999992
10
254.55700000000007
20
-26.637999999999998
42
0.41421356237325113
10
254.30700000000004
20
-26.387999999999998
10
240.80599999999998
20
-26.387999999999984
42
0.41421356237312101
0
LINE
5
109
100
AcDbEntity
8
0
100
AcDbLine
10
126.50700000000002
20
-26.387999999999998
30
0
11
140.00700000000001
21
-26.387999999999998
31
0
0
LWPOLYLINE
5
110
100
AcDbEntity
8
0
100
AcDbPolyline
90
8
70
1
43
0.0
10
183.65700000000001
20
-40.387599999999978
10
197.15700000000004
20
-40.387599999999999
42
0.41421356237313667
10
197.40700000000004
20
-40.137599999999992
10
197.40700000000004
20
-26.637999999999998
42
0.41421356237312623
10
197.15700000000004
20
-26.387999999999984
10
183.65700000000001
20
-26.388000000000019
42
0.41421356237324591
10
183.40700000000001
20
-26.637999999999991
10
183.40700000000001
20
-40.137599999999992
42
0.41421356237326151
0
LINE
5
111
100
AcDbEntity
8
0
100
AcDbLine
10
216.45700000000002
20
-26.637999999999998
30
0
11
216.45700000000005
21
-40.137599999999992
31
0
0
LINE
5
112
100
AcDbEntity
8
0
100
AcDbLine
10
221.50700000000001
20
-40.137599999999992
30
0
11
221.50700000000001
21
-26.637999999999991
31
0
0
LINE
5
113
100
AcDbEntity
8
0
100
AcDbLine
10
254.30700000000004
20
-40.387599999999978
30
0
11
240.80599999999998
21
-40.387599999999999
31
0
0
LINE
5
114
100
AcDbEntity
8
0
100
AcDbLine
10
183.40700000000001
20
-40.137599999999992
30
0
11
183.40700000000001
21
-26.637999999999991
31
0
0
LINE
5
115
100
AcDbEntity
8
0
100
AcDbLine
10
235.25700000000003
20
-40.387599999999999
30
0
11
221.75700000000001
21
-40.387599999999999
31
0
0
LINE
5
116
100
AcDbEntity
8
0
100
AcDbLine
10
240.80599999999998
20
-26.387999999999984
30
0
11
254.30700000000004
21
-26.387999999999998
31
0
0
LWPOLYLINE
5
117
100
AcDbEntity
8
0
100
AcDbPolyline
90
8
70
1
43
0.0
10
92.381699999999995
20
-7.3379999999999868
10
78.882400000000018
20
-7.3379999999999876
42
0.41421356237308593
10
78.632400000000018
20
-7.5879999999999832
10
78.632400000000018
20
-21.087599999999988
42
0.41421356237308982
10
78.882400000000018
20
-21.337599999999988
10
92.381699999999995
20
-21.337599999999981
42
0.41421356237312101
10
92.631700000000009
20
-21.087599999999988
10
92.631700000000009
20
-7.5879999999999868
42
0.41421356237309631
0
LWPOLYLINE
5
118
100
AcDbEntity
8
0
100
AcDbPolyline
90
8
70
1
43
0.0
10
59.58100000000001
20
-7.5879999999999832
10
59.58100000000001
20
-21.087599999999988
42
0.414213562373069
10
59.83100000000001
20
-21.337599999999988
10
73.331700000000012
20
-21.337599999999988
42
0.41421356237305862
10
73.581699999999998
20
-21.087599999999988
10
73.581699999999998
20
-7.5879999999999868
42
0.41421356237306772
10
73.331699999999998
20
-7.3379999999999868
10
59.83100000000001
20
-7.3379999999999876
42
0.41421356237306511
0
LWPOLYLINE
5
119
100
AcDbEntity
8
0
100
AcDbPolyline
90
8
70
1
43
0.0
10
111.682
20
-21.087599999999988
10
111.682
20
-7.5879999999999868
42
0.41421356237309631
10
111.432
20
-7.3379999999999868
10
97.932400000000001
20
-7.3379999999999823
42
0.41421356237309243
10
97.682400000000001
20
-7.5879999999999832
10
97.682399999999987
20
-21.087599999999988
42
0.41421356237312101
10
97.932400000000001
20
-21.337599999999988
10
111.432
20
-21.337599999999981
42
0.41421356237312101
0
LINE
5
120
100
AcDbEntity
8
0
100
AcDbLine
10
97.932400000000001
20
-7.3379999999999823
30
0
11
111.432
21
-7.3379999999999868
31
0
0
LWPOLYLINE
5
121
100
AcDbEntity
8
0
100
AcDbPolyline
90
8
70
1
43
0.0
10
54.281700000000001
20
-7.3379999999999868
10
40.78240000000001
20
-7.3379999999999876
42
0.41421356237308593
10
40.53240000000001
20
-7.5879999999999832
10
40.53240000000001
20
-21.087599999999988
42
0.41421356237308982
10
40.78240000000001
20
-21.337599999999988
10
54.281700000000001
20
-21.337599999999988
42
0.41421356237308982
10
54.531700000000001
20
-21.087599999999988
10
54.531700000000001
20
-7.5879999999999868
42
0.41421356237308854
0
LINE
5
122
100
AcDbEntity
8
0
100
AcDbLine
10
111.432
20
-21.337599999999981
30
0
11
97.932400000000001
21
-21.337599999999988
31
0
0
LINE
5
123
100
AcDbEntity
8
0
100
AcDbLine
10
73.581699999999998
20
-7.5879999999999868
30
0
11
73.581699999999998
21
-21.087599999999988
31
0
0
LWPOLYLINE
5
124
100
AcDbEntity
8
0
100
AcDbPolyline
90
8
70
1
43
0.0
10
130.482
20
-7.3379999999999868
10
116.98200000000001
20
-7.3379999999999912
42
0.41421356237312362
10
116.73200000000001
20
-7.5879999999999832
10
116.73200000000001
20
-21.087599999999988
42
0.41421356237313145
10
116.98200000000001
20
-21.337599999999988
10
130.482
20
-21.337599999999988
42
0.41421356237313145
10
130.732
20
-21.087599999999988
10
130.732
20
-7.5879999999999868
42
0.41421356237312756
0
LINE
5
125
100
AcDbEntity
8
0
100
AcDbLine
10
97.682399999999987
20
-21.087599999999988
30
0
11
97.682400000000001
21
-7.5879999999999832
31
0
0
LWPOLYLINE
5
126
100
AcDbEntity
8
0
100
AcDbPolyline
90
8
70
1
43
0.0
10
16.181699999999999
20
-7.3379999999999868
10
2.6822400000000002
20
-7.3379999999999868
42
0.41421356237308593
10
2.4322400000000002
20
-7.5879999999999832
10
2.4322400000000011
20
-21.087599999999988
42
0.41421356237309503
10
2.6822400000000002
20
-21.337599999999988
10
16.181699999999999
20
-21.337599999999988
42
0.41421356237309503
10
16.431699999999999
20
-21.087599999999988
10
16.431699999999999
20
-7.5879999999999868
42
0.41421356237310025
0
LWPOLYLINE
5
127
100
AcDbEntity
8
0
100
AcDbPolyline
90
8
70
1
43
0.0
10
35.231699999999996
20
-7.3379999999999868
10
21.732199999999999
20
-7.337999999999985
42
0.41421356237309503
10
21.482199999999999
20
-7.5879999999999832
10
21.482199999999999
20
-21.087599999999988
42
0.41421356237309503
10
21.732199999999999
20
-21.337599999999988
10
35.231699999999996
20
-21.337599999999988
42
0.41421356237309503
10
35.481699999999996
20
-21.087599999999988
10
35.481699999999996
20
-7.5879999999999868
42
0.41421356237309631
0
LINE
5
128
100
AcDbEntity
8
0
100
AcDbLine
10
16.181699999999999
20
-21.337599999999988
30
0
11
2.6822400000000002
21
-21.337599999999988
31
0
0
LINE
5
129
100
AcDbEntity
8
0
100
AcDbLine
10
54.531700000000001
20
-7.5879999999999868
30
0
11
54.531700000000001
21
-21.087599999999988
31
0
0
LINE
5
130
100
AcDbEntity
8
0
100
AcDbLine
10
273.60700000000003
20
-7.3379999999999868
30
0
11
259.60599999999999
21
-7.3379999999999868
31
0
0
LINE
5
131
100
AcDbEntity
8
0
100
AcDbLine
10
16.431699999999999
20
-7.5879999999999868
30
0
11
16.431699999999999
21
-21.087599999999988
31
0
0
LINE
5
132
100
AcDbEntity
8
0
100
AcDbLine
10
92.631700000000009
20
-7.5879999999999868
30
0
11
92.631700000000009
21
-21.087599999999988
31
0
0
LINE
5
133
100
AcDbEntity
8
0
100
AcDbLine
10
59.83100000000001
20
-7.3379999999999876
30
0
11
73.331699999999998
21
-7.3379999999999868
31
0
0
LINE
5
134
100
AcDbEntity
8
0
100
AcDbLine
10
21.482199999999999
20
-21.087599999999988
30
0
11
21.482199999999999
21
-7.5879999999999832
31
0
0
LINE
5
135
100
AcDbEntity
8
0
100
AcDbLine
10
73.331700000000012
20
-21.337599999999988
30
0
11
59.83100000000001
21
-21.337599999999988
31
0
0
LINE
5
136
100
AcDbEntity
8
0
100
AcDbLine
10
78.632400000000018
20
-21.087599999999988
30
0
11
78.632400000000018
21
-7.5879999999999832
31
0
0
LWPOLYLINE
5
137
100
AcDbEntity
8
0
100
AcDbPolyline
90
8
70
1
43
0.0
10
244.78200000000004
20
-7.3379999999999868
10
231.28199999999998
20
-7.3379999999999708
42
0.41421356237312623
10
231.03200000000001
20
-7.5879999999999832
10
231.03200000000001
20
-21.087599999999988
42
0.41421356237312623
10
231.28199999999998
20
-21.337599999999988
10
244.78200000000004
20
-21.337599999999966
42
0.41421356237325113
10
245.03200000000004
20
-21.087599999999988
10
245.03200000000007
20
-7.5879999999999868
42
0.41421356237325502
0
LWPOLYLINE
5
138
100
AcDbEntity
8
0
100
AcDbPolyline
90
8
70
1
43
0.0
10
168.58199999999999
20
-7.3379999999999868
10
155.08100000000002
20
-7.3379999999999823
42
0.41421356237309764
10
154.83100000000002
20
-7.5879999999999885
10
154.83100000000002
20
-21.087599999999988
42
0.41421356237312101
10
155.08100000000002
20
-21.337599999999988
10
168.58199999999999
20
-21.337599999999966
42
0.41421356237325113
10
168.83199999999999
20
-21.087599999999988
10
168.83200000000002
20
-7.5879999999999868
42
0.41421356237325502
0
LINE
5
139
100
AcDbEntity
8
0
100
AcDbLine
10
231.03200000000001
20
-21.087599999999988
30
0
11
231.03200000000001
21
-7.5879999999999832
31
0
0
LWPOLYLINE
5
140
100
AcDbEntity
8
0
100
AcDbPolyline
90
8
70
1
43
0.0
10
193.18099999999998
20
-21.337599999999988
10
206.68200000000007
20
-21.337600000000002
42
0.41421356237312623
10
206.93200000000004
20
-21.087599999999988
10
206.93200000000004
20
-7.5879999999999868
42
0.41421356237313017
10
206.68200000000007
20
-7.3379999999999868
10
193.18099999999998
20
-7.3380000000000063
42
0.41421356237325113
10
192.93099999999998
20
-7.5879999999999832
10
192.93099999999995
20
-21.087599999999988
42
0.41421356237325113
0
LINE
5
141
100
AcDbEntity
8
0
100
AcDbLine
10
130.482
20
-21.337599999999988
30
0
11
116.98200000000001
21
-21.337599999999988
31
0
0
LWPOLYLINE
5
142
100
AcDbEntity
8
0
100
AcDbPolyline
90
8
70
1
43
0.0
10
225.73200000000003
20
-7.3379999999999868
10
212.23199999999997
20
-7.3379999999999708
42
0.41421356237312623
10
211.982
20
-7.5879999999999832
10
211.982
20
-21.087599999999988
42
0.41421356237312623
10
212.23199999999997
20
-21.337599999999988
10
225.73200000000003
20
-21.337599999999966
42
0.41421356237325113
10
225.98200000000003
20
-21.087599999999988
10
225.98200000000006
20
-7.5879999999999868
42
0.41421356237325502
0
LWPOLYLINE
5
143
100
AcDbEntity
8
0
100
AcDbPolyline
90
8
70
1
43
0.0
10
173.88200000000001
20
-7.5879999999999832
10
173.88199999999998
20
-21.087599999999988
42
0.41421356237325113
10
174.13200000000001
20
-21.337599999999988
10
187.63200000000001
20
-21.337599999999966
42
0.41421356237325113
10
187.88200000000001
20
-21.087599999999988
10
187.88200000000003
20
-7.5879999999999868
42
0.41421356237325502
10
187.63200000000001
20
-7.3379999999999868
10
174.13200000000001
20
-7.3380000000000063
42
0.41421356237325113
0
LWPOLYLINE
5
144
100
AcDbEntity
8
0
100
AcDbPolyline
90
8
70
1
43
0.0
10
135.78200000000004
20
-7.5879999999999832
10
135.78200000000004
20
-21.087599999999988
42
0.41421356237313145
10
136.03200000000004
20
-21.337599999999988
10
149.53200000000001
20
-21.337599999999988
42
0.41421356237313145
10
149.78200000000001
20
-21.087599999999988
10
149.78200000000001
20
-7.5879999999999868
42
0.41421356237312756
10
149.53200000000001
20
-7.3379999999999868
10
136.03200000000004
20
-7.3379999999999912
42
0.41421356237312362
0
LINE
5
145
100
AcDbEntity
8
0
100
AcDbLine
10
116.73200000000001
20
-21.087599999999988
30
0
11
116.73200000000001
21
-7.5879999999999832
31
0
0
LINE
5
146
100
AcDbEntity
8
0
100
AcDbLine
10
244.78200000000004
20
-21.337599999999966
30
0
11
231.28199999999998
21
-21.337599999999988
31
0
0
LINE
5
147
100
AcDbEntity
8
0
100
AcDbLine
10
193.18099999999998
20
-7.3380000000000063
30
0
11
206.68200000000007
21
-7.3379999999999868
31
0
0
LINE
5
148
100
AcDbEntity
8
0
100
AcDbLine
10
149.53200000000001
20
-21.337599999999988
30
0
11
136.03200000000004
21
-21.337599999999988
31
0
0
LINE
5
149
100
AcDbEntity
8
0
100
AcDbLine
10
192.93099999999995
20
-21.087599999999988
30
0
11
192.93099999999998
21
-7.5879999999999832
31
0
0
LINE
5
150
100
AcDbEntity
8
0
100
AcDbLine
10
130.732
20
-7.5879999999999868
30
0
11
130.732
21
-21.087599999999988
31
0
0
LWPOLYLINE
5
151
100
AcDbEntity
8
0
100
AcDbPolyline
90
15
70
1
43
0.0
10
285.47000000000003
20
-59.138500000000001
10
285.47000000000008
20
-6.9760999999999989
42
0.41421356237310725
10
283.47000000000003
20
-4.9760999999999989
10
2.0950845999999999
20
-4.9760999999999989
42
0.41421356237309542
10
0.095084599999999964
20
-6.9761000000000006
10
0.095084599999999964
20
-59.138500000000001
10
0.095084599999999964
20
-59.53895007995601
10
0.095084600000000019
20
-63.737984003959298
10
0.095084600000000019
20
-64.139399999999995
10
0.095084599999988306
20
-97.903537100000023
42
0.41421356237310086
10
2.0950846000000212
20
-99.903537100000008
10
283.47000000000003
20
-99.903537100000008
42
0.41421356237309503
10
285.47000000000003
20
-97.903537100000023
10
285.47000000000003
20
-64.139399999999995
10
285.47000000000003
20
-63.738950000000003
0
LINE
5
152
100
AcDbEntity
8
0
100
AcDbLine
10
283.47000000000003
20
-99.903537100000008
30
0
11
2.0950846000000212
21
-99.903537100000008
31
0
0
LWPOLYLINE
5
153
100
AcDbEntity
8
0
100
AcDbPolyline
90
8
70
1
43
0.0
10
216.995
20
-97.537450000000007
10
230.49600000000001
20
-97.537449999999978
42
0.41421356237326151
10
230.74600000000001
20
-97.287450000000007
10
230.74600000000004
20
-83.787900000000008
42
0.41421356237326151
10
230.49600000000001
20
-83.537900000000008
10
216.995
20
-83.537899999999979
42
0.41421356237313667
10
216.745
20
-83.787900000000008
10
216.745
20
-97.287450000000007
42
0.41421356237313667
0
LWPOLYLINE
5
154
100
AcDbEntity
8
0
100
AcDbPolyline
90
8
70
1
43
0.0
10
44.756700000000002
20
-83.537900000000008
10
31.255900000000004
20
-83.537900000000008
42
0.41421356237313145
10
31.005900000000004
20
-83.787900000000008
10
31.005900000000011
20
-97.287450000000007
42
0.41421356237312101
10
31.255900000000004
20
-97.537450000000007
10
44.756700000000002
20
-97.537450000000021
42
0.4142135623730846
10
45.006700000000002
20
-97.287450000000007
10
45.006700000000002
20
-83.787900000000008
42
0.41421356237309503
0
LWPOLYLINE
5
155
100
AcDbEntity
8
0
100
AcDbPolyline
90
8
70
1
43
0.0
10
264.37
20
-83.787900000000008
10
264.37
20
-97.287450000000007
42
0.41421356237326151
10
264.62
20
-97.537449999999978
10
278.11900000000003
20
-97.537449999999978
42
0.41421356237326151
10
278.36900000000003
20
-97.287450000000007
10
278.36900000000009
20
-83.787900000000008
42
0.41421356237326151
10
278.11900000000003
20
-83.537900000000008
10
264.62
20
-83.537900000000022
42
0.41421356237326151
0
LWPOLYLINE
5
156
100
AcDbEntity
8
0
100
AcDbPolyline
90
8
70
1
43
0.0
10
7.4447300000000016
20
-97.537450000000007
10
20.945599999999999
20
-97.537450000000021
42
0.41421356237312101
10
21.195599999999999
20
-97.287450000000007
10
21.195599999999999
20
-83.787900000000008
42
0.41421356237313145
10
20.945599999999999
20
-83.537900000000008
10
7.4447300000000007
20
-83.537900000000008
42
0.41421356237312756
10
7.1947299999999998
20
-83.787900000000008
10
7.1947299999999963
20
-97.287450000000007
42
0.41421356237309764
0
LWPOLYLINE
5
157
100
AcDbEntity
8
0
100
AcDbPolyline
90
8
70
1
43
0.0
10
254.55700000000004
20
-97.287450000000007
10
254.55700000000007
20
-83.787900000000008
42
0.41421356237326151
10
254.30700000000004
20
-83.537900000000008
10
240.80599999999998
20
-83.537899999999979
42
0.41421356237313667
10
240.55599999999998
20
-83.787900000000008
10
240.55599999999998
20
-97.287450000000007
42
0.41421356237313667
10
240.80599999999998
20
-97.537450000000007
10
254.30700000000004
20
-97.537449999999978
42
0.41421356237326151
0
LINE
5
158
100
AcDbEntity
8
0
100
AcDbLine
10
278.11900000000003
20
-97.537449999999978
30
0
11
264.62
21
-97.537449999999978
31
0
0
LWPOLYLINE
5
159
100
AcDbEntity
8
0
100
AcDbPolyline
90
8
70
1
43
0.0
10
54.818500000000007
20
-83.787900000000008
10
54.818500000000014
20
-97.287450000000007
42
0.4142135623730846
10
55.068500000000007
20
-97.537450000000007
10
68.569199999999995
20
-97.537450000000021
42
0.4142135623730846
10
68.819199999999995
20
-97.287450000000007
10
68.819199999999995
20
-83.787900000000008
42
0.41421356237309503
10
68.569199999999995
20
-83.537900000000008
10
55.068500000000007
20
-83.537900000000008
42
0.41421356237309503
0
LINE
5
160
100
AcDbEntity
8
0
100
AcDbLine
10
0.095084599999999964
20
-59.138500000000001
30
0
11
0.095084599999999964
21
-6.9761000000000006
31
0
0
LINE
5
161
100
AcDbEntity
8
0
100
AcDbLine
10
55.068500000000007
20
-83.537900000000008
30
0
11
68.569199999999995
21
-83.537900000000008
31
0
0
LINE
5
162
100
AcDbEntity
8
0
100
AcDbLine
10
264.62
20
-83.537900000000022
30
0
11
278.11900000000003
21
-83.537900000000008
31
0
0
LINE
5
163
100
AcDbEntity
8
0
100
AcDbLine
10
68.819199999999995
20
-83.787900000000008
30
0
11
68.819199999999995
21
-97.287450000000007
31
0
0
LINE
5
164
100
AcDbEntity
8
0
100
AcDbLine
10
68.569199999999995
20
-97.537450000000021
30
0
11
55.068500000000007
21
-97.537450000000007
31
0
0
LINE
5
165
100
AcDbEntity
8
0
100
AcDbLine
10
21.195599999999999
20
-83.787900000000008
30
0
11
21.195599999999999
21
-97.287450000000007
31
0
0
LINE
5
166
100
AcDbEntity
8
0
100
AcDbLine
10
278.36900000000009
20
-83.787900000000008
30
0
11
278.36900000000003
21
-97.287450000000007
31
0
0
LINE
5
167
100
AcDbEntity
8
0
100
AcDbLine
10
45.006700000000002
20
-83.787900000000008
30
0
11
45.006700000000002
21
-97.287450000000007
31
0
0
LINE
5
168
100
AcDbEntity
8
0
100
AcDbLine
10
240.55599999999998
20
-97.287450000000007
30
0
11
240.55599999999998
21
-83.787900000000008
31
0
0
LINE
5
169
100
AcDbEntity
8
0
100
AcDbLine
10
269.71199999999999
20
-79.457599999999999
30
0
11
272.76299999999998
21
-79.457600000000014
31
0
0
LINE
5
170
100
AcDbEntity
8
0
100
AcDbLine
10
216.995
20
-83.537899999999979
30
0
11
230.49600000000001
21
-83.537900000000008
31
0
0
LWPOLYLINE
5
171
100
AcDbEntity
8
0
100
AcDbPolyline
90
8
70
1
43
0.0
10
136.03200000000004
20
-83.537900000000008
10
149.53200000000001
20
-83.537900000000008
42
-0.4142135623731783
10
149.78200000000001
20
-83.787900000000008
10
149.78200000000001
20
-97.287900000000008
42
-0.41421356237313667
10
149.53200000000001
20
-97.537900000000008
10
136.03200000000004
20
-97.537900000000008
42
-0.41421356237313667
10
135.78200000000004
20
-97.287900000000008
10
135.78200000000004
20
-83.787900000000008
42
-0.4142135623731783
0
LINE
5
172
100
AcDbEntity
8
0
100
AcDbLine
10
254.30700000000004
20
-97.537449999999978
30
0
11
240.80599999999998
21
-97.537450000000007
31
0
0
LINE
5
173
100
AcDbEntity
8
0
100
AcDbLine
10
230.74600000000004
20
-83.787900000000008
30
0
11
230.74600000000001
21
-97.287450000000007
31
0
0
LINE
5
174
100
AcDbEntity
8
0
100
AcDbLine
10
216.745
20
-97.287450000000007
30
0
11
216.745
21
-83.787900000000008
31
0
0
LINE
5
175
100
AcDbEntity
8
0
100
AcDbLine
10
7.4447300000000007
20
-83.537900000000008
30
0
11
20.945599999999999
21
-83.537900000000008
31
0
0
LINE
5
176
100
AcDbEntity
8
0
100
AcDbLine
10
44.756700000000002
20
-97.537450000000021
30
0
11
31.255900000000004
21
-97.537450000000007
31
0
0
LINE
5
177
100
AcDbEntity
8
0
100
AcDbLine
10
240.80599999999998
20
-83.537899999999979
30
0
11
254.30700000000004
21
-83.537900000000008
31
0
0
LWPOLYLINE
5
178
100
AcDbEntity
8
0
100
AcDbPolyline
90
8
70
1
43
0.0
10
59.295600000000007
20
-78.237399999999994
10
59.295600000000007
20
-64.738
42
0.41421356237309503
10
59.0456
20
-64.488
10
45.544900000000005
20
-64.488
42
0.4142135623730534
10
45.294899999999998
20
-64.738
10
45.294899999999998
20
-78.237399999999994
42
0.41421356237307422
10
45.544900000000005
20
-78.487399999999994
10
59.0456
20
-78.487400000000008
42
0.41421356237307422
0
LINE
5
179
100
AcDbEntity
8
0
100
AcDbLine
10
45.294899999999998
20
-78.237399999999994
30
0
11
45.294899999999998
21
-64.738
31
0
0
LINE
5
180
100
AcDbEntity
8
0
100
AcDbLine
10
252.46200000000002
20
-78.487399999999994
30
0
11
266.21199999999999
21
-78.487400000000008
31
0
0
LINE
5
181
100
AcDbEntity
8
0
100
AcDbLine
10
267.98700000000002
20
-65.958299999999994
30
0
11
267.98700000000002
21
-69.188499999999991
31
0
0
LINE
5
182
100
AcDbEntity
8
0
100
AcDbLine
10
267.98700000000002
20
-73.788299999999992
30
0
11
267.98700000000002
21
-78.257300000000001
31
0
0
LWPOLYLINE
5
183
100
AcDbEntity
8
0
100
AcDbPolyline
90
8
70
1
43
0.0
10
78.345600000000005
20
-78.237399999999994
10
78.345600000000005
20
-64.738
42
0.41421356237307422
10
78.095600000000005
20
-64.488
10
64.59490000000001
20
-64.488
42
0.41421356237307422
10
64.344899999999996
20
-64.738
10
64.344899999999996
20
-78.237399999999994
42
0.41421356237309503
10
64.59490000000001
20
-78.487399999999994
10
78.095600000000005
20
-78.487400000000008
42
0.4142135623730534
0
LWPOLYLINE
5
184
100
AcDbEntity
8
0
100
AcDbPolyline
90
8
70
1
43
0.0
10
121.49500000000002
20
-64.738
10
121.49500000000003
20
-78.237399999999994
42
0.41421356237310542
10
121.74500000000002
20
-78.487399999999994
10
135.24600000000001
20
-78.487399999999994
42
0.41421356237313667
10
135.49600000000001
20
-78.237399999999994
10
135.49600000000001
20
-64.738
42
0.41421356237313667
10
135.24600000000001
20
-64.488
10
121.74500000000002
20
-64.488
42
0.4142135623730846
0
LWPOLYLINE
5
185
100
AcDbEntity
8
0
100
AcDbPolyline
90
8
70
1
43
0.0
10
116.44400000000002
20
-78.237399999999994
10
116.44400000000002
20
-64.738
42
0.41421356237313667
10
116.194
20
-64.488
10
102.69500000000001
20
-64.488
42
0.41421356237310542
10
102.44500000000001
20
-64.738
10
102.44500000000002
20
-78.237399999999994
42
0.41421356237310542
10
102.69500000000001
20
-78.487399999999994
10
116.194
20
-78.487400000000008
42
0.41421356237309503
0
LWPOLYLINE
5
186
100
AcDbEntity
8
0
100
AcDbPolyline
90
8
70
1
43
0.0
10
154.54399999999998
20
-78.237399999999994
10
154.54399999999998
20
-64.738
42
0.41421356237313667
10
154.29399999999998
20
-64.488
10
140.79499999999999
20
-64.488
42
0.41421356237310542
10
140.54499999999999
20
-64.738
10
140.54500000000002
20
-78.237399999999994
42
0.41421356237310542
10
140.79499999999999
20
-78.487399999999994
10
154.29399999999998
20
-78.487400000000008
42
0.41421356237309503
0
LWPOLYLINE
5
187
100
AcDbEntity
8
0
100
AcDbPolyline
90
8
70
1
43
0.0
10
83.394900000000007
20
-64.738
10
83.394900000000007
20
-78.237399999999994
42
0.41421356237313667
10
83.644900000000021
20
-78.487399999999994
10
97.145600000000002
20
-78.487400000000008
42
0.41421356237309503
10
97.395600000000002
20
-78.237399999999994
10
97.395600000000002
20
-64.738
42
0.41421356237313667
10
97.145600000000002
20
-64.488
10
83.644900000000021
20
-64.488
42
0.41421356237309503
0
LINE
5
188
100
AcDbEntity
8
0
100
AcDbLine
10
97.395600000000002
20
-64.738
30
0
11
97.395600000000002
21
-78.237399999999994
31
0
0
LINE
5
189
100
AcDbEntity
8
0
100
AcDbLine
10
266.46199999999999
20
-78.237399999999994
30
0
11
266.46199999999999
21
-73.788299999999992
31
0
0
LINE
5
190
100
AcDbEntity
8
0
100
AcDbLine
10
102.69500000000001
20
-64.488
30
0
11
116.194
21
-64.488
31
0
0
LINE
5
191
100
AcDbEntity
8
0
100
AcDbLine
10
266.46199999999999
20
-69.188500000000005
30
0
11
266.46199999999999
21
-64.738
31
0
0
LINE
5
192
100
AcDbEntity
8
0
100
AcDbLine
10
135.24600000000001
20
-78.487399999999994
30
0
11
121.74500000000002
21
-78.487399999999994
31
0
0
LINE
5
193
100
AcDbEntity
8
0
100
AcDbLine
10
102.44500000000002
20
-78.237399999999994
30
0
11
102.44500000000001
21
-64.738
31
0
0
LINE
5
194
100
AcDbEntity
8
0
100
AcDbLine
10
266.21199999999999
20
-64.487999999999985
30
0
11
252.46200000000002
21
-64.488
31
0
0
LINE
5
195
100
AcDbEntity
8
0
100
AcDbLine
10
97.145600000000002
20
-78.487400000000008
30
0
11
83.644900000000021
21
-78.487399999999994
31
0
0
LINE
5
196
100
AcDbEntity
8
0
100
AcDbLine
10
59.0456
20
-78.487400000000008
30
0
11
45.544900000000005
21
-78.487399999999994
31
0
0
LINE
5
197
100
AcDbEntity
8
0
100
AcDbLine
10
135.49600000000001
20
-64.738
30
0
11
135.49600000000001
21
-78.237399999999994
31
0
0
LINE
5
198
100
AcDbEntity
8
0
100
AcDbLine
10
116.194
20
-78.487400000000008
30
0
11
102.69500000000001
21
-78.487399999999994
31
0
0
LINE
5
199
100
AcDbEntity
8
0
100
AcDbLine
10
45.544900000000005
20
-64.488
30
0
11
59.0456
21
-64.488
31
0
0
LWPOLYLINE
5
200
100
AcDbEntity
8
0
100
AcDbPolyline
90
8
70
1
43
0.0
10
173.59599999999998
20
-78.237399999999994
10
173.596
20
-64.738
42
0.41421356237326151
10
173.34599999999998
20
-64.488
10
159.845
20
-64.488
42
0.41421356237310542
10
159.595
20
-64.738
10
159.59500000000003
20
-78.237399999999994
42
0.41421356237310542
10
159.845
20
-78.487399999999994
10
173.34599999999998
20
-78.48739999999998
42
0.41421356237326151
0
LINE
5
201
100
AcDbEntity
8
0
100
AcDbLine
10
173.34599999999998
20
-78.48739999999998
30
0
11
159.845
21
-78.487399999999994
31
0
0
LWPOLYLINE
5
202
100
AcDbEntity
8
0
100
AcDbPolyline
90
8
70
1
43
0.0
10
36.0199
20
-59.438699999999997
10
49.520600000000002
20
-59.438699999999997
42
0.4142135623730534
10
49.770600000000009
20
-59.18869999999999
10
49.770600000000009
20
-45.689399999999992
42
0.41421356237307422
10
49.520600000000002
20
-45.439399999999992
10
36.0199
20
-45.439399999999992
42
0.41421356237308982
10
35.769900000000007
20
-45.689399999999992
10
35.769900000000007
20
-59.188699999999997
42
0.41421356237305862
0
LWPOLYLINE
5
203
100
AcDbEntity
8
0
100
AcDbPolyline
90
8
70
1
43
0.0
10
197.69499999999999
20
-64.738
10
197.69499999999999
20
-78.237399999999994
42
0.41421356237313667
10
197.94499999999999
20
-78.487399999999994
10
211.44400000000005
20
-78.487400000000022
42
0.41421356237313667
10
211.69400000000002
20
-78.237399999999994
10
211.69400000000002
20
-64.738
42
0.41421356237313667
10
211.44400000000005
20
-64.488
10
197.94499999999999
20
-64.487999999999971
42
0.41421356237313667
0
LWPOLYLINE
5
204
100
AcDbEntity
8
0
100
AcDbPolyline
90
8
70
1
43
0.0
10
216.995
20
-78.487399999999994
10
230.49600000000001
20
-78.48739999999998
42
0.41421356237326151
10
230.74600000000001
20
-78.237399999999994
10
230.74600000000004
20
-64.738
42
0.41421356237326151
10
230.49600000000001
20
-64.488
10
216.995
20
-64.487999999999971
42
0.41421356237313667
10
216.745
20
-64.738
10
216.745
20
-78.237399999999994
42
0.41421356237313667
0
LINE
5
205
100
AcDbEntity
8
0
100
AcDbLine
10
49.770600000000009
20
-45.689399999999992
30
0
11
49.770600000000009
21
-59.18869999999999
31
0
0
LWPOLYLINE
5
206
100
AcDbEntity
8
0
100
AcDbPolyline
90
8
70
1
43
0.0
10
192.64600000000002
20
-78.237399999999994
10
192.64600000000002
20
-64.738
42
0.41421356237313667
10
192.39600000000002
20
-64.488
10
178.89500000000001
20
-64.488000000000028
42
0.41421356237326151
10
178.64500000000004
20
-64.738
10
178.64499999999998
20
-78.237399999999994
42
0.41421356237326151
10
178.89500000000001
20
-78.487399999999994
10
192.39600000000002
20
-78.487400000000022
42
0.41421356237313667
0
LINE
5
207
100
AcDbEntity
8
0
100
AcDbLine
10
36.0199
20
-45.439399999999992
30
0
11
49.520600000000002
21
-45.439399999999992
31
0
0
LINE
5
208
100
AcDbEntity
8
0
100
AcDbLine
10
159.845
20
-64.488
30
0
11
173.34599999999998
21
-64.488
31
0
0
LWPOLYLINE
5
209
100
AcDbEntity
8
0
100
AcDbPolyline
90
8
70
1
43
0.0
10
68.569199999999995
20
-45.439399999999992
10
55.068500000000007
20
-45.439399999999992
42
0.41421356237307422
10
54.818500000000007
20
-45.689399999999992
10
54.818500000000007
20
-59.18869999999999
42
0.4142135623730534
10
55.068500000000007
20
-59.438699999999997
10
68.569199999999995
20
-59.438699999999997
42
0.4142135623730534
10
68.819199999999995
20
-59.18869999999999
10
68.819199999999995
20
-45.689399999999992
42
0.41421356237307422
0
LINE
5
210
100
AcDbEntity
8
0
100
AcDbLine
10
178.89500000000001
20
-64.488000000000028
30
0
11
192.39600000000002
21
-64.488
31
0
0
LINE
5
211
100
AcDbEntity
8
0
100
AcDbLine
10
154.29399999999998
20
-78.487400000000008
30
0
11
140.79499999999999
21
-78.487399999999994
31
0
0
LINE
5
212
100
AcDbEntity
8
0
100
AcDbLine
10
68.819199999999995
20
-45.689399999999992
30
0
11
68.819199999999995
21
-59.18869999999999
31
0
0
LINE
5
213
100
AcDbEntity
8
0
100
AcDbLine
10
192.39600000000002
20
-78.487400000000022
30
0
11
178.89500000000001
21
-78.487399999999994
31
0
0
LWPOLYLINE
5
214
100
AcDbEntity
8
0
100
AcDbPolyline
90
8
70
1
43
0.0
10
73.869900000000001
20
-45.689399999999992
10
73.869900000000001
20
-59.18869999999999
42
0.41421356237307422
10
74.119900000000015
20
-59.438699999999997
10
87.619200000000006
20
-59.438699999999983
42
0.4142135623730846
10
87.869200000000006
20
-59.18869999999999
10
87.869199999999978
20
-45.689399999999992
42
0.41421356237310542
10
87.619200000000006
20
-45.439399999999992
10
74.119900000000015
20
-45.439399999999992
42
0.41421356237309503
0
LWPOLYLINE
5
215
100
AcDbEntity
8
0
100
AcDbPolyline
90
8
70
1
43
0.0
10
221.221
20
-59.18869999999999
10
221.22100000000003
20
-45.689399999999992
42
0.41421356237326151
10
220.971
20
-45.439399999999992
10
207.47
20
-45.439399999999978
42
0.41421356237313667
10
207.22000000000003
20
-45.689399999999992
10
207.22000000000003
20
-59.18869999999999
42
0.41421356237313667
10
207.47
20
-59.438699999999997
10
220.971
20
-59.438699999999976
42
0.41421356237326151
0
LINE
5
216
100
AcDbEntity
8
0
100
AcDbLine
10
207.22000000000003
20
-59.18869999999999
30
0
11
207.22000000000003
21
-45.689399999999992
31
0
0
LWPOLYLINE
5
217
100
AcDbEntity
8
0
100
AcDbPolyline
90
8
70
1
43
0.0
10
164.06900000000005
20
-59.18869999999999
10
164.06900000000007
20
-45.689399999999992
42
0.41421356237326151
10
163.81900000000005
20
-45.439399999999992
10
150.31999999999999
20
-45.439399999999985
42
0.41421356237310542
10
150.06999999999999
20
-45.689399999999992
10
150.06999999999999
20
-59.18869999999999
42
0.4142135623730846
10
150.31999999999999
20
-59.438699999999997
10
163.81900000000005
20
-59.438699999999976
42
0.41421356237326151
0
LWPOLYLINE
5
218
100
AcDbEntity
8
0
100
AcDbPolyline
90
8
70
1
43
0.0
10
226.27000000000004
20
-45.689399999999992
10
226.27000000000004
20
-59.18869999999999
42
0.41421356237313667
10
226.52000000000001
20
-59.438699999999997
10
240.02100000000002
20
-59.438699999999976
42
0.41421356237326151
10
240.27100000000002
20
-59.18869999999999
10
240.27100000000004
20
-45.689399999999992
42
0.41421356237326151
10
240.02100000000002
20
-45.439399999999992
10
226.52000000000001
20
-45.439399999999978
42
0.41421356237313667
0
LWPOLYLINE
5
219
100
AcDbEntity
8
0
100
AcDbPolyline
90
8
70
1
43
0.0
10
92.919899999999998
20
-45.689399999999992
10
92.919899999999984
20
-59.18869999999999
42
0.4142135623730846
10
93.169900000000013
20
-59.438699999999997
10
106.669
20
-59.438699999999997
42
0.41421356237309503
10
106.91900000000001
20
-59.18869999999999
10
106.91900000000001
20
-45.689399999999992
42
0.41421356237313667
10
106.669
20
-45.439399999999992
10
93.169900000000013
20
-45.439399999999985
42
0.41421356237310542
0
LINE
5
220
100
AcDbEntity
8
0
100
AcDbLine
10
68.569199999999995
20
-59.438699999999997
30
0
11
55.068500000000007
21
-59.438699999999997
31
0
0
LWPOLYLINE
5
221
100
AcDbEntity
8
0
100
AcDbPolyline
90
8
70
1
43
0.0
10
169.37
20
-59.438699999999997
10
182.87099999999998
20
-59.438699999999976
42
0.41421356237326151
10
183.12099999999998
20
-59.18869999999999
10
183.12100000000001
20
-45.689399999999992
42
0.41421356237326151
10
182.87099999999998
20
-45.439399999999992
10
169.37
20
-45.439400000000006
42
0.41421356237326151
10
169.12000000000003
20
-45.689399999999992
10
169.12
20
-59.18869999999999
42
0.41421356237326151
0
LWPOLYLINE
5
222
100
AcDbEntity
8
0
100
AcDbPolyline
90
8
70
1
43
0.0
10
20.945599999999999
20
-26.387999999999998
10
7.4447300000000007
20
-26.387999999999998
42
0.41421356237308982
10
7.1947300000000016
20
-26.637999999999991
10
7.1947299999999998
20
-40.137599999999992
42
0.41421356237309115
10
7.4447300000000016
20
-40.387599999999999
10
20.945599999999999
20
-40.387599999999999
42
0.41421356237308982
10
21.195599999999999
20
-40.137599999999992
10
21.195599999999999
20
-26.637999999999998
42
0.41421356237309503
0
LINE
5
223
100
AcDbEntity
8
0
100
AcDbLine
10
211.44400000000005
20
-78.487400000000022
30
0
11
197.94499999999999
21
-78.487399999999994
31
0
0
LWPOLYLINE
5
224
100
AcDbEntity
8
0
100
AcDbPolyline
90
8
70
1
43
0.0
10
202.16900000000004
20
-59.18869999999999
10
202.16900000000004
20
-45.689399999999992
42
0.41421356237313667
10
201.91900000000004
20
-45.439399999999992
10
188.41999999999999
20
-45.439399999999978
42
0.41421356237313667
10
188.17000000000002
20
-45.689399999999992
10
188.17000000000002
20
-59.18869999999999
42
0.41421356237313667
10
188.41999999999999
20
-59.438699999999997
10
201.91900000000004
20
-59.438700000000011
42
0.41421356237313667
0
LWPOLYLINE
5
225
100
AcDbEntity
8
0
100
AcDbPolyline
90
26
70
1
43
0.0
10
131.27000000000004
20
-59.438699999999997
10
144.76900000000001
20
-59.438699999999983
42
0.4142135623730846
10
145.01900000000001
20
-59.18869999999999
10
145.01900000000001
20
-45.689399999999992
42
0.41421356237310542
10
144.76900000000001
20
-45.439399999999992
10
131.27000000000004
20
-45.439399999999985
42
0.41421356237310542
10
131.02000000000001
20
-45.689399999999992
10
131.02000000000004
20
-50.0899
42
-0.4142135623730846
10
130.77000000000001
20
-50.3399
10
126.22100000000002
20
-50.3399
42
-0.41421356237309503
10
125.971
20
-50.0899
10
125.971
20
-45.689399999999992
42
0.41421356237313667
10
125.721
20
-45.439399999999992
10
112.218
20
-45.439399999999992
42
0.41421356237313667
10
111.96799999999999
20
-45.689399999999992
10
111.96799999999999
20
-59.18869999999999
42
0.41421356237309503
10
112.218
20
-59.438699999999997
10
125.721
20
-59.438699999999997
42
0.41421356237309503
10
125.971
20
-59.18869999999999
10
125.971
20
-54.939700000000002
10
125.971
20
-54.789900000000003
42
-0.41421356237309503
10
126.22100000000002
20
-54.539900000000003
10
130.77000000000001
20
-54.53990000000001
42
-0.4142135623730846
10
131.02000000000001
20
-54.789900000000003
10
131.02000000000001
20
-54.939700000000002
10
131.02000000000001
20
-59.18869999999999
42
0.4142135623730846
0
LINE
5
226
100
AcDbEntity
8
0
100
AcDbLine
10
150.06999999999999
20
-59.18869999999999
30
0
11
150.06999999999999
21
-45.689399999999992
31
0
0
LINE
5
227
100
AcDbEntity
8
0
100
AcDbLine
10
125.721
20
-59.438699999999997
30
0
11
112.218
21
-59.438699999999997
31
0
0
LINE
5
228
100
AcDbEntity
8
0
100
AcDbLine
10
169.37
20
-45.439400000000006
30
0
11
182.87099999999998
21
-45.439399999999992
31
0
0
LWPOLYLINE
5
229
100
AcDbEntity
8
0
100
AcDbPolyline
90
8
70
1
43
0.0
10
31.255900000000004
20
-40.387599999999999
10
44.756700000000002
20
-40.387599999999999
42
0.41421356237307422
10
45.006700000000002
20
-40.137599999999992
10
45.006700000000002
20
-26.637999999999998
42
0.41421356237305862
10
44.756700000000009
20
-26.387999999999998
10
31.255900000000004
20
-26.387999999999998
42
0.4142135623730846
10
31.0059
20
-26.637999999999991
10
31.005900000000004
20
-40.137599999999992
42
0.41421356237308982
0
LWPOLYLINE
5
230
100
AcDbEntity
8
0
100
AcDbPolyline
90
8
70
1
43
0.0
10
63.806700000000006
20
-26.387999999999998
10
50.307400000000008
20
-26.387999999999998
42
0.41421356237306384
10
50.057400000000001
20
-26.637999999999991
10
50.057400000000001
20
-40.137599999999992
42
0.41421356237307422
10
50.307400000000008
20
-40.387599999999999
10
63.806700000000006
20
-40.387599999999999
42
0.41421356237309503
10
64.056700000000006
20
-40.137599999999992
10
64.056700000000006
20
-26.637999999999998
42
0.41421356237308982
0
LINE
5
231
100
AcDbEntity
8
0
100
AcDbLine
10
163.81900000000005
20
-59.438699999999976
30
0
11
150.31999999999999
21
-59.438699999999997
31
0
0
LINE
5
232
100
AcDbEntity
8
0
100
AcDbLine
10
145.01900000000001
20
-45.689399999999992
30
0
11
145.01900000000001
21
-59.18869999999999
31
0
0
LINE
5
233
100
AcDbEntity
8
0
100
AcDbLine
10
112.218
20
-45.439399999999992
30
0
11
125.721
21
-45.439399999999992
31
0
0
LINE
5
234
100
AcDbEntity
8
0
100
AcDbLine
10
240.27100000000004
20
-45.689399999999992
30
0
11
240.27100000000002
21
-59.18869999999999
31
0
0
LINE
5
235
100
AcDbEntity
8
0
100
AcDbLine
10
226.52000000000001
20
-45.439399999999978
30
0
11
240.02100000000002
21
-45.439399999999992
31
0
0
LINE
5
236
100
AcDbEntity
8
0
100
AcDbLine
10
93.169900000000013
20
-45.439399999999985
30
0
11
106.669
21
-45.439399999999992
31
0
0
LINE
5
237
100
AcDbEntity
8
0
100
AcDbLine
10
74.119900000000015
20
-45.439399999999992
30
0
11
87.619200000000006
21
-45.439399999999992
31
0
0
LINE
5
238
100
AcDbEntity
8
0
100
AcDbLine
10
183.12100000000001
20
-45.689399999999992
30
0
11
183.12099999999998
21
-59.18869999999999
31
0
0
LINE
5
239
100
AcDbEntity
8
0
100
AcDbLine
10
106.669
20
-59.438699999999997
30
0
11
93.169900000000013
21
-59.438699999999997
31
0
0
LINE
5
240
100
AcDbEntity
8
0
100
AcDbLine
10
131.27000000000004
20
-45.439399999999985
30
0
11
144.76900000000001
21
-45.439399999999992
31
0
0
LINE
5
241
100
AcDbEntity
8
0
100
AcDbLine
10
87.869199999999978
20
-45.689399999999992
30
0
11
87.869200000000006
21
-59.18869999999999
31
0
0
LINE
5
242
100
AcDbEntity
8
0
100
AcDbLine
10
220.971
20
-59.438699999999976
30
0
11
207.47
21
-59.438699999999997
31
0
0
LINE
5
243
100
AcDbEntity
8
0
100
AcDbLine
10
188.17000000000002
20
-59.18869999999999
30
0
11
188.17000000000002
21
-45.689399999999992
31
0
0
LINE
5
244
100
AcDbEntity
8
0
100
AcDbLine
10
240.02100000000002
20
-59.438699999999976
30
0
11
226.52000000000001
21
-59.438699999999997
31
0
0
LINE
5
245
100
AcDbEntity
8
0
100
AcDbLine
10
201.91900000000004
20
-59.438700000000011
30
0
11
188.41999999999999
21
-59.438699999999997
31
0
0
LWPOLYLINE
5
246
100
AcDbEntity
8
0
100
AcDbPolyline
90
8
70
1
43
0.0
10
82.856699999999989
20
-26.388000000000005
10
69.357400000000013
20
-26.387999999999998
42
0.4142135623730846
10
69.107400000000013
20
-26.637999999999991
10
69.107400000000013
20
-40.137599999999992
42
0.41421356237309503
10
69.357400000000013
20
-40.387599999999999
10
82.856699999999989
20
-40.387599999999999
42
0.41421356237310542
10
83.106699999999989
20
-40.137599999999992
10
83.106700000000004
20
-26.637999999999998
42
0.41421356237312101
0
LWPOLYLINE
5
247
100
AcDbEntity
8
0
100
AcDbPolyline
90
8
70
1
43
0.0
10
101.90700000000001
20
-26.387999999999998
10
88.407399999999996
20
-26.387999999999998
42
0.41421356237311063
10
88.157399999999981
20
-26.637999999999991
10
88.157399999999996
20
-40.137599999999992
42
0.41421356237310542
10
88.407399999999996
20
-40.387600000000006
10
101.90700000000001
20
-40.387599999999999
42
0.41421356237313667
10
102.15700000000001
20
-40.137599999999992
10
102.15700000000001
20
-26.637999999999998
42
0.41421356237313145
0
LINE
5
248
100
AcDbEntity
8
0
100
AcDbLine
10
102.15700000000001
20
-26.637999999999998
30
0
11
102.15700000000001
21
-40.137599999999992
31
0
0
LINE
5
249
100
AcDbEntity
8
0
100
AcDbLine
10
101.90700000000001
20
-40.387599999999999
30
0
11
88.407399999999996
21
-40.387600000000006
31
0
0
LINE
5
250
100
AcDbEntity
8
0
100
AcDbLine
10
107.45600000000002
20
-26.387999999999998
30
0
11
120.95700000000001
21
-26.388000000000005
31
0
0
LINE
5
251
100
AcDbEntity
8
0
100
AcDbLine
10
121.20700000000001
20
-26.637999999999998
30
0
11
121.20699999999999
21
-40.137599999999992
31
0
0
LINE
5
252
100
AcDbEntity
8
0
100
AcDbLine
10
120.95700000000001
20
-40.387599999999999
30
0
11
107.45600000000002
21
-40.387599999999999
31
0
0
LINE
5
253
100
AcDbEntity
8
0
100
AcDbLine
10
31.005900000000011
20
-97.287450000000007
30
0
11
31.005900000000004
21
-83.787900000000008
31
0
0
LINE
5
254
100
AcDbEntity
8
0
100
AcDbLine
10
149.53200000000001
20
-83.537900000000008
30
0
11
136.03200000000004
21
-83.537900000000008
31
0
0
LINE
5
255
100
AcDbEntity
8
0
100
AcDbLine
10
121.74500000000002
20
-64.488
30
0
11
135.24600000000001
21
-64.488
31
0
0
LINE
5
256
100
AcDbEntity
8
0
100
AcDbLine
10
140.79499999999999
20
-64.488
30
0
11
154.29399999999998
21
-64.488
31
0
0
LINE
5
257
100
AcDbEntity
8
0
100
AcDbLine
10
264.37
20
-97.287450000000007
30
0
11
264.37
21
-83.787900000000008
31
0
0
LINE
5
258
100
AcDbEntity
8
0
100
AcDbLine
10
140.54500000000002
20
-78.237399999999994
30
0
11
140.54499999999999
21
-64.738
31
0
0
LINE
5
259
100
AcDbEntity
8
0
100
AcDbLine
10
243.18700000000001
20
-64.487999999999985
30
0
11
256.93700000000001
21
-64.488
31
0
0
LINE
5
260
100
AcDbEntity
8
0
100
AcDbLine
10
78.345600000000005
20
-64.738
30
0
11
78.345600000000005
21
-78.237399999999994
31
0
0
LINE
5
261
100
AcDbEntity
8
0
100
AcDbLine
10
59.295600000000007
20
-64.738
30
0
11
59.295600000000007
21
-78.237399999999994
31
0
0
LINE
5
262
100
AcDbEntity
8
0
100
AcDbLine
10
31.255900000000004
20
-83.537900000000008
30
0
11
44.756700000000002
21
-83.537900000000008
31
0
0
LINE
5
263
100
AcDbEntity
8
0
100
AcDbLine
10
211.69400000000002
20
-64.738
30
0
11
211.69400000000002
21
-78.237399999999994
31
0
0
LINE
5
264
100
AcDbEntity
8
0
100
AcDbLine
10
230.74600000000004
20
-64.738
30
0
11
230.74600000000001
21
-78.237399999999994
31
0
0
LINE
5
265
100
AcDbEntity
8
0
100
AcDbLine
10
216.745
20
-78.237399999999994
30
0
11
216.745
21
-64.738
31
0
0
LINE
5
266
100
AcDbEntity
8
0
100
AcDbLine
10
83.644900000000021
20
-64.488
30
0
11
97.145600000000002
21
-64.488
31
0
0
LINE
5
267
100
AcDbEntity
8
0
100
AcDbLine
10
173.596
20
-64.738
30
0
11
173.59599999999998
21
-78.237399999999994
31
0
0
LINE
5
268
100
AcDbEntity
8
0
100
AcDbLine
10
121.49500000000003
20
-78.237399999999994
30
0
11
121.49500000000002
21
-64.738
31
0
0
LINE
5
269
100
AcDbEntity
8
0
100
AcDbLine
10
192.64600000000002
20
-64.738
30
0
11
192.64600000000002
21
-78.237399999999994
31
0
0
LINE
5
270
100
AcDbEntity
8
0
100
AcDbLine
10
283.13200000000001
20
-64.738
30
0
11
283.13200000000001
21
-78.237399999999994
31
0
0
LWPOLYLINE
5
271
100
AcDbEntity
8
0
100
AcDbPolyline
90
8
70
1
43
0.0
10
4.8134800000000002
20
-45.689399999999992
10
4.8134800000000002
20
-59.18869999999999
42
0.41421356237306639
10
5.0634800000000002
20
-59.438699999999997
10
23.563480000000002
20
-59.438699999999997
42
0.414213562373069
10
23.813479999999998
20
-59.18869999999999
10
23.813479999999998
20
-45.689399999999992
42
0.41421356237308982
10
23.563480000000002
20
-45.439399999999992
10
5.0634800000000002
20
-45.439399999999992
42
0.41421356237308982
0
LINE
5
272
100
AcDbEntity
8
0
100
AcDbLine
10
78.095600000000005
20
-78.487400000000008
30
0
11
64.59490000000001
21
-78.487399999999994
31
0
0
LINE
5
273
100
AcDbEntity
8
0
100
AcDbLine
10
188.41999999999999
20
-45.439399999999978
30
0
11
201.91900000000004
21
-45.439399999999992
31
0
0
LINE
5
274
100
AcDbEntity
8
0
100
AcDbLine
10
116.44400000000002
20
-64.738
30
0
11
116.44400000000002
21
-78.237399999999994
31
0
0
LINE
5
275
100
AcDbEntity
8
0
100
AcDbLine
10
197.94499999999999
20
-64.487999999999971
30
0
11
211.44400000000005
21
-64.488
31
0
0
LINE
5
276
100
AcDbEntity
8
0
100
AcDbLine
10
64.59490000000001
20
-64.488
30
0
11
78.095600000000005
21
-64.488
31
0
0
LINE
5
277
100
AcDbEntity
8
0
100
AcDbLine
10
178.64499999999998
20
-78.237399999999994
30
0
11
178.64500000000004
21
-64.738
31
0
0
LINE
5
278
100
AcDbEntity
8
0
100
AcDbLine
10
64.344899999999996
20
-78.237399999999994
30
0
11
64.344899999999996
21
-64.738
31
0
0
LINE
5
279
100
AcDbEntity
8
0
100
AcDbLine
10
169.12
20
-59.18869999999999
30
0
11
169.12000000000003
21
-45.689399999999992
31
0
0
LINE
5
280
100
AcDbEntity
8
0
100
AcDbLine
10
202.16900000000004
20
-45.689399999999992
30
0
11
202.16900000000004
21
-59.18869999999999
31
0
0
LINE
5
281
100
AcDbEntity
8
0
100
AcDbLine
10
35.769900000000007
20
-59.188699999999997
30
0
11
35.769900000000007
21
-45.689399999999992
31
0
0
LINE
5
282
100
AcDbEntity
8
0
100
AcDbLine
10
106.91900000000001
20
-45.689399999999992
30
0
11
106.91900000000001
21
-59.18869999999999
31
0
0
LINE
5
283
100
AcDbEntity
8
0
100
AcDbLine
10
269.13099999999997
20
-64.488
30
0
11
282.88200000000006
21
-64.488
31
0
0
LINE
5
284
100
AcDbEntity
8
0
100
AcDbLine
10
216.995
20
-64.487999999999971
30
0
11
230.49600000000001
21
-64.488
31
0
0
LINE
5
285
100
AcDbEntity
8
0
100
AcDbLine
10
83.394900000000007
20
-78.237399999999994
30
0
11
83.394900000000007
21
-64.738
31
0
0
LINE
5
286
100
AcDbEntity
8
0
100
AcDbLine
10
154.54399999999998
20
-64.738
30
0
11
154.54399999999998
21
-78.237399999999994
31
0
0
LINE
5
287
100
AcDbEntity
8
0
100
AcDbLine
10
230.49600000000001
20
-78.48739999999998
30
0
11
216.995
21
-78.487399999999994
31
0
0
LINE
5
288
100
AcDbEntity
8
0
100
AcDbLine
10
242.93700000000001
20
-78.237399999999994
30
0
11
242.93700000000001
21
-64.738
31
0
0
LINE
5
289
100
AcDbEntity
8
0
100
AcDbLine
10
159.59500000000003
20
-78.237399999999994
30
0
11
159.595
21
-64.738
31
0
0
LINE
5
290
100
AcDbEntity
8
0
100
AcDbLine
10
197.69499999999999
20
-78.237399999999994
30
0
11
197.69499999999999
21
-64.738
31
0
0
LINE
5
291
100
AcDbEntity
8
0
100
AcDbLine
10
45.006700000000002
20
-26.637999999999998
30
0
11
45.006700000000002
21
-40.137599999999992
31
0
0
LINE
5
292
100
AcDbEntity
8
0
100
AcDbLine
10
144.76900000000001
20
-59.438699999999983
30
0
11
131.27000000000004
21
-59.438699999999997
31
0
0
LINE
5
293
100
AcDbEntity
8
0
100
AcDbLine
10
64.056700000000006
20
-26.637999999999998
30
0
11
64.056700000000006
21
-40.137599999999992
31
0
0
LINE
5
294
100
AcDbEntity
8
0
100
AcDbLine
10
54.818500000000007
20
-59.18869999999999
30
0
11
54.818500000000007
21
-45.689399999999992
31
0
0
LINE
5
295
100
AcDbEntity
8
0
100
AcDbLine
10
207.47
20
-45.439399999999978
30
0
11
220.971
21
-45.439399999999992
31
0
0
LINE
5
296
100
AcDbEntity
8
0
100
AcDbLine
10
49.520600000000002
20
-59.438699999999997
30
0
11
36.0199
21
-59.438699999999997
31
0
0
LINE
5
297
100
AcDbEntity
8
0
100
AcDbLine
10
92.919899999999984
20
-59.18869999999999
30
0
11
92.919899999999998
21
-45.689399999999992
31
0
0
LINE
5
298
100
AcDbEntity
8
0
100
AcDbLine
10
55.068500000000007
20
-45.439399999999992
30
0
11
68.569199999999995
21
-45.439399999999992
31
0
0
LINE
5
299
100
AcDbEntity
8
0
100
AcDbLine
10
182.87099999999998
20
-59.438699999999976
30
0
11
169.37
21
-59.438699999999997
31
0
0
LINE
5
300
100
AcDbEntity
8
0
100
AcDbLine
10
164.06900000000007
20
-45.689399999999992
30
0
11
164.06900000000005
21
-59.18869999999999
31
0
0
LINE
5
301
100
AcDbEntity
8
0
100
AcDbLine
10
87.619200000000006
20
-59.438699999999983
30
0
11
74.119900000000015
21
-59.438699999999997
31
0
0
LINE
5
302
100
AcDbEntity
8
0
100
AcDbLine
10
73.869900000000001
20
-59.18869999999999
30
0
11
73.869900000000001
21
-45.689399999999992
31
0
0
LINE
5
303
100
AcDbEntity
8
0
100
AcDbLine
10
111.96799999999999
20
-59.18869999999999
30
0
11
111.96799999999999
21
-45.689399999999992
31
0
0
LINE
5
304
100
AcDbEntity
8
0
100
AcDbLine
10
150.31999999999999
20
-45.439399999999985
30
0
11
163.81900000000005
21
-45.439399999999992
31
0
0
LINE
5
305
100
AcDbEntity
8
0
100
AcDbLine
10
159.30700000000002
20
-26.637999999999998
30
0
11
159.30700000000002
21
-40.137599999999992
31
0
0
LINE
5
306
100
AcDbEntity
8
0
100
AcDbLine
10
145.30600000000001
20
-40.137599999999992
30
0
11
145.30599999999998
21
-26.637999999999991
31
0
0
LINE
5
307
100
AcDbEntity
8
0
100
AcDbLine
10
226.27000000000004
20
-59.18869999999999
30
0
11
226.27000000000004
21
-45.689399999999992
31
0
0
LINE
5
308
100
AcDbEntity
8
0
100
AcDbLine
10
69.107400000000013
20
-40.137599999999992
30
0
11
69.107400000000013
21
-26.637999999999991
31
0
0
LINE
5
309
100
AcDbEntity
8
0
100
AcDbLine
10
82.856699999999989
20
-40.387599999999999
30
0
11
69.357400000000013
21
-40.387599999999999
31
0
0
LINE
5
310
100
AcDbEntity
8
0
100
AcDbLine
10
164.607
20
-26.388000000000019
30
0
11
178.107
21
-26.388000000000019
31
0
0
LINE
5
311
100
AcDbEntity
8
0
100
AcDbLine
10
83.106700000000004
20
-26.637999999999998
30
0
11
83.106699999999989
21
-40.137599999999992
31
0
0
LINE
5
312
100
AcDbEntity
8
0
100
AcDbLine
10
145.55600000000001
20
-26.387999999999998
30
0
11
159.05700000000002
21
-26.387999999999998
31
0
0
LINE
5
313
100
AcDbEntity
8
0
100
AcDbLine
10
7.4447300000000007
20
-26.387999999999998
30
0
11
20.945599999999999
21
-26.387999999999998
31
0
0
LINE
5
314
100
AcDbEntity
8
0
100
AcDbLine
10
159.05700000000002
20
-40.387599999999999
30
0
11
145.55600000000001
21
-40.387600000000006
31
0
0
LINE
5
315
100
AcDbEntity
8
0
100
AcDbLine
10
7.1947299999999998
20
-40.137599999999992
30
0
11
7.1947300000000016
21
-26.637999999999991
31
0
0
LINE
5
316
100
AcDbEntity
8
0
100
AcDbLine
10
31.005900000000004
20
-40.137599999999992
30
0
11
31.0059
21
-26.637999999999991
31
0
0
LINE
5
317
100
AcDbEntity
8
0
100
AcDbLine
10
31.255900000000004
20
-26.387999999999998
30
0
11
44.756700000000009
21
-26.387999999999998
31
0
0
LINE
5
318
100
AcDbEntity
8
0
100
AcDbLine
10
221.22100000000003
20
-45.689399999999992
30
0
11
221.221
21
-59.18869999999999
31
0
0
LINE
5
319
100
AcDbEntity
8
0
100
AcDbLine
10
88.407399999999996
20
-26.387999999999998
30
0
11
101.90700000000001
21
-26.387999999999998
31
0
0
LINE
5
320
100
AcDbEntity
8
0
100
AcDbLine
10
20.945599999999999
20
-40.387599999999999
30
0
11
7.4447300000000016
21
-40.387599999999999
31
0
0
LINE
5
321
100
AcDbEntity
8
0
100
AcDbLine
10
107.20600000000002
20
-40.137599999999992
30
0
11
107.20600000000002
21
-26.637999999999991
31
0
0
LINE
5
322
100
AcDbEntity
8
0
100
AcDbLine
10
50.057400000000001
20
-40.137599999999992
30
0
11
50.057400000000001
21
-26.637999999999991
31
0
0
LINE
5
323
100
AcDbEntity
8
0
100
AcDbLine
10
178.357
20
-26.637999999999998
30
0
11
178.357
21
-40.137599999999992
31
0
0
LINE
5
324
100
AcDbEntity
8
0
100
AcDbLine
10
88.157399999999996
20
-40.137599999999992
30
0
11
88.157399999999981
21
-26.637999999999991
31
0
0
LINE
5
325
100
AcDbEntity
8
0
100
AcDbLine
10
21.195599999999999
20
-26.637999999999998
30
0
11
21.195599999999999
21
-40.137599999999992
31
0
0
LINE
5
326
100
AcDbEntity
8
0
100
AcDbLine
10
50.307400000000008
20
-26.387999999999998
30
0
11
63.806700000000006
21
-26.387999999999998
31
0
0
LINE
5
327
100
AcDbEntity
8
0
100
AcDbLine
10
178.107
20
-40.387599999999978
30
0
11
164.607
21
-40.387599999999978
31
0
0
LINE
5
328
100
AcDbEntity
8
0
100
AcDbLine
10
63.806700000000006
20
-40.387599999999999
30
0
11
50.307400000000008
21
-40.387599999999999
31
0
0
LINE
5
329
100
AcDbEntity
8
0
100
AcDbLine
10
44.756700000000002
20
-40.387599999999999
30
0
11
31.255900000000004
21
-40.387599999999999
31
0
0
LINE
5
330
100
AcDbEntity
8
0
100
AcDbLine
10
69.357400000000013
20
-26.387999999999998
30
0
11
82.856699999999989
21
-26.388000000000005
31
0
0
LINE
5
331
100
AcDbEntity
8
0
100
AcDbLine
10
140.25700000000001
20
-26.637999999999998
30
0
11
140.25700000000001
21
-40.137599999999992
31
0
0
LINE
5
332
100
AcDbEntity
8
0
100
AcDbLine
10
254.55700000000007
20
-26.637999999999998
30
0
11
254.55700000000004
21
-40.137599999999992
31
0
0
LINE
5
333
100
AcDbEntity
8
0
100
AcDbLine
10
197.40700000000004
20
-26.637999999999998
30
0
11
197.40700000000004
21
-40.137599999999992
31
0
0
LINE
5
334
100
AcDbEntity
8
0
100
AcDbLine
10
183.65700000000001
20
-26.388000000000019
30
0
11
197.15700000000004
21
-26.387999999999984
31
0
0
LINE
5
335
100
AcDbEntity
8
0
100
AcDbLine
10
221.75700000000001
20
-26.387999999999984
30
0
11
235.25700000000003
21
-26.387999999999998
31
0
0
LINE
5
336
100
AcDbEntity
8
0
100
AcDbLine
10
2.6822400000000002
20
-7.3379999999999868
30
0
11
16.181699999999999
21
-7.3379999999999868
31
0
0
LINE
5
337
100
AcDbEntity
8
0
100
AcDbLine
10
202.45599999999996
20
-40.137599999999992
30
0
11
202.45599999999999
21
-26.637999999999991
31
0
0
LINE
5
338
100
AcDbEntity
8
0
100
AcDbLine
10
240.55599999999998
20
-40.137599999999992
30
0
11
240.55599999999998
21
-26.637999999999991
31
0
0
LINE
5
339
100
AcDbEntity
8
0
100
AcDbLine
10
202.70599999999999
20
-26.388000000000019
30
0
11
216.20700000000002
21
-26.388000000000019
31
0
0
LINE
5
340
100
AcDbEntity
8
0
100
AcDbLine
10
197.15700000000004
20
-40.387599999999999
30
0
11
183.65700000000001
21
-40.387599999999978
31
0
0
LINE
5
341
100
AcDbEntity
8
0
100
AcDbLine
10
235.50700000000006
20
-26.637999999999998
30
0
11
235.50700000000006
21
-40.137599999999992
31
0
0
LINE
5
342
100
AcDbEntity
8
0
100
AcDbLine
10
211.982
20
-21.087599999999988
30
0
11
211.982
21
-7.5879999999999832
31
0
0
LINE
5
343
100
AcDbEntity
8
0
100
AcDbLine
10
21.732199999999999
20
-7.337999999999985
30
0
11
35.231699999999996
21
-7.3379999999999868
31
0
0
LINE
5
344
100
AcDbEntity
8
0
100
AcDbLine
10
231.28199999999998
20
-7.3379999999999708
30
0
11
244.78200000000004
21
-7.3379999999999868
31
0
0
LINE
5
345
100
AcDbEntity
8
0
100
AcDbLine
10
92.381699999999995
20
-21.337599999999981
30
0
11
78.882400000000018
21
-21.337599999999988
31
0
0
LINE
5
346
100
AcDbEntity
8
0
100
AcDbLine
10
164.357
20
-40.137599999999992
30
0
11
164.357
21
-26.637999999999991
31
0
0
LINE
5
347
100
AcDbEntity
8
0
100
AcDbLine
10
216.20700000000002
20
-40.387599999999999
30
0
11
202.70599999999999
21
-40.387599999999999
31
0
0
LINE
5
348
100
AcDbEntity
8
0
100
AcDbLine
10
206.68200000000007
20
-21.337600000000002
30
0
11
193.18099999999998
21
-21.337599999999988
31
0
0
LINE
5
349
100
AcDbEntity
8
0
100
AcDbLine
10
250.08099999999999
20
-21.087599999999995
30
0
11
250.08099999999999
21
-7.5879999999999832
31
0
0
LINE
5
350
100
AcDbEntity
8
0
100
AcDbLine
10
136.03200000000004
20
-7.3379999999999912
30
0
11
149.53200000000001
21
-7.3379999999999868
31
0
0
LINE
5
351
100
AcDbEntity
8
0
100
AcDbLine
10
245.03200000000007
20
-7.5879999999999868
30
0
11
245.03200000000004
21
-21.087599999999988
31
0
0
LINE
5
352
100
AcDbEntity
8
0
100
AcDbLine
10
206.93200000000004
20
-7.5879999999999868
30
0
11
206.93200000000004
21
-21.087599999999988
31
0
0
LINE
5
353
100
AcDbEntity
8
0
100
AcDbLine
10
225.73200000000003
20
-21.337599999999966
30
0
11
212.23199999999997
21
-21.337599999999988
31
0
0
LINE
5
354
100
AcDbEntity
8
0
100
AcDbLine
10
283.13200000000001
20
-7.5879999999999868
30
0
11
283.13200000000001
21
-21.087599999999988
31
0
0
LINE
5
355
100
AcDbEntity
8
0
100
AcDbLine
10
168.83200000000002
20
-7.5879999999999868
30
0
11
168.83199999999999
21
-21.087599999999988
31
0
0
LINE
5
356
100
AcDbEntity
8
0
100
AcDbLine
10
78.882400000000018
20
-7.3379999999999876
30
0
11
92.381699999999995
21
-7.3379999999999868
31
0
0
LINE
5
357
100
AcDbEntity
8
0
100
AcDbLine
10
40.53240000000001
20
-21.087599999999988
30
0
11
40.53240000000001
21
-7.5879999999999832
31
0
0
LINE
5
358
100
AcDbEntity
8
0
100
AcDbLine
10
40.78240000000001
20
-7.3379999999999876
30
0
11
54.281700000000001
21
-7.3379999999999868
31
0
0
LINE
5
359
100
AcDbEntity
8
0
100
AcDbLine
10
135.78200000000004
20
-21.087599999999988
30
0
11
135.78200000000004
21
-7.5879999999999832
31
0
0
LINE
5
360
100
AcDbEntity
8
0
100
AcDbLine
10
116.98200000000001
20
-7.3379999999999912
30
0
11
130.482
21
-7.3379999999999868
31
0
0
LINE
5
361
100
AcDbEntity
8
0
100
AcDbLine
10
168.58199999999999
20
-21.337599999999966
30
0
11
155.08100000000002
21
-21.337599999999988
31
0
0
LINE
5
362
100
AcDbEntity
8
0
100
AcDbLine
10
269.13099999999997
20
-7.3379999999999868
30
0
11
282.88200000000006
21
-7.3379999999999868
31
0
0
LINE
5
363
100
AcDbEntity
8
0
100
AcDbLine
10
173.88199999999998
20
-21.087599999999988
30
0
11
173.88200000000001
21
-7.5879999999999832
31
0
0
LINE
5
364
100
AcDbEntity
8
0
100
AcDbLine
10
2.4322400000000011
20
-21.087599999999988
30
0
11
2.4322400000000002
21
-7.5879999999999832
31
0
0
LINE
5
365
100
AcDbEntity
8
0
100
AcDbLine
10
187.63200000000001
20
-21.337599999999966
30
0
11
174.13200000000001
21
-21.337599999999988
31
0
0
LINE
5
366
100
AcDbEntity
8
0
100
AcDbLine
10
250.33099999999996
20
-7.3379999999999708
30
0
11
264.08199999999999
21
-7.3379999999999868
31
0
0
LINE
5
367
100
AcDbEntity
8
0
100
AcDbLine
10
111.682
20
-7.5879999999999868
30
0
11
111.682
21
-21.087599999999988
31
0
0
LINE
5
368
100
AcDbEntity
8
0
100
AcDbLine
10
212.23199999999997
20
-7.3379999999999708
30
0
11
225.73200000000003
21
-7.3379999999999868
31
0
0
LINE
5
369
100
AcDbEntity
8
0
100
AcDbLine
10
54.281700000000001
20
-21.337599999999988
30
0
11
40.78240000000001
21
-21.337599999999988
31
0
0
LINE
5
370
100
AcDbEntity
8
0
100
AcDbLine
10
59.58100000000001
20
-21.087599999999988
30
0
11
59.58100000000001
21
-7.5879999999999832
31
0
0
LINE
5
371
100
AcDbEntity
8
0
100
AcDbLine
10
174.13200000000001
20
-7.3380000000000063
30
0
11
187.63200000000001
21
-7.3379999999999868
31
0
0
LINE
5
372
100
AcDbEntity
8
0
100
AcDbLine
10
35.481699999999996
20
-7.5879999999999868
30
0
11
35.481699999999996
21
-21.087599999999988
31
0
0
LINE
5
373
100
AcDbEntity
8
0
100
AcDbLine
10
149.78200000000001
20
-7.5879999999999868
30
0
11
149.78200000000001
21
-21.087599999999988
31
0
0
LINE
5
374
100
AcDbEntity
8
0
100
AcDbLine
10
225.98200000000006
20
-7.5879999999999868
30
0
11
225.98200000000003
21
-21.087599999999988
31
0
0
LINE
5
375
100
AcDbEntity
8
0
100
AcDbLine
10
155.08100000000002
20
-7.3379999999999823
30
0
11
168.58199999999999
21
-7.3379999999999868
31
0
0
LINE
5
376
100
AcDbEntity
8
0
100
AcDbLine
10
154.83100000000002
20
-21.087599999999988
30
0
11
154.83100000000002
21
-7.5879999999999885
31
0
0
LINE
5
377
100
AcDbEntity
8
0
100
AcDbLine
10
35.231699999999996
20
-21.337599999999988
30
0
11
21.732199999999999
21
-21.337599999999988
31
0
0
LINE
5
378
100
AcDbEntity
8
0
100
AcDbLine
10
187.88200000000003
20
-7.5879999999999868
30
0
11
187.88200000000001
21
-21.087599999999988
31
0
0
LINE
5
379
100
AcDbEntity
8
0
100
AcDbLine
10
285.47000000000003
20
-64.139399999999995
30
0
11
285.47000000000003
21
-97.903537100000023
31
0
0
LINE
5
380
100
AcDbEntity
8
0
100
AcDbLine
10
0.095084599999988306
20
-97.903537100000023
30
0
11
0.095084600000000019
21
-64.139399999999995
31
0
0
LINE
5
381
100
AcDbEntity
8
0
100
AcDbLine
10
2.0950845999999999
20
-4.9760999999999989
30
0
11
283.47000000000003
21
-4.9760999999999989
31
0
0
LINE
5
382
100
AcDbEntity
8
0
100
AcDbLine
10
285.47000000000008
20
-6.9760999999999989
30
0
11
285.47000000000003
21
-59.138500000000001
31
0
0
LINE
5
383
100
AcDbEntity
8
0
100
AcDbLine
10
254.55700000000007
20
-83.787900000000008
30
0
11
254.55700000000004
21
-97.287450000000007
31
0
0
LINE
5
384
100
AcDbEntity
8
0
100
AcDbLine
10
7.1947299999999963
20
-97.287450000000007
30
0
11
7.1947299999999998
21
-83.787900000000008
31
0
0
LINE
5
385
100
AcDbEntity
8
0
100
AcDbLine
10
230.49600000000001
20
-97.537449999999978
30
0
11
216.995
21
-97.537450000000007
31
0
0
LINE
5
386
100
AcDbEntity
8
0
100
AcDbLine
10
54.818500000000014
20
-97.287450000000007
30
0
11
54.818500000000007
21
-83.787900000000008
31
0
0
LINE
5
387
100
AcDbEntity
8
0
100
AcDbLine
10
20.945599999999999
20
-97.537450000000021
30
0
11
7.4447300000000016
21
-97.537450000000007
31
0
0
LINE
5
388
100
AcDbEntity
8
0
100
AcDbLine
10
269.13099999999997
20
-64.488
30
0
11
268.23700000000002
21
-64.487999999999985
31
0
0
LINE
5
389
100
AcDbEntity
8
0
100
AcDbLine
10
267.98700000000002
20
-64.738
30
0
11
267.98700000000002
21
-65.958299999999994
31
0
0
LINE
5
390
100
AcDbEntity
8
0
100
AcDbLine
10
249.21300000000002
20
-79.207599999999999
30
0
11
249.21300000000002
21
-78.737399999999994
31
0
0
LINE
5
391
100
AcDbEntity
8
0
100
AcDbLine
10
249.46300000000002
20
-78.487399999999994
30
0
11
252.46200000000002
21
-78.487399999999994
31
0
0
LINE
5
392
100
AcDbEntity
8
0
100
AcDbLine
10
282.88200000000006
20
-78.487400000000022
30
0
11
273.26299999999998
21
-78.487400000000008
31
0
0
LINE
5
393
100
AcDbEntity
8
0
100
AcDbLine
10
273.01299999999998
20
-79.207599999999999
30
0
11
273.01299999999998
21
-78.737400000000008
31
0
0
LINE
5
394
100
AcDbEntity
8
0
100
AcDbLine
10
267.98700000000002
20
-78.487400000000008
30
0
11
267.98700000000002
21
-78.000001162290573
31
0
0
LINE
5
395
100
AcDbEntity
8
0
100
AcDbLine
10
266.46199999999999
20
-69.188500000000005
30
0
11
266.46199999999999
21
-73.788299999999992
31
0
0
LINE
5
396
100
AcDbEntity
8
0
100
AcDbLine
10
267.98700000000002
20
-69.188499999999991
30
0
11
267.98700000000002
21
-73.788299999999992
31
0
0
LINE
5
397
100
AcDbEntity
8
0
100
AcDbLine
10
269.71199999999999
20
-79.457599999999999
30
0
11
268.23700000000002
21
-79.457599999999999
31
0
0
LINE
5
398
100
AcDbEntity
8
0
100
AcDbLine
10
267.98700000000002
20
-79.207599999999999
30
0
11
267.98700000000002
21
-78.487400000000008
31
0
0
LINE
5
399
100
AcDbEntity
8
0
100
AcDbLine
10
266.46199999999999
20
-75.169515125624784
30
0
11
266.46199999999999
21
-68.500001020729542
31
0
0
LINE
5
400
100
AcDbEntity
8
0
100
AcDbLine
10
149.78200000000001
20
-97.287900000000008
30
0
11
149.78200000000001
21
-96.067900000000009
31
0
0
LWPOLYLINE
5
401
100
AcDbEntity
8
0
100
AcDbPolyline
90
8
70
1
43
0.0
10
196.38200000000006
20
-82.817900000000009
10
196.38200000000006
20
-95.817899999999995
42
0.41421356237313667
10
196.63200000000003
20
-96.067900000000009
10
202.93200000000007
20
-96.067900000000023
42
0.41421356237313667
10
203.18200000000004
20
-95.817899999999995
10
203.18200000000004
20
-82.817900000000009
42
0.41421356237313667
10
202.93200000000007
20
-82.567900000000009
10
196.63200000000003
20
-82.56789999999998
42
0.41421356237313667
0
LWPOLYLINE
5
402
100
AcDbEntity
8
0
100
AcDbPolyline
90
8
70
1
43
0.0
10
89.182600000000008
20
-82.817900000000009
10
89.182600000000008
20
-95.817899999999995
42
-0.4142135623731783
10
88.932599999999994
20
-96.067900000000009
10
82.632600000000011
20
-96.067900000000009
42
-0.4142135623731783
10
82.382599999999996
20
-95.817899999999995
10
82.382599999999996
20
-82.817900000000009
42
-0.41421356237313667
10
82.632600000000011
20
-82.567900000000009
10
88.932599999999994
20
-82.567900000000009
42
-0.41421356237313667
0
LINE
5
403
100
AcDbEntity
8
0
100
AcDbLine
10
251.30649999999997
20
-22.057799999999993
30
0
11
251.3065
21
-21.587600000000002
31
0
0
LINE
5
404
100
AcDbEntity
8
0
100
AcDbLine
10
258.10649999999998
20
-22.057799999999979
30
0
11
258.10649999999998
21
-21.587599999999988
31
0
0
LINE
5
405
100
AcDbEntity
8
0
100
AcDbLine
10
250.33099999999996
20
-21.337599999999991
30
0
11
251.0565
21
-21.337600000000009
31
0
0
LINE
5
406
100
AcDbEntity
8
0
100
AcDbLine
10
282.88200000000006
20
-21.337600000000002
30
0
11
282.15649999999999
21
-21.337599999999991
31
0
0
LINE
5
407
100
AcDbEntity
8
0
100
AcDbLine
10
281.90649999999999
20
-21.587599999999991
30
0
11
281.90649999999999
21
-22.057799999999979
31
0
0
LINE
5
408
100
AcDbEntity
8
0
100
AcDbLine
10
275.10649999999998
20
-22.057799999999993
30
0
11
275.10650000000004
21
-21.587600000000002
31
0
0
LINE
5
409
100
AcDbEntity
8
0
100
AcDbLine
10
274.85650000000004
20
-21.337600000000009
30
0
11
258.35649999999998
21
-21.337599999999988
31
0
0
LINE
5
410
100
AcDbEntity
8
0
100
AcDbLine
10
251.55649999999997
20
-22.307799999999993
30
0
11
257.85649999999998
21
-22.307799999999972
31
0
0
LINE
5
411
100
AcDbEntity
8
0
100
AcDbLine
10
275.35649999999998
20
-22.307799999999993
30
0
11
281.65650000000005
21
-22.307799999999972
31
0
0
CIRCLE
5
412
100
AcDbEntity
8
0
100
AcDbCircle
10
190.78299999999999
20
-90.338799999999992
30
0
40
2.1000000000000085
210
0
220
0
230
1
0
LINE
5
413
100
AcDbEntity
8
0
100
AcDbLine
10
131.02000000000001
20
-49.940099999999994
30
0
11
131.02000000000001
21
-50.3399
31
0
0
LINE
5
414
100
AcDbEntity
8
0
100
AcDbLine
10
125.971
20
-50.3399
30
0
11
125.971
21
-49.940099999999994
31
0
0
CIRCLE
5
415
100
AcDbEntity
8
0
100
AcDbCircle
10
3.59599
20
-61.638950000000001
30
0
40
2.1000000000000019
210
0
220
0
230
1
0
CIRCLE
5
416
100
AcDbEntity
8
0
100
AcDbCircle
10
281.96899999999999
20
-61.638950000000001
30
0
40
2.0999999999999996
210
0
220
0
230
1
0
ARC
5
417
100
AcDbEntity
8
0
100
AcDbCircle
10
250.33099999999996
20
-7.5879999999999566
30
0
40
0.24999999999998579
210
0
220
-0
230
1
100
AcDbArc
50
90
51
180
0
ARC
5
418
100
AcDbEntity
8
0
100
AcDbCircle
10
282.88200000000006
20
-7.5879999999999566
30
0
40
0.24999999999998579
210
-0
220
0
230
1
100
AcDbArc
50
0
51
90
0
ARC
5
419
100
AcDbEntity
8
0
100
AcDbCircle
10
282.88200000000006
20
-21.087600000000016
30
0
40
0.24999999999998579
210
-0
220
0
230
1
100
AcDbArc
50
-90
51
0
0
ARC
5
420
100
AcDbEntity
8
0
100
AcDbCircle
10
282.15649999999994
20
-21.587599999999924
30
0
40
0.2499999999999325
210
0
220
-0
230
1
100
AcDbArc
50
89.999999999986969
51
180
0
ARC
5
421
100
AcDbEntity
8
0
100
AcDbCircle
10
281.65650000000011
20
-22.057800000000057
30
0
40
0.24999999999991473
210
0
220
0
230
1
100
AcDbArc
50
-90.000000000013031
51
0
0
ARC
5
422
100
AcDbEntity
8
0
100
AcDbCircle
10
275.35649999999993
20
-22.057800000000057
30
0
40
0.24999999999995026
210
0
220
0
230
1
100
AcDbArc
50
180
51
270.00000000001302
0
ARC
5
423
100
AcDbEntity
8
0
100
AcDbCircle
10
274.8565000000001
20
-21.587599999999924
30
0
40
0.24999999999991473
210
0
220
0
230
1
100
AcDbArc
50
0
51
90.000000000013031
0
ARC
5
424
100
AcDbEntity
8
0
100
AcDbCircle
10
258.35649999999993
20
-21.587599999999924
30
0
40
0.24999999999993694
210
0
220
-0
230
1
100
AcDbArc
50
89.999999999986969
51
180
0
ARC
5
425
100
AcDbEntity
8
0
100
AcDbCircle
10
257.8565000000001
20
-22.057800000000057
30
0
40
0.24999999999991473
210
0
220
0
230
1
100
AcDbArc
50
-90.000000000026063
51
0
0
ARC
5
426
100
AcDbEntity
8
0
100
AcDbCircle
10
251.55649999999991
20
-22.057800000000057
30
0
40
0.24999999999995026
210
0
220
0
230
1
100
AcDbArc
50
180
51
270.00000000001302
0
ARC
5
427
100
AcDbEntity
8
0
100
AcDbCircle
10
251.05650000000009
20
-21.587599999999924
30
0
40
0.24999999999991473
210
0
220
0
230
1
100
AcDbArc
50
0
51
90.00000000001954
0
ARC
5
428
100
AcDbEntity
8
0
100
AcDbCircle
10
250.33099999999996
20
-21.087600000000023
30
0
40
0.24999999999998579
210
0
220
0
230
1
100
AcDbArc
50
180
51
270
0
ARC
5
429
100
AcDbEntity
8
0
100
AcDbCircle
10
282.88200000000006
20
-78.237400000000036
30
0
40
0.24999999999998579
210
-0
220
0
230
1
100
AcDbArc
50
-90
51
0
0
ARC
5
430
100
AcDbEntity
8
0
100
AcDbCircle
10
273.26299999999998
20
-78.737399999999965
30
0
40
0.24999999999996803
210
0
220
-0
230
1
100
AcDbArc
50
90
51
180
0
ARC
5
431
100
AcDbEntity
8
0
100
AcDbCircle
10
272.76299999999998
20
-79.207600000000028
30
0
40
0.24999999999998579
210
-0
220
0
230
1
100
AcDbArc
50
-90
51
0
0
ARC
5
432
100
AcDbEntity
8
0
100
AcDbCircle
10
268.23700000000002
20
-79.207600000000028
30
0
40
0.24999999999998579
210
0
220
0
230
1
100
AcDbArc
50
180
51
270
0
ARC
5
433
100
AcDbEntity
8
0
100
AcDbCircle
10
268.23700000000002
20
-64.737999999999971
30
0
40
0.24999999999998579
210
0
220
-0
230
1
100
AcDbArc
50
90
51
180
0
ARC
5
434
100
AcDbEntity
8
0
100
AcDbCircle
10
266.21199999999999
20
-64.737999999999971
30
0
40
0.24999999999998579
210
0
220
0
230
1
100
AcDbArc
50
0
51
90
0
ARC
5
435
100
AcDbEntity
8
0
100
AcDbCircle
10
266.21199999999999
20
-78.237400000000022
30
0
40
0.24999999999998579
210
-0
220
0
230
1
100
AcDbArc
50
-90
51
0
0
ARC
5
436
100
AcDbEntity
8
0
100
AcDbCircle
10
249.46300000000002
20
-78.737399999999965
30
0
40
0.24999999999996803
210
0
220
-0
230
1
100
AcDbArc
50
90
51
180
0
ARC
5
437
100
AcDbEntity
8
0
100
AcDbCircle
10
248.96300000000002
20
-79.207600000000028
30
0
40
0.24999999999998579
210
-0
220
0
230
1
100
AcDbArc
50
-90
51
0
0
ARC
5
438
100
AcDbEntity
8
0
100
AcDbCircle
10
243.18700000000001
20
-64.737999999999971
30
0
40
0.24999999999998579
210
0
220
-0
230
1
100
AcDbArc
50
90
51
180
0
ARC
5
439
100
AcDbEntity
8
0
100
AcDbCircle
10
282.88200000000006
20
-64.737999999999971
30
0
40
0.24999999999998579
210
-0
220
0
230
1
100
AcDbArc
50
0
51
90
0
LWPOLYLINE
5
440
100
AcDbEntity
8
0
100
AcDbPolyline
90
16
70
1
43
0.0
10
24.026874528301882
20
-34.553111736327843
42
-0.42805867547774196
10
24.039263461538461
20
-31.514268789872816
42
0.20609422783678763
10
24.195599999999999
20
-31.151094692223488
10
24.195599999999999
20
-26.637999999999998
42
-0.41421356237309503
10
24.445599999999995
20
-26.387999999999998
10
25.7559
20
-26.387999999999998
42
-0.41421356237309503
10
26.0059
20
-26.637999999999998
10
26.0059
20
-30.649420208122397
42
0.3001282826376731
10
26.309121153846149
20
-31.109070168098857
42
-0.65967840802527933
10
26.309121153846149
20
-34.970129831901126
42
0.3001282826376731
10
26.0059
20
-35.429779791877586
10
26.005899999999997
20
-40.137599999999992
42
-0.41421356237310542
10
25.7559
20
-40.387599999999999
10
24.445599999999995
20
-40.387599999999999
42
-0.41421356237308982
10
24.195599999999999
20
-40.137599999999992
10
24.195599999999999
20
-34.949507667270851
42
0.2039701177395366
0
ARC
5
441
100
AcDbEntity
8
0
100
AcDbCircle
10
25.48265
20
-33.039599999999993
30
0
40
2.1000000000000023
210
0
220
0
230
1
100
AcDbArc
50
133.41888236873697
51
226.1139466276868
0
LWPOLYLINE
5
442
100
AcDbEntity
8
0
100
AcDbPolyline
90
8
70
1
43
0.0
10
28.813479999999998
20
-59.188699999999997
10
28.813479999999998
20
-45.689400000000106
42
-0.414213562373069
10
29.063479999999998
20
-45.439400000000091
10
30.519900000000003
20
-45.439400000000077
42
-0.41421356237308982
10
30.769900000000003
20
-45.689400000000084
10
30.769900000000003
20
-59.188699999999983
42
-0.414213562373069
10
30.519900000000003
20
-59.438699999999997
10
29.063479999999998
20
-59.438699999999997
42
-0.41421356237305862
0
LWPOLYLINE
5
443
100
AcDbEntity
8
0
100
AcDbPolyline
90
8
70
1
43
0.0
10
237.49599999999998
20
-64.48799999999801
10
235.99599999999995
20
-64.487999999998465
42
0.41421356237301177
10
235.74600000000004
20
-64.737999999998436
10
235.74600000000004
20
-78.23739999999998
42
0.41421356237313667
10
235.99600000000004
20
-78.48739999999998
10
237.49600000000009
20
-78.48739999999998
42
0.41421356237313667
10
237.74600000000007
20
-78.23739999999998
10
237.74600000000004
20
-64.73799999999801
42
0.41421356237327195
0
LWPOLYLINE
5
444
100
AcDbEntity
8
0
100
AcDbPolyline
90
16
70
1
43
0.0
10
261.12
20
-40.387599999999971
10
259.80700000000007
20
-40.387599999999999
42
-0.41421356237326151
10
259.55700000000007
20
-40.137599999999978
10
259.55700000000007
20
-35.154280826980809
42
0.28740763450021795
10
259.41604255319157
20
-34.929314781557331
42
-0.60546860387654799
10
259.30219230769234
20
-31.20943713378724
42
0.27091699629031157
10
259.55700000000007
20
-30.773684070403256
10
259.55700000000007
20
-26.637999999998584
42
-0.41421356237326151
10
259.80700000000013
20
-26.387999999998584
10
261.12000000000006
20
-26.387999999998982
42
-0.41421356237296497
10
261.36999999999995
20
-26.637999999998996
10
261.36999999999995
20
-31.074006959719224
42
0.25287296718320185
10
261.48297872340419
20
-31.283112602302268
42
-0.54029495334821487
10
261.48297872340424
20
-34.796087397697697
42
0.25287296718323349
10
261.36999999999995
20
-35.005193040280759
10
261.37
20
-40.137599999999978
42
-0.41421356237325113
0
LWPOLYLINE
5
445
100
AcDbEntity
8
0
100
AcDbPolyline
90
10
70
1
43
0.0
10
152.59450000000001
20
-97.287900000000008
10
152.59450000000001
20
-83.787899999999212
42
-0.41421356237309503
10
152.84449999999998
20
-83.53789999999924
10
154.34449999999995
20
-83.537899999998984
42
-0.41421356237309503
10
154.59450000000001
20
-83.787899999998984
10
154.59450000000001
20
-85.53790000000086
10
154.59450000000143
20
-95.537900000001059
10
154.59450000000143
20
-97.287900000000008
42
-0.41421356237313667
10
154.34450000000143
20
-97.537900000000008
10
152.84450000000001
20
-97.537900000000008
42
-0.41421356237313667
0
LWPOLYLINE
5
446
100
AcDbEntity
8
0
100
AcDbPolyline
90
8
70
1
43
0.0
10
132.96949999999998
20
-97.287900000000008
10
132.96949999999998
20
-83.787899999999553
42
0.41421356237313667
10
132.71949999999998
20
-83.537899999999553
10
131.21950000000001
20
-83.537899999999553
42
0.41421356237313667
10
130.96949999999998
20
-83.787899999999553
10
130.96949999999998
20
-97.287900000000008
42
0.41421356237313667
10
131.21950000000001
20
-97.537900000000008
10
132.71949999999998
20
-97.537900000000008
42
0.41421356237313667
0
LINE
5
447
100
AcDbEntity
8
0
100
AcDbLine
10
248.96300000000002
20
-79.457600000000014
30
0
11
244.43700000000004
21
-79.457600000000014
31
0
0
LINE
5
448
100
AcDbEntity
8
0
100
AcDbLine
10
244.43700000000004
20
-79.457600000000014
30
0
11
244.43700000000004
21
-78.737399999999994
31
0
0
LINE
5
449
100
AcDbEntity
8
0
100
AcDbLine
10
244.18700000000004
20
-78.487400000000008
30
0
11
243.18700000000001
21
-78.487400000000008
31
0
0
ARC
5
450
100
AcDbEntity
8
0
100
AcDbCircle
10
243.18700000000001
20
-78.237400000000022
30
0
40
0.24999999999998579
210
0
220
0
230
1
100
AcDbArc
50
180
51
270
0
ARC
5
451
100
AcDbEntity
8
0
100
AcDbCircle
10
244.18700000000013
20
-78.737399999999923
30
0
40
0.24999999999991473
210
0
220
0
230
1
100
AcDbArc
50
0
51
90.00000000001954
0
LWPOLYLINE
5
452
100
AcDbEntity
8
0
100
AcDbPolyline
90
9
70
1
43
0.0
10
40.244900000000001
20
-64.738
10
40.244900000000001
20
-67.431683513768419
10
40.244900000000001
20
-78.238
42
-0.41421356237308982
10
39.994900000000001
20
-78.488
10
26.494899999999987
20
-78.488
42
-0.41421356237308982
10
26.244899999999987
20
-78.238
10
26.244899999999998
20
-64.738
42
-0.41421356237308982
10
26.494899999999998
20
-64.488
10
39.994900000000001
20
-64.488
42
-0.41421356237308982
0
LWPOLYLINE
5
453
100
AcDbEntity
8
0
100
AcDbPolyline
90
8
70
1
43
0.0
10
18.813199999999981
20
-78.238
10
18.813199999999995
20
-64.738
42
0.414213562373069
10
18.563199999999998
20
-64.488
10
5.0631999999999966
20
-64.488
42
0.41421356237306772
10
4.8131999999999957
20
-64.738
10
4.8131999999999806
20
-78.237999999999971
42
0.41421356237307033
10
5.0631999999999806
20
-78.487999999999985
10
18.563199999999981
20
-78.488
42
0.41421356237306639
0
LWPOLYLINE
5
454
100
AcDbEntity
8
0
100
AcDbPolyline
90
9
70
1
43
0.0
10
245.32100000000003
20
-45.689399999999992
10
245.32100000000003
20
-47.752132188158924
10
245.321
20
-59.188700000000011
42
0.41421356237326151
10
245.57100000000003
20
-59.438700000000011
10
259.07100000000008
20
-59.438699999999997
42
0.41421356237313667
10
259.32100000000003
20
-59.188699999999976
10
259.32100000000003
20
-45.689399999999992
42
0.41421356237326151
10
259.07100000000003
20
-45.439399999999992
10
245.57100000000003
20
-45.439400000000006
42
0.41421356237326151
0
LWPOLYLINE
5
455
100
AcDbEntity
8
0
100
AcDbPolyline
90
9
70
1
43
0.0
10
266.75000000000006
20
-36.163499999999985
10
266.75000000000006
20
-42.913499999999985
10
266.75000000000006
20
-49.663499999999985
42
0.41421356237313667
10
267
20
-49.913499999999985
10
280.50000000000006
20
-49.913500000000006
42
0.41421356237313667
10
280.75
20
-49.663499999999985
10
280.75
20
-36.163499999999985
42
0.41421356237312623
10
280.50000000000006
20
-35.913499999999985
10
267
20
-35.913499999999971
42
0.41421356237312623
0
LWPOLYLINE
5
456
100
AcDbEntity
8
0
100
AcDbPolyline
90
9
70
1
43
0.0
10
281.47000000000003
20
-34.413499999999985
10
273.75000000000006
20
-34.413499999999985
10
266.03000000000003
20
-34.413500000000006
42
-0.41421356237313145
10
265.78000000000003
20
-34.163499999999985
10
265.78000000000003
20
-27.863499999999984
42
-0.41421356237312623
10
266.03000000000003
20
-27.613499999999984
10
281.47000000000003
20
-27.61349999999997
42
-0.41421356237312623
10
281.72000000000003
20
-27.863499999999984
10
281.72000000000003
20
-34.163499999999985
42
-0.41421356237313145
0
LWPOLYLINE
5
457
100
AcDbEntity
8
0
100
AcDbPolyline
90
8
70
1
43
0.0
10
281.72000000000003
20
-57.963499999999982
10
281.72000000000003
20
-51.663499999999999
42
0.41421356237313667
10
281.47000000000003
20
-51.413499999999971
10
266.03000000000003
20
-51.413499999999992
42
0.41421356237313667
10
265.78000000000003
20
-51.663499999999999
10
265.78000000000003
20
-57.963499999999975
42
0.41421356237313667
10
266.03000000000003
20
-58.213499999999996
10
281.47000000000003
20
-58.21350000000001
42
0.41421356237313667
0
ENDSEC
0
SECTION
2
OBJECTS
0
DICTIONARY
5
C
100
AcDbDictionary
3
ACAD_GROUP
350
D
3
ACAD_MLINESTYLE
350
17
0
DICTIONARY
5
D
100
AcDbDictionary
0
DICTIONARY
5
1A
330
C
100
AcDbDictionary
0
DICTIONARY
5
17
100
AcDbDictionary
0
ENDSEC
0
EOF
